%TF.GenerationSoftware,KiCad,Pcbnew,7.0.2-0*%
%TF.CreationDate,2023-12-08T13:33:26+01:00*%
%TF.ProjectId,output_mixer,6f757470-7574-45f6-9d69-7865722e6b69,rev?*%
%TF.SameCoordinates,Original*%
%TF.FileFunction,Soldermask,Top*%
%TF.FilePolarity,Negative*%
%FSLAX46Y46*%
G04 Gerber Fmt 4.6, Leading zero omitted, Abs format (unit mm)*
G04 Created by KiCad (PCBNEW 7.0.2-0) date 2023-12-08 13:33:26*
%MOMM*%
%LPD*%
G01*
G04 APERTURE LIST*
G04 Aperture macros list*
%AMRoundRect*
0 Rectangle with rounded corners*
0 $1 Rounding radius*
0 $2 $3 $4 $5 $6 $7 $8 $9 X,Y pos of 4 corners*
0 Add a 4 corners polygon primitive as box body*
4,1,4,$2,$3,$4,$5,$6,$7,$8,$9,$2,$3,0*
0 Add four circle primitives for the rounded corners*
1,1,$1+$1,$2,$3*
1,1,$1+$1,$4,$5*
1,1,$1+$1,$6,$7*
1,1,$1+$1,$8,$9*
0 Add four rect primitives between the rounded corners*
20,1,$1+$1,$2,$3,$4,$5,0*
20,1,$1+$1,$4,$5,$6,$7,0*
20,1,$1+$1,$6,$7,$8,$9,0*
20,1,$1+$1,$8,$9,$2,$3,0*%
%AMFreePoly0*
4,1,15,-1.750000,0.787500,-1.743339,0.820985,-1.724372,0.849372,-1.695985,0.868339,-1.662500,0.875000,1.662500,0.875000,1.695985,0.868339,1.724372,0.849372,1.743339,0.820985,1.750000,0.787500,1.750000,0.000000,0.875000,-0.875000,-0.875000,-0.875000,-1.750000,0.000000,-1.750000,0.787500,-1.750000,0.787500,$1*%
%AMFreePoly1*
4,1,15,-1.750000,0.000000,-0.875000,0.875000,0.875000,0.875000,1.750000,0.000000,1.750000,-0.770000,1.742007,-0.810182,1.719246,-0.844246,1.685182,-0.867007,1.645000,-0.875000,-1.645000,-0.875000,-1.685182,-0.867007,-1.719246,-0.844246,-1.742007,-0.810182,-1.750000,-0.770000,-1.750000,0.000000,-1.750000,0.000000,$1*%
%AMFreePoly2*
4,1,15,-1.750000,0.000000,-0.875000,0.875000,0.875000,0.875000,1.750000,0.000000,1.750000,-0.787500,1.743339,-0.820985,1.724372,-0.849372,1.695985,-0.868339,1.662500,-0.875000,-1.662500,-0.875000,-1.695985,-0.868339,-1.724372,-0.849372,-1.743339,-0.820985,-1.750000,-0.787500,-1.750000,0.000000,-1.750000,0.000000,$1*%
G04 Aperture macros list end*
%ADD10RoundRect,0.225000X-0.225000X-0.250000X0.225000X-0.250000X0.225000X0.250000X-0.225000X0.250000X0*%
%ADD11C,1.600000*%
%ADD12O,1.600000X1.600000*%
%ADD13RoundRect,0.250000X0.262500X0.450000X-0.262500X0.450000X-0.262500X-0.450000X0.262500X-0.450000X0*%
%ADD14RoundRect,0.250000X0.450000X-0.262500X0.450000X0.262500X-0.450000X0.262500X-0.450000X-0.262500X0*%
%ADD15C,2.500000*%
%ADD16RoundRect,0.225000X0.225000X0.250000X-0.225000X0.250000X-0.225000X-0.250000X0.225000X-0.250000X0*%
%ADD17RoundRect,0.225000X0.375000X-0.225000X0.375000X0.225000X-0.375000X0.225000X-0.375000X-0.225000X0*%
%ADD18RoundRect,0.250000X-0.262500X-0.450000X0.262500X-0.450000X0.262500X0.450000X-0.262500X0.450000X0*%
%ADD19R,1.700000X1.700000*%
%ADD20O,1.700000X1.700000*%
%ADD21RoundRect,0.225000X-0.375000X0.225000X-0.375000X-0.225000X0.375000X-0.225000X0.375000X0.225000X0*%
%ADD22RoundRect,0.200000X-0.200000X-0.275000X0.200000X-0.275000X0.200000X0.275000X-0.200000X0.275000X0*%
%ADD23RoundRect,0.150000X-0.150000X0.675000X-0.150000X-0.675000X0.150000X-0.675000X0.150000X0.675000X0*%
%ADD24RoundRect,0.200000X-0.275000X0.200000X-0.275000X-0.200000X0.275000X-0.200000X0.275000X0.200000X0*%
%ADD25R,1.800000X1.800000*%
%ADD26O,1.800000X1.800000*%
%ADD27RoundRect,0.225000X0.250000X-0.225000X0.250000X0.225000X-0.250000X0.225000X-0.250000X-0.225000X0*%
%ADD28RoundRect,0.250000X-0.450000X0.262500X-0.450000X-0.262500X0.450000X-0.262500X0.450000X0.262500X0*%
%ADD29RoundRect,0.150000X0.150000X-0.675000X0.150000X0.675000X-0.150000X0.675000X-0.150000X-0.675000X0*%
%ADD30RoundRect,0.225000X-0.250000X0.225000X-0.250000X-0.225000X0.250000X-0.225000X0.250000X0.225000X0*%
%ADD31RoundRect,0.112500X-0.112500X0.187500X-0.112500X-0.187500X0.112500X-0.187500X0.112500X0.187500X0*%
%ADD32RoundRect,0.200000X0.275000X-0.200000X0.275000X0.200000X-0.275000X0.200000X-0.275000X-0.200000X0*%
%ADD33R,1.600000X1.600000*%
%ADD34RoundRect,0.225000X0.225000X0.375000X-0.225000X0.375000X-0.225000X-0.375000X0.225000X-0.375000X0*%
%ADD35RoundRect,0.112500X0.112500X-0.187500X0.112500X0.187500X-0.112500X0.187500X-0.112500X-0.187500X0*%
%ADD36RoundRect,0.225000X-0.225000X-0.375000X0.225000X-0.375000X0.225000X0.375000X-0.225000X0.375000X0*%
%ADD37O,2.720000X3.240000*%
%ADD38C,1.800000*%
%ADD39R,1.930000X1.830000*%
%ADD40C,2.130000*%
%ADD41FreePoly0,270.000000*%
%ADD42FreePoly1,180.000000*%
%ADD43FreePoly2,270.000000*%
G04 APERTURE END LIST*
D10*
%TO.C,C8*%
X256045000Y-32825000D03*
X257595000Y-32825000D03*
%TD*%
D11*
%TO.C,R1*%
X243590000Y-112000000D03*
D12*
X251210000Y-112000000D03*
%TD*%
D13*
%TO.C,R42*%
X254012500Y-25700000D03*
X252187500Y-25700000D03*
%TD*%
D14*
%TO.C,R50*%
X239500000Y-43412500D03*
X239500000Y-41587500D03*
%TD*%
D15*
%TO.C,TP1*%
X251000000Y-17700000D03*
%TD*%
D14*
%TO.C,R45*%
X248000000Y-34000000D03*
X248000000Y-32175000D03*
%TD*%
D11*
%TO.C,R26*%
X275000000Y-104690000D03*
D12*
X275000000Y-112310000D03*
%TD*%
D16*
%TO.C,C5*%
X245275000Y-109000000D03*
X243725000Y-109000000D03*
%TD*%
D17*
%TO.C,D6*%
X274500000Y-58150000D03*
X274500000Y-54850000D03*
%TD*%
D18*
%TO.C,R27*%
X244987500Y-17800000D03*
X246812500Y-17800000D03*
%TD*%
D19*
%TO.C,CONN1*%
X243200000Y-96000000D03*
D20*
X240660000Y-96000000D03*
X243200000Y-93460000D03*
X240660000Y-93460000D03*
X243200000Y-90920000D03*
X240660000Y-90920000D03*
X243200000Y-88380000D03*
X240660000Y-88380000D03*
X243200000Y-85840000D03*
X240660000Y-85840000D03*
%TD*%
D14*
%TO.C,R17*%
X241000000Y-68412500D03*
X241000000Y-66587500D03*
%TD*%
%TO.C,R48*%
X243000000Y-43412500D03*
X243000000Y-41587500D03*
%TD*%
D21*
%TO.C,D5*%
X274600000Y-59850000D03*
X274600000Y-63150000D03*
%TD*%
D22*
%TO.C,R35*%
X259675000Y-95500000D03*
X261325000Y-95500000D03*
%TD*%
D23*
%TO.C,U3*%
X259905000Y-68375000D03*
X258635000Y-68375000D03*
X257365000Y-68375000D03*
X256095000Y-68375000D03*
X256095000Y-73625000D03*
X257365000Y-73625000D03*
X258635000Y-73625000D03*
X259905000Y-73625000D03*
%TD*%
D24*
%TO.C,R34*%
X266000000Y-82675000D03*
X266000000Y-84325000D03*
%TD*%
D18*
%TO.C,R21*%
X240187500Y-25300000D03*
X242012500Y-25300000D03*
%TD*%
D21*
%TO.C,D3*%
X274900000Y-43450000D03*
X274900000Y-46750000D03*
%TD*%
D25*
%TO.C,Q3*%
X255700000Y-91525000D03*
D26*
X253160000Y-91525000D03*
X250620000Y-91525000D03*
%TD*%
D16*
%TO.C,C13*%
X257530000Y-66124999D03*
X255980000Y-66124999D03*
%TD*%
D18*
%TO.C,R31*%
X241087500Y-17800000D03*
X242912500Y-17800000D03*
%TD*%
D15*
%TO.C,TP2*%
X251100000Y-33500000D03*
%TD*%
D14*
%TO.C,R16*%
X249500000Y-59912500D03*
X249500000Y-58087500D03*
%TD*%
D21*
%TO.C,D11*%
X261000000Y-105850000D03*
X261000000Y-109150000D03*
%TD*%
D15*
%TO.C,TP3*%
X265400000Y-79600000D03*
%TD*%
D25*
%TO.C,Q5*%
X264600000Y-91525000D03*
D26*
X262060000Y-91525000D03*
X259520000Y-91525000D03*
%TD*%
D11*
%TO.C,R36*%
X267690000Y-95500000D03*
D12*
X275310000Y-95500000D03*
%TD*%
D14*
%TO.C,R15*%
X242000000Y-50912500D03*
X242000000Y-49087500D03*
%TD*%
D27*
%TO.C,C1*%
X240000000Y-59775000D03*
X240000000Y-58225000D03*
%TD*%
D28*
%TO.C,R3*%
X274800000Y-51400000D03*
X274800000Y-53225000D03*
%TD*%
D11*
%TO.C,R2*%
X253580000Y-112000000D03*
D12*
X261200000Y-112000000D03*
%TD*%
D21*
%TO.C,D1*%
X274700000Y-26750000D03*
X274700000Y-30050000D03*
%TD*%
D28*
%TO.C,R12*%
X245000000Y-49087500D03*
X245000000Y-50912500D03*
%TD*%
D17*
%TO.C,D8*%
X274500000Y-74850000D03*
X274500000Y-71550000D03*
%TD*%
D18*
%TO.C,R30*%
X254587500Y-99000000D03*
X256412500Y-99000000D03*
%TD*%
D13*
%TO.C,R59*%
X252412500Y-99000000D03*
X250587500Y-99000000D03*
%TD*%
D28*
%TO.C,R13*%
X241000000Y-74587500D03*
X241000000Y-76412500D03*
%TD*%
D15*
%TO.C,TP6*%
X266100000Y-32500000D03*
%TD*%
D29*
%TO.C,U2*%
X256095000Y-40125000D03*
X257365000Y-40125000D03*
X258635000Y-40125000D03*
X259905000Y-40125000D03*
X259905000Y-34875000D03*
X258635000Y-34875000D03*
X257365000Y-34875000D03*
X256095000Y-34875000D03*
%TD*%
D30*
%TO.C,C16*%
X263500000Y-82725000D03*
X263500000Y-84275000D03*
%TD*%
D14*
%TO.C,R47*%
X241500000Y-34000000D03*
X241500000Y-32175000D03*
%TD*%
D17*
%TO.C,D16*%
X253500000Y-109150000D03*
X253500000Y-105850000D03*
%TD*%
D28*
%TO.C,R32*%
X275000000Y-34700000D03*
X275000000Y-36525000D03*
%TD*%
D10*
%TO.C,C9*%
X258420000Y-42125000D03*
X259970000Y-42125000D03*
%TD*%
D24*
%TO.C,R19*%
X260500000Y-53675000D03*
X260500000Y-55325000D03*
%TD*%
D31*
%TO.C,D18*%
X248000000Y-98450000D03*
X248000000Y-100550000D03*
%TD*%
D18*
%TO.C,R43*%
X242887500Y-21000000D03*
X244712500Y-21000000D03*
%TD*%
%TO.C,R22*%
X244887500Y-25100000D03*
X246712500Y-25100000D03*
%TD*%
D21*
%TO.C,D15*%
X256000000Y-105850000D03*
X256000000Y-109150000D03*
%TD*%
D10*
%TO.C,C6*%
X256125000Y-15900000D03*
X257675000Y-15900000D03*
%TD*%
D15*
%TO.C,TP5*%
X265600000Y-16800000D03*
%TD*%
D11*
%TO.C,R38*%
X263690000Y-112000000D03*
D12*
X271310000Y-112000000D03*
%TD*%
D28*
%TO.C,R55*%
X238500000Y-49087500D03*
X238500000Y-50912500D03*
%TD*%
D14*
%TO.C,R54*%
X242500000Y-55912500D03*
X242500000Y-54087500D03*
%TD*%
%TO.C,R33*%
X275500000Y-92912500D03*
X275500000Y-91087500D03*
%TD*%
D25*
%TO.C,Q2*%
X250620000Y-88025000D03*
D26*
X253160000Y-88025000D03*
X255700000Y-88025000D03*
%TD*%
D28*
%TO.C,R46*%
X245000000Y-32175000D03*
X245000000Y-34000000D03*
%TD*%
D16*
%TO.C,C12*%
X259930000Y-75925000D03*
X258380000Y-75925000D03*
%TD*%
D28*
%TO.C,R58*%
X253500000Y-102087500D03*
X253500000Y-103912500D03*
%TD*%
D27*
%TO.C,C15*%
X246000000Y-43275000D03*
X246000000Y-41725000D03*
%TD*%
D32*
%TO.C,R20*%
X257000000Y-55325000D03*
X257000000Y-53675000D03*
%TD*%
D28*
%TO.C,R56*%
X246500000Y-58087500D03*
X246500000Y-59912500D03*
%TD*%
D21*
%TO.C,D10*%
X257000000Y-56850000D03*
X257000000Y-60150000D03*
%TD*%
D14*
%TO.C,R51*%
X238500000Y-34000000D03*
X238500000Y-32175000D03*
%TD*%
D33*
%TO.C,C2*%
X238300000Y-103700000D03*
D11*
X240800000Y-103700000D03*
%TD*%
D15*
%TO.C,TP8*%
X265500000Y-48600000D03*
%TD*%
D11*
%TO.C,R37*%
X275310000Y-99000000D03*
D12*
X267690000Y-99000000D03*
%TD*%
D14*
%TO.C,R28*%
X260500000Y-103912500D03*
X260500000Y-102087500D03*
%TD*%
D11*
%TO.C,R24*%
X248690000Y-95500000D03*
D12*
X256310000Y-95500000D03*
%TD*%
D15*
%TO.C,TP7*%
X265700000Y-66000000D03*
%TD*%
D29*
%TO.C,U1*%
X256195000Y-23725000D03*
X257465000Y-23725000D03*
X258735000Y-23725000D03*
X260005000Y-23725000D03*
X260005000Y-18475000D03*
X258735000Y-18475000D03*
X257465000Y-18475000D03*
X256195000Y-18475000D03*
%TD*%
D10*
%TO.C,C7*%
X259225000Y-26100000D03*
X260775000Y-26100000D03*
%TD*%
D28*
%TO.C,R4*%
X274700000Y-68087500D03*
X274700000Y-69912500D03*
%TD*%
%TO.C,R39*%
X256000000Y-102087500D03*
X256000000Y-103912500D03*
%TD*%
D10*
%TO.C,C23*%
X248525000Y-25800000D03*
X250075000Y-25800000D03*
%TD*%
D15*
%TO.C,TP10*%
X250700000Y-66200000D03*
%TD*%
D14*
%TO.C,R14*%
X245500000Y-55912500D03*
X245500000Y-54087500D03*
%TD*%
%TO.C,R7*%
X243000000Y-59912500D03*
X243000000Y-58087500D03*
%TD*%
D25*
%TO.C,Q4*%
X259500000Y-88000000D03*
D26*
X262040000Y-88000000D03*
X264580000Y-88000000D03*
%TD*%
D11*
%TO.C,R25*%
X250690000Y-84000000D03*
D12*
X258310000Y-84000000D03*
%TD*%
D14*
%TO.C,R18*%
X260500000Y-84412500D03*
X260500000Y-82587500D03*
%TD*%
D15*
%TO.C,TP9*%
X251000000Y-49800000D03*
%TD*%
D28*
%TO.C,R57*%
X244500000Y-66587500D03*
X244500000Y-68412500D03*
%TD*%
%TO.C,R40*%
X274700000Y-18075000D03*
X274700000Y-19900000D03*
%TD*%
D15*
%TO.C,TP4*%
X251000000Y-80000000D03*
%TD*%
D17*
%TO.C,D9*%
X260500000Y-60150000D03*
X260500000Y-56850000D03*
%TD*%
D30*
%TO.C,C17*%
X273500000Y-91225000D03*
X273500000Y-92775000D03*
%TD*%
D14*
%TO.C,R8*%
X245000000Y-72412500D03*
X245000000Y-70587500D03*
%TD*%
D34*
%TO.C,D14*%
X268650000Y-70500000D03*
X265350000Y-70500000D03*
%TD*%
D35*
%TO.C,D17*%
X248000000Y-84550000D03*
X248000000Y-82450000D03*
%TD*%
D17*
%TO.C,D2*%
X274700000Y-24950000D03*
X274700000Y-21650000D03*
%TD*%
D36*
%TO.C,D13*%
X265350000Y-73000000D03*
X268650000Y-73000000D03*
%TD*%
D16*
%TO.C,C4*%
X248775000Y-109000000D03*
X247225000Y-109000000D03*
%TD*%
D33*
%TO.C,C3*%
X238300000Y-110800000D03*
D11*
X240800000Y-110800000D03*
%TD*%
D17*
%TO.C,D4*%
X274900000Y-41550000D03*
X274900000Y-38250000D03*
%TD*%
D28*
%TO.C,R29*%
X258500000Y-102087500D03*
X258500000Y-103912500D03*
%TD*%
D27*
%TO.C,C14*%
X242500000Y-72275000D03*
X242500000Y-70725000D03*
%TD*%
D17*
%TO.C,D12*%
X258500000Y-109150000D03*
X258500000Y-105850000D03*
%TD*%
D21*
%TO.C,D7*%
X274600000Y-76650000D03*
X274600000Y-79950000D03*
%TD*%
D37*
%TO.C,R44*%
X239000000Y-38500000D03*
X248600000Y-38500000D03*
D25*
X246300000Y-46000000D03*
D38*
X243800000Y-46000000D03*
X241300000Y-46000000D03*
%TD*%
D37*
%TO.C,R6*%
X239000000Y-71900000D03*
X248600000Y-71900000D03*
D25*
X246300000Y-79400000D03*
D38*
X243800000Y-79400000D03*
X241300000Y-79400000D03*
%TD*%
D39*
%TO.C,J2*%
X271300000Y-46380000D03*
D40*
X271300000Y-34980000D03*
X271300000Y-43280000D03*
%TD*%
D41*
%TO.C,J6*%
X249650000Y-105500000D03*
D42*
X247500000Y-103700000D03*
D43*
X245350000Y-105500000D03*
%TD*%
D37*
%TO.C,R5*%
X239000000Y-55200000D03*
X248600000Y-55200000D03*
D25*
X246300000Y-62700000D03*
D38*
X243800000Y-62700000D03*
X241300000Y-62700000D03*
%TD*%
D37*
%TO.C,R41*%
X239000000Y-21800000D03*
X248600000Y-21800000D03*
D25*
X246300000Y-29300000D03*
D38*
X243800000Y-29300000D03*
X241300000Y-29300000D03*
%TD*%
D37*
%TO.C,R52*%
X253455000Y-55200000D03*
X263055000Y-55200000D03*
D25*
X260755000Y-62700000D03*
D38*
X258255000Y-62700000D03*
X255755000Y-62700000D03*
%TD*%
D41*
%TO.C,J5*%
X268800000Y-105500000D03*
D42*
X266650000Y-103700000D03*
D43*
X264500000Y-105500000D03*
%TD*%
D37*
%TO.C,R49*%
X253455000Y-38500000D03*
X263055000Y-38500000D03*
D25*
X260755000Y-46000000D03*
D38*
X258255000Y-46000000D03*
X255755000Y-46000000D03*
%TD*%
D39*
%TO.C,J3*%
X271300000Y-63080000D03*
D40*
X271300000Y-51680000D03*
X271300000Y-59980000D03*
%TD*%
D39*
%TO.C,J1*%
X271300000Y-29680000D03*
D40*
X271300000Y-18280000D03*
X271300000Y-26580000D03*
%TD*%
D37*
%TO.C,R53*%
X253455000Y-71900000D03*
X263055000Y-71900000D03*
D25*
X260755000Y-79400000D03*
D38*
X258255000Y-79400000D03*
X255755000Y-79400000D03*
%TD*%
D37*
%TO.C,R23*%
X253455000Y-21800000D03*
X263055000Y-21800000D03*
D25*
X260755000Y-29300000D03*
D38*
X258255000Y-29300000D03*
X255755000Y-29300000D03*
%TD*%
D39*
%TO.C,J4*%
X271300000Y-79780000D03*
D40*
X271300000Y-68380000D03*
X271300000Y-76680000D03*
%TD*%
M02*
