%TF.GenerationSoftware,KiCad,Pcbnew,7.0.2-0*%
%TF.CreationDate,2024-01-05T22:35:07+01:00*%
%TF.ProjectId,output_mixer,6f757470-7574-45f6-9d69-7865722e6b69,rev?*%
%TF.SameCoordinates,Original*%
%TF.FileFunction,Paste,Top*%
%TF.FilePolarity,Positive*%
%FSLAX46Y46*%
G04 Gerber Fmt 4.6, Leading zero omitted, Abs format (unit mm)*
G04 Created by KiCad (PCBNEW 7.0.2-0) date 2024-01-05 22:35:07*
%MOMM*%
%LPD*%
G01*
G04 APERTURE LIST*
G04 Aperture macros list*
%AMRoundRect*
0 Rectangle with rounded corners*
0 $1 Rounding radius*
0 $2 $3 $4 $5 $6 $7 $8 $9 X,Y pos of 4 corners*
0 Add a 4 corners polygon primitive as box body*
4,1,4,$2,$3,$4,$5,$6,$7,$8,$9,$2,$3,0*
0 Add four circle primitives for the rounded corners*
1,1,$1+$1,$2,$3*
1,1,$1+$1,$4,$5*
1,1,$1+$1,$6,$7*
1,1,$1+$1,$8,$9*
0 Add four rect primitives between the rounded corners*
20,1,$1+$1,$2,$3,$4,$5,0*
20,1,$1+$1,$4,$5,$6,$7,0*
20,1,$1+$1,$6,$7,$8,$9,0*
20,1,$1+$1,$8,$9,$2,$3,0*%
G04 Aperture macros list end*
%ADD10RoundRect,0.225000X-0.225000X-0.250000X0.225000X-0.250000X0.225000X0.250000X-0.225000X0.250000X0*%
%ADD11RoundRect,0.250000X0.262500X0.450000X-0.262500X0.450000X-0.262500X-0.450000X0.262500X-0.450000X0*%
%ADD12RoundRect,0.250000X0.450000X-0.262500X0.450000X0.262500X-0.450000X0.262500X-0.450000X-0.262500X0*%
%ADD13RoundRect,0.225000X0.225000X0.250000X-0.225000X0.250000X-0.225000X-0.250000X0.225000X-0.250000X0*%
%ADD14RoundRect,0.225000X0.375000X-0.225000X0.375000X0.225000X-0.375000X0.225000X-0.375000X-0.225000X0*%
%ADD15RoundRect,0.250000X-0.262500X-0.450000X0.262500X-0.450000X0.262500X0.450000X-0.262500X0.450000X0*%
%ADD16RoundRect,0.225000X-0.375000X0.225000X-0.375000X-0.225000X0.375000X-0.225000X0.375000X0.225000X0*%
%ADD17RoundRect,0.200000X-0.200000X-0.275000X0.200000X-0.275000X0.200000X0.275000X-0.200000X0.275000X0*%
%ADD18RoundRect,0.150000X-0.150000X0.675000X-0.150000X-0.675000X0.150000X-0.675000X0.150000X0.675000X0*%
%ADD19RoundRect,0.200000X-0.275000X0.200000X-0.275000X-0.200000X0.275000X-0.200000X0.275000X0.200000X0*%
%ADD20RoundRect,0.225000X0.250000X-0.225000X0.250000X0.225000X-0.250000X0.225000X-0.250000X-0.225000X0*%
%ADD21RoundRect,0.250000X-0.450000X0.262500X-0.450000X-0.262500X0.450000X-0.262500X0.450000X0.262500X0*%
%ADD22RoundRect,0.150000X0.150000X-0.675000X0.150000X0.675000X-0.150000X0.675000X-0.150000X-0.675000X0*%
%ADD23RoundRect,0.225000X-0.250000X0.225000X-0.250000X-0.225000X0.250000X-0.225000X0.250000X0.225000X0*%
%ADD24RoundRect,0.112500X-0.112500X0.187500X-0.112500X-0.187500X0.112500X-0.187500X0.112500X0.187500X0*%
%ADD25RoundRect,0.200000X0.275000X-0.200000X0.275000X0.200000X-0.275000X0.200000X-0.275000X-0.200000X0*%
%ADD26RoundRect,0.225000X0.225000X0.375000X-0.225000X0.375000X-0.225000X-0.375000X0.225000X-0.375000X0*%
%ADD27RoundRect,0.112500X0.112500X-0.187500X0.112500X0.187500X-0.112500X0.187500X-0.112500X-0.187500X0*%
%ADD28RoundRect,0.225000X-0.225000X-0.375000X0.225000X-0.375000X0.225000X0.375000X-0.225000X0.375000X0*%
G04 APERTURE END LIST*
D10*
%TO.C,C8*%
X256045000Y-32825000D03*
X257595000Y-32825000D03*
%TD*%
D11*
%TO.C,R42*%
X254012500Y-25700000D03*
X252187500Y-25700000D03*
%TD*%
D12*
%TO.C,R50*%
X239500000Y-43412500D03*
X239500000Y-41587500D03*
%TD*%
%TO.C,R45*%
X248000000Y-34000000D03*
X248000000Y-32175000D03*
%TD*%
D13*
%TO.C,C5*%
X245275000Y-109000000D03*
X243725000Y-109000000D03*
%TD*%
D14*
%TO.C,D6*%
X274500000Y-58150000D03*
X274500000Y-54850000D03*
%TD*%
D15*
%TO.C,R27*%
X244987500Y-17800000D03*
X246812500Y-17800000D03*
%TD*%
D12*
%TO.C,R17*%
X241000000Y-68412500D03*
X241000000Y-66587500D03*
%TD*%
%TO.C,R48*%
X243000000Y-43412500D03*
X243000000Y-41587500D03*
%TD*%
D16*
%TO.C,D5*%
X274600000Y-59850000D03*
X274600000Y-63150000D03*
%TD*%
D17*
%TO.C,R35*%
X259675000Y-95500000D03*
X261325000Y-95500000D03*
%TD*%
D18*
%TO.C,U3*%
X259905000Y-68375000D03*
X258635000Y-68375000D03*
X257365000Y-68375000D03*
X256095000Y-68375000D03*
X256095000Y-73625000D03*
X257365000Y-73625000D03*
X258635000Y-73625000D03*
X259905000Y-73625000D03*
%TD*%
D19*
%TO.C,R34*%
X266000000Y-82675000D03*
X266000000Y-84325000D03*
%TD*%
D15*
%TO.C,R21*%
X240187500Y-25300000D03*
X242012500Y-25300000D03*
%TD*%
D16*
%TO.C,D3*%
X274900000Y-43450000D03*
X274900000Y-46750000D03*
%TD*%
D13*
%TO.C,C13*%
X257530000Y-66124999D03*
X255980000Y-66124999D03*
%TD*%
D15*
%TO.C,R31*%
X241087500Y-17800000D03*
X242912500Y-17800000D03*
%TD*%
D12*
%TO.C,R16*%
X249500000Y-59912500D03*
X249500000Y-58087500D03*
%TD*%
D16*
%TO.C,D11*%
X261000000Y-105850000D03*
X261000000Y-109150000D03*
%TD*%
D12*
%TO.C,R15*%
X242000000Y-50912500D03*
X242000000Y-49087500D03*
%TD*%
D20*
%TO.C,C1*%
X240000000Y-59775000D03*
X240000000Y-58225000D03*
%TD*%
D21*
%TO.C,R3*%
X274800000Y-51400000D03*
X274800000Y-53225000D03*
%TD*%
D16*
%TO.C,D1*%
X274700000Y-26750000D03*
X274700000Y-30050000D03*
%TD*%
D21*
%TO.C,R12*%
X245000000Y-49087500D03*
X245000000Y-50912500D03*
%TD*%
D14*
%TO.C,D8*%
X274500000Y-74850000D03*
X274500000Y-71550000D03*
%TD*%
D15*
%TO.C,R30*%
X254587500Y-99000000D03*
X256412500Y-99000000D03*
%TD*%
D11*
%TO.C,R59*%
X252412500Y-99000000D03*
X250587500Y-99000000D03*
%TD*%
D21*
%TO.C,R13*%
X241000000Y-74587500D03*
X241000000Y-76412500D03*
%TD*%
D22*
%TO.C,U2*%
X256095000Y-40125000D03*
X257365000Y-40125000D03*
X258635000Y-40125000D03*
X259905000Y-40125000D03*
X259905000Y-34875000D03*
X258635000Y-34875000D03*
X257365000Y-34875000D03*
X256095000Y-34875000D03*
%TD*%
D23*
%TO.C,C16*%
X263500000Y-82725000D03*
X263500000Y-84275000D03*
%TD*%
D12*
%TO.C,R47*%
X241500000Y-34000000D03*
X241500000Y-32175000D03*
%TD*%
D14*
%TO.C,D16*%
X253500000Y-109150000D03*
X253500000Y-105850000D03*
%TD*%
D21*
%TO.C,R32*%
X275000000Y-34700000D03*
X275000000Y-36525000D03*
%TD*%
D10*
%TO.C,C9*%
X258420000Y-42125000D03*
X259970000Y-42125000D03*
%TD*%
D19*
%TO.C,R19*%
X260500000Y-53675000D03*
X260500000Y-55325000D03*
%TD*%
D24*
%TO.C,D18*%
X248000000Y-98450000D03*
X248000000Y-100550000D03*
%TD*%
D15*
%TO.C,R43*%
X242887500Y-21000000D03*
X244712500Y-21000000D03*
%TD*%
%TO.C,R22*%
X244887500Y-25100000D03*
X246712500Y-25100000D03*
%TD*%
D16*
%TO.C,D15*%
X256000000Y-105850000D03*
X256000000Y-109150000D03*
%TD*%
D10*
%TO.C,C6*%
X256125000Y-15900000D03*
X257675000Y-15900000D03*
%TD*%
D21*
%TO.C,R55*%
X238500000Y-49087500D03*
X238500000Y-50912500D03*
%TD*%
D12*
%TO.C,R54*%
X242500000Y-55912500D03*
X242500000Y-54087500D03*
%TD*%
%TO.C,R33*%
X275500000Y-92912500D03*
X275500000Y-91087500D03*
%TD*%
D21*
%TO.C,R46*%
X245000000Y-32175000D03*
X245000000Y-34000000D03*
%TD*%
D13*
%TO.C,C12*%
X259930000Y-75925000D03*
X258380000Y-75925000D03*
%TD*%
D21*
%TO.C,R58*%
X253500000Y-102087500D03*
X253500000Y-103912500D03*
%TD*%
D20*
%TO.C,C15*%
X246000000Y-43275000D03*
X246000000Y-41725000D03*
%TD*%
D25*
%TO.C,R20*%
X257000000Y-55325000D03*
X257000000Y-53675000D03*
%TD*%
D21*
%TO.C,R56*%
X246500000Y-58087500D03*
X246500000Y-59912500D03*
%TD*%
D16*
%TO.C,D10*%
X257000000Y-56850000D03*
X257000000Y-60150000D03*
%TD*%
D12*
%TO.C,R51*%
X238500000Y-34000000D03*
X238500000Y-32175000D03*
%TD*%
%TO.C,R28*%
X260500000Y-103912500D03*
X260500000Y-102087500D03*
%TD*%
D22*
%TO.C,U1*%
X256195000Y-23725000D03*
X257465000Y-23725000D03*
X258735000Y-23725000D03*
X260005000Y-23725000D03*
X260005000Y-18475000D03*
X258735000Y-18475000D03*
X257465000Y-18475000D03*
X256195000Y-18475000D03*
%TD*%
D10*
%TO.C,C7*%
X259225000Y-26100000D03*
X260775000Y-26100000D03*
%TD*%
D21*
%TO.C,R4*%
X274700000Y-68087500D03*
X274700000Y-69912500D03*
%TD*%
%TO.C,R39*%
X256000000Y-102087500D03*
X256000000Y-103912500D03*
%TD*%
D10*
%TO.C,C23*%
X248525000Y-25800000D03*
X250075000Y-25800000D03*
%TD*%
D12*
%TO.C,R14*%
X245500000Y-55912500D03*
X245500000Y-54087500D03*
%TD*%
%TO.C,R7*%
X243000000Y-59912500D03*
X243000000Y-58087500D03*
%TD*%
%TO.C,R18*%
X260500000Y-84412500D03*
X260500000Y-82587500D03*
%TD*%
D21*
%TO.C,R57*%
X244500000Y-66587500D03*
X244500000Y-68412500D03*
%TD*%
%TO.C,R40*%
X274700000Y-18075000D03*
X274700000Y-19900000D03*
%TD*%
D14*
%TO.C,D9*%
X260500000Y-60150000D03*
X260500000Y-56850000D03*
%TD*%
D23*
%TO.C,C17*%
X273500000Y-91225000D03*
X273500000Y-92775000D03*
%TD*%
D12*
%TO.C,R8*%
X245000000Y-72412500D03*
X245000000Y-70587500D03*
%TD*%
D26*
%TO.C,D14*%
X268650000Y-70500000D03*
X265350000Y-70500000D03*
%TD*%
D27*
%TO.C,D17*%
X248000000Y-84550000D03*
X248000000Y-82450000D03*
%TD*%
D14*
%TO.C,D2*%
X274700000Y-24950000D03*
X274700000Y-21650000D03*
%TD*%
D28*
%TO.C,D13*%
X265350000Y-73000000D03*
X268650000Y-73000000D03*
%TD*%
D13*
%TO.C,C4*%
X248775000Y-109000000D03*
X247225000Y-109000000D03*
%TD*%
D14*
%TO.C,D4*%
X274900000Y-41550000D03*
X274900000Y-38250000D03*
%TD*%
D21*
%TO.C,R29*%
X258500000Y-102087500D03*
X258500000Y-103912500D03*
%TD*%
D20*
%TO.C,C14*%
X242500000Y-72275000D03*
X242500000Y-70725000D03*
%TD*%
D14*
%TO.C,D12*%
X258500000Y-109150000D03*
X258500000Y-105850000D03*
%TD*%
D16*
%TO.C,D7*%
X274600000Y-76650000D03*
X274600000Y-79950000D03*
%TD*%
M02*
