M48
; DRILL file {KiCad 7.0.2-0} date 2023 December 08, Friday 13:33:26
; FORMAT={-:-/ absolute / metric / decimal}
; #@! TF.CreationDate,2023-12-08T13:33:26+01:00
; #@! TF.GenerationSoftware,Kicad,Pcbnew,7.0.2-0
; #@! TF.FileFunction,Plated,1,2,PTH
FMAT,2
METRIC
; #@! TA.AperFunction,Plated,PTH,ViaDrill
T1C0.400
; #@! TA.AperFunction,Plated,PTH,ComponentDrill
T2C0.750
; #@! TA.AperFunction,Plated,PTH,ComponentDrill
T3C0.800
; #@! TA.AperFunction,Plated,PTH,ComponentDrill
T4C1.000
; #@! TA.AperFunction,Plated,PTH,ComponentDrill
T5C1.200
; #@! TA.AperFunction,Plated,PTH,ComponentDrill
T6C1.220
; #@! TA.AperFunction,Plated,PTH,ComponentDrill
T7C1.300
; #@! TA.AperFunction,Plated,PTH,ComponentDrill
T8C1.420
; #@! TA.AperFunction,Plated,PTH,ComponentDrill
T9C1.430
%
G90
G05
T1
X241.0Y-39.5
X241.0Y-43.5
X241.421Y-65.579
X241.5Y-36.5
X241.5Y-55.5
X243.5Y-25.5
X243.5Y-40.5
X243.5Y-102.0
X244.0Y-48.149
X244.012Y-110.457
X244.5Y-43.85
X244.5Y-52.0
X244.5Y-59.5
X245.0Y-31.0
X245.0Y-61.0
X245.224Y-52.975
X245.224Y-57.363
X245.5Y-40.5
X246.0Y-72.5
X246.5Y-32.0
X246.5Y-65.0
X246.707Y-73.207
X247.0Y-26.5
X247.0Y-35.831
X247.0Y-52.5
X248.0Y-16.5
X248.0Y-58.0
X248.5Y-65.475
X248.734Y-89.734
X249.5Y-61.0
X249.5Y-77.0
X251.0Y-43.717
X251.0Y-58.5
X251.0Y-100.724
X252.0Y-42.5
X252.0Y-82.5
X253.155Y-58.115
X253.5Y-100.924
X253.5Y-107.5
X254.0Y-74.5
X254.0Y-76.5
X254.0Y-78.5
X254.537Y-35.941
X255.0Y-15.2
X255.0Y-66.5
X255.254Y-60.0
X255.5Y-53.5
X255.5Y-82.5
X255.5Y-101.0
X256.262Y-70.762
X256.5Y-32.0
X257.0Y-26.95
X257.0Y-36.276
X257.0Y-59.0
X257.0Y-100.0
X257.158Y-65.499
X257.5Y-71.0
X257.675Y-16.249
X258.0Y-77.0
X258.177Y-74.65
X258.5Y-22.0
X258.5Y-36.276
X258.5Y-49.5
X259.0Y-32.45
X259.5Y-43.5
X259.5Y-70.5
X259.5Y-100.5
X260.5Y-20.5
X260.5Y-59.0
X261.0Y-68.5
X261.5Y-53.0
X261.5Y-76.0
X261.6Y-26.0
X261.707Y-69.207
X261.95Y-100.5
X261.999Y-74.502
X262.0Y-57.5
X262.5Y-32.45
X262.5Y-64.849
X262.724Y-60.5
X263.0Y-85.5
X266.0Y-76.0
X267.0Y-85.5
X267.5Y-82.5
X267.512Y-74.988
X273.0Y-84.0
X273.5Y-24.0
X273.5Y-75.0
X274.5Y-40.5
X274.5Y-57.0
X274.5Y-82.0
X274.5Y-85.5
T3
X238.3Y-103.7
X238.3Y-110.8
X240.8Y-103.7
X240.8Y-110.8
X243.59Y-112.0
X248.69Y-95.5
X250.69Y-84.0
X251.21Y-112.0
X253.58Y-112.0
X256.31Y-95.5
X258.31Y-84.0
X261.2Y-112.0
X263.69Y-112.0
X267.69Y-95.5
X267.69Y-99.0
X271.31Y-112.0
X275.0Y-104.69
X275.0Y-112.31
X275.31Y-95.5
X275.31Y-99.0
T4
X240.66Y-85.84
X240.66Y-88.38
X240.66Y-90.92
X240.66Y-93.46
X240.66Y-96.0
X241.3Y-29.3
X241.3Y-46.0
X241.3Y-62.7
X241.3Y-79.4
X243.2Y-85.84
X243.2Y-88.38
X243.2Y-90.92
X243.2Y-93.46
X243.2Y-96.0
X243.8Y-29.3
X243.8Y-46.0
X243.8Y-62.7
X243.8Y-79.4
X246.3Y-29.3
X246.3Y-46.0
X246.3Y-62.7
X246.3Y-79.4
X250.62Y-88.025
X250.62Y-91.525
X253.16Y-88.025
X253.16Y-91.525
X255.7Y-88.025
X255.7Y-91.525
X255.755Y-29.3
X255.755Y-46.0
X255.755Y-62.7
X255.755Y-79.4
X258.255Y-29.3
X258.255Y-46.0
X258.255Y-62.7
X258.255Y-79.4
X259.5Y-88.0
X259.52Y-91.525
X260.755Y-29.3
X260.755Y-46.0
X260.755Y-62.7
X260.755Y-79.4
X262.04Y-88.0
X262.06Y-91.525
X264.58Y-88.0
X264.6Y-91.525
T5
X250.7Y-66.2
X251.0Y-17.7
X251.0Y-49.8
X251.0Y-80.0
X251.1Y-33.5
X265.4Y-79.6
X265.5Y-48.6
X265.6Y-16.8
X265.7Y-66.0
X266.1Y-32.5
T6
X271.3Y-29.68
X271.3Y-46.38
X271.3Y-63.08
X271.3Y-79.78
T8
X271.3Y-26.58
X271.3Y-43.28
X271.3Y-59.98
X271.3Y-76.68
T9
X271.3Y-18.28
X271.3Y-34.98
X271.3Y-51.68
X271.3Y-68.38
T2
G00X245.35Y-104.625
M15
G01X245.35Y-106.375
M16
G05
G00X248.375Y-103.7
M15
G01X246.625Y-103.7
M16
G05
G00X249.65Y-104.625
M15
G01X249.65Y-106.375
M16
G05
G00X264.5Y-104.625
M15
G01X264.5Y-106.375
M16
G05
G00X267.525Y-103.7
M15
G01X265.775Y-103.7
M16
G05
G00X268.8Y-104.625
M15
G01X268.8Y-106.375
M16
G05
T7
G00X239.0Y-21.35
M15
G01X239.0Y-22.25
M16
G05
G00X239.0Y-38.05
M15
G01X239.0Y-38.95
M16
G05
G00X239.0Y-54.75
M15
G01X239.0Y-55.65
M16
G05
G00X239.0Y-71.45
M15
G01X239.0Y-72.35
M16
G05
G00X248.6Y-21.35
M15
G01X248.6Y-22.25
M16
G05
G00X248.6Y-38.05
M15
G01X248.6Y-38.95
M16
G05
G00X248.6Y-54.75
M15
G01X248.6Y-55.65
M16
G05
G00X248.6Y-71.45
M15
G01X248.6Y-72.35
M16
G05
G00X253.455Y-21.35
M15
G01X253.455Y-22.25
M16
G05
G00X253.455Y-38.05
M15
G01X253.455Y-38.95
M16
G05
G00X253.455Y-54.75
M15
G01X253.455Y-55.65
M16
G05
G00X253.455Y-71.45
M15
G01X253.455Y-72.35
M16
G05
G00X263.055Y-21.35
M15
G01X263.055Y-22.25
M16
G05
G00X263.055Y-38.05
M15
G01X263.055Y-38.95
M16
G05
G00X263.055Y-54.75
M15
G01X263.055Y-55.65
M16
G05
G00X263.055Y-71.45
M15
G01X263.055Y-72.35
M16
G05
T0
M30
