%TF.GenerationSoftware,KiCad,Pcbnew,7.0.2-0*%
%TF.CreationDate,2023-12-08T13:33:26+01:00*%
%TF.ProjectId,output_mixer,6f757470-7574-45f6-9d69-7865722e6b69,rev?*%
%TF.SameCoordinates,Original*%
%TF.FileFunction,Copper,L2,Bot*%
%TF.FilePolarity,Positive*%
%FSLAX46Y46*%
G04 Gerber Fmt 4.6, Leading zero omitted, Abs format (unit mm)*
G04 Created by KiCad (PCBNEW 7.0.2-0) date 2023-12-08 13:33:26*
%MOMM*%
%LPD*%
G01*
G04 APERTURE LIST*
G04 Aperture macros list*
%AMFreePoly0*
4,1,15,-1.750000,0.787500,-1.743339,0.820985,-1.724372,0.849372,-1.695985,0.868339,-1.662500,0.875000,1.662500,0.875000,1.695985,0.868339,1.724372,0.849372,1.743339,0.820985,1.750000,0.787500,1.750000,0.000000,0.875000,-0.875000,-0.875000,-0.875000,-1.750000,0.000000,-1.750000,0.787500,-1.750000,0.787500,$1*%
%AMFreePoly1*
4,1,15,-1.750000,0.000000,-0.875000,0.875000,0.875000,0.875000,1.750000,0.000000,1.750000,-0.770000,1.742007,-0.810182,1.719246,-0.844246,1.685182,-0.867007,1.645000,-0.875000,-1.645000,-0.875000,-1.685182,-0.867007,-1.719246,-0.844246,-1.742007,-0.810182,-1.750000,-0.770000,-1.750000,0.000000,-1.750000,0.000000,$1*%
%AMFreePoly2*
4,1,15,-1.750000,0.000000,-0.875000,0.875000,0.875000,0.875000,1.750000,0.000000,1.750000,-0.787500,1.743339,-0.820985,1.724372,-0.849372,1.695985,-0.868339,1.662500,-0.875000,-1.662500,-0.875000,-1.695985,-0.868339,-1.724372,-0.849372,-1.743339,-0.820985,-1.750000,-0.787500,-1.750000,0.000000,-1.750000,0.000000,$1*%
G04 Aperture macros list end*
%TA.AperFunction,ComponentPad*%
%ADD10C,1.600000*%
%TD*%
%TA.AperFunction,ComponentPad*%
%ADD11O,1.600000X1.600000*%
%TD*%
%TA.AperFunction,ComponentPad*%
%ADD12C,2.500000*%
%TD*%
%TA.AperFunction,ComponentPad*%
%ADD13R,1.700000X1.700000*%
%TD*%
%TA.AperFunction,ComponentPad*%
%ADD14O,1.700000X1.700000*%
%TD*%
%TA.AperFunction,ComponentPad*%
%ADD15R,1.800000X1.800000*%
%TD*%
%TA.AperFunction,ComponentPad*%
%ADD16O,1.800000X1.800000*%
%TD*%
%TA.AperFunction,ComponentPad*%
%ADD17R,1.600000X1.600000*%
%TD*%
%TA.AperFunction,ComponentPad*%
%ADD18O,2.720000X3.240000*%
%TD*%
%TA.AperFunction,ComponentPad*%
%ADD19C,1.800000*%
%TD*%
%TA.AperFunction,ComponentPad*%
%ADD20R,1.930000X1.830000*%
%TD*%
%TA.AperFunction,ComponentPad*%
%ADD21C,2.130000*%
%TD*%
%TA.AperFunction,ComponentPad*%
%ADD22FreePoly0,270.000000*%
%TD*%
%TA.AperFunction,ComponentPad*%
%ADD23FreePoly1,180.000000*%
%TD*%
%TA.AperFunction,ComponentPad*%
%ADD24FreePoly2,270.000000*%
%TD*%
%TA.AperFunction,ViaPad*%
%ADD25C,0.800000*%
%TD*%
%TA.AperFunction,Conductor*%
%ADD26C,0.500000*%
%TD*%
%TA.AperFunction,Conductor*%
%ADD27C,0.250000*%
%TD*%
G04 APERTURE END LIST*
D10*
%TO.P,R1,1*%
%TO.N,Net-(D17-K)*%
X243590000Y-112000000D03*
D11*
%TO.P,R1,2*%
%TO.N,+12V*%
X251210000Y-112000000D03*
%TD*%
D12*
%TO.P,TP1,1,1*%
%TO.N,Net-(R21-Pad2)*%
X251000000Y-17700000D03*
%TD*%
D10*
%TO.P,R26,1*%
%TO.N,Net-(C16-Pad2)*%
X275000000Y-104690000D03*
D11*
%TO.P,R26,2*%
%TO.N,Net-(J5-PadT)*%
X275000000Y-112310000D03*
%TD*%
D13*
%TO.P,CONN1,1,Pin_1*%
%TO.N,Net-(CONN1-Pin_1)*%
X243200000Y-96000000D03*
D14*
%TO.P,CONN1,2,Pin_2*%
X240660000Y-96000000D03*
%TO.P,CONN1,3,Pin_3*%
%TO.N,GND*%
X243200000Y-93460000D03*
%TO.P,CONN1,4,Pin_4*%
X240660000Y-93460000D03*
%TO.P,CONN1,5,Pin_5*%
X243200000Y-90920000D03*
%TO.P,CONN1,6,Pin_6*%
X240660000Y-90920000D03*
%TO.P,CONN1,7,Pin_7*%
X243200000Y-88380000D03*
%TO.P,CONN1,8,Pin_8*%
X240660000Y-88380000D03*
%TO.P,CONN1,9,Pin_9*%
%TO.N,Net-(CONN1-Pin_10)*%
X243200000Y-85840000D03*
%TO.P,CONN1,10,Pin_10*%
X240660000Y-85840000D03*
%TD*%
D15*
%TO.P,Q3,1,E*%
%TO.N,Net-(Q3-E)*%
X255700000Y-91525000D03*
D16*
%TO.P,Q3,2,C*%
%TO.N,-12V*%
X253160000Y-91525000D03*
%TO.P,Q3,3,B*%
%TO.N,Net-(D10-K)*%
X250620000Y-91525000D03*
%TD*%
D12*
%TO.P,TP2,1,1*%
%TO.N,Net-(R46-Pad1)*%
X251100000Y-33500000D03*
%TD*%
%TO.P,TP3,1,1*%
%TO.N,Net-(D10-A)*%
X265400000Y-79600000D03*
%TD*%
D15*
%TO.P,Q5,1,E*%
%TO.N,Net-(Q5-E)*%
X264600000Y-91525000D03*
D16*
%TO.P,Q5,2,C*%
%TO.N,-12V*%
X262060000Y-91525000D03*
%TO.P,Q5,3,B*%
%TO.N,Net-(D14-K)*%
X259520000Y-91525000D03*
%TD*%
D10*
%TO.P,R36,1*%
%TO.N,Net-(Q4-E)*%
X267690000Y-95500000D03*
D11*
%TO.P,R36,2*%
%TO.N,Net-(C17-Pad2)*%
X275310000Y-95500000D03*
%TD*%
D10*
%TO.P,R2,1*%
%TO.N,Net-(D18-A)*%
X253580000Y-112000000D03*
D11*
%TO.P,R2,2*%
%TO.N,-12V*%
X261200000Y-112000000D03*
%TD*%
D12*
%TO.P,TP6,1,1*%
%TO.N,GND*%
X266100000Y-32500000D03*
%TD*%
%TO.P,TP5,1,1*%
%TO.N,GND*%
X265600000Y-16800000D03*
%TD*%
D10*
%TO.P,R38,1*%
%TO.N,Net-(C17-Pad2)*%
X263690000Y-112000000D03*
D11*
%TO.P,R38,2*%
%TO.N,Net-(J5-PadR)*%
X271310000Y-112000000D03*
%TD*%
D15*
%TO.P,Q2,1,E*%
%TO.N,Net-(Q2-E)*%
X250620000Y-88025000D03*
D16*
%TO.P,Q2,2,C*%
%TO.N,+12V*%
X253160000Y-88025000D03*
%TO.P,Q2,3,B*%
%TO.N,Net-(D9-A)*%
X255700000Y-88025000D03*
%TD*%
D17*
%TO.P,C2,1*%
%TO.N,+12V*%
X238300000Y-103700000D03*
D10*
%TO.P,C2,2*%
%TO.N,GND*%
X240800000Y-103700000D03*
%TD*%
D12*
%TO.P,TP8,1,1*%
%TO.N,GND*%
X265500000Y-48600000D03*
%TD*%
D10*
%TO.P,R37,1*%
%TO.N,Net-(C17-Pad2)*%
X275310000Y-99000000D03*
D11*
%TO.P,R37,2*%
%TO.N,Net-(Q5-E)*%
X267690000Y-99000000D03*
%TD*%
D10*
%TO.P,R24,1*%
%TO.N,Net-(C16-Pad2)*%
X248690000Y-95500000D03*
D11*
%TO.P,R24,2*%
%TO.N,Net-(Q3-E)*%
X256310000Y-95500000D03*
%TD*%
D12*
%TO.P,TP7,1,1*%
%TO.N,GND*%
X265700000Y-66000000D03*
%TD*%
%TO.P,TP10,1,1*%
%TO.N,Net-(R13-Pad1)*%
X250700000Y-66200000D03*
%TD*%
D15*
%TO.P,Q4,1,E*%
%TO.N,Net-(Q4-E)*%
X259500000Y-88000000D03*
D16*
%TO.P,Q4,2,C*%
%TO.N,+12V*%
X262040000Y-88000000D03*
%TO.P,Q4,3,B*%
%TO.N,Net-(D13-A)*%
X264580000Y-88000000D03*
%TD*%
D10*
%TO.P,R25,1*%
%TO.N,Net-(Q2-E)*%
X250690000Y-84000000D03*
D11*
%TO.P,R25,2*%
%TO.N,Net-(C16-Pad2)*%
X258310000Y-84000000D03*
%TD*%
D12*
%TO.P,TP9,1,1*%
%TO.N,Net-(R12-Pad1)*%
X251000000Y-49800000D03*
%TD*%
%TO.P,TP4,1,1*%
%TO.N,Net-(D13-K)*%
X251000000Y-80000000D03*
%TD*%
D17*
%TO.P,C3,1*%
%TO.N,GND*%
X238300000Y-110800000D03*
D10*
%TO.P,C3,2*%
%TO.N,-12V*%
X240800000Y-110800000D03*
%TD*%
D18*
%TO.P,R44,*%
%TO.N,*%
X239000000Y-38500000D03*
X248600000Y-38500000D03*
D15*
%TO.P,R44,1,1*%
%TO.N,GND*%
X246300000Y-46000000D03*
D19*
%TO.P,R44,2,2*%
%TO.N,Net-(C15-Pad1)*%
X243800000Y-46000000D03*
%TO.P,R44,3,3*%
%TO.N,Net-(D3-K)*%
X241300000Y-46000000D03*
%TD*%
D18*
%TO.P,R6,*%
%TO.N,*%
X239000000Y-71900000D03*
X248600000Y-71900000D03*
D15*
%TO.P,R6,1,1*%
%TO.N,GND*%
X246300000Y-79400000D03*
D19*
%TO.P,R6,2,2*%
%TO.N,Net-(C14-Pad1)*%
X243800000Y-79400000D03*
%TO.P,R6,3,3*%
%TO.N,Net-(D7-K)*%
X241300000Y-79400000D03*
%TD*%
D20*
%TO.P,J2,S*%
%TO.N,GND*%
X271300000Y-46380000D03*
D21*
%TO.P,J2,T*%
%TO.N,Net-(J2-PadT)*%
X271300000Y-34980000D03*
%TO.P,J2,TN*%
%TO.N,GND*%
X271300000Y-43280000D03*
%TD*%
D22*
%TO.P,J6,R*%
%TO.N,Net-(J6-PadR)*%
X249650000Y-105500000D03*
D23*
%TO.P,J6,S*%
%TO.N,GND*%
X247500000Y-103700000D03*
D24*
%TO.P,J6,T*%
%TO.N,Net-(J6-PadT)*%
X245350000Y-105500000D03*
%TD*%
D18*
%TO.P,R5,*%
%TO.N,*%
X239000000Y-55200000D03*
X248600000Y-55200000D03*
D15*
%TO.P,R5,1,1*%
%TO.N,GND*%
X246300000Y-62700000D03*
D19*
%TO.P,R5,2,2*%
%TO.N,Net-(C1-Pad1)*%
X243800000Y-62700000D03*
%TO.P,R5,3,3*%
%TO.N,Net-(D5-K)*%
X241300000Y-62700000D03*
%TD*%
D18*
%TO.P,R41,*%
%TO.N,*%
X239000000Y-21800000D03*
X248600000Y-21800000D03*
D15*
%TO.P,R41,1,1*%
%TO.N,GND*%
X246300000Y-29300000D03*
D19*
%TO.P,R41,2,2*%
%TO.N,Net-(C23-Pad1)*%
X243800000Y-29300000D03*
%TO.P,R41,3,3*%
%TO.N,Net-(D1-K)*%
X241300000Y-29300000D03*
%TD*%
D18*
%TO.P,R52,*%
%TO.N,*%
X253455000Y-55200000D03*
X263055000Y-55200000D03*
D15*
%TO.P,R52,1,1*%
%TO.N,Net-(R15-Pad1)*%
X260755000Y-62700000D03*
D19*
%TO.P,R52,2,2*%
%TO.N,GND*%
X258255000Y-62700000D03*
%TO.P,R52,3,3*%
%TO.N,Net-(R14-Pad1)*%
X255755000Y-62700000D03*
%TD*%
D22*
%TO.P,J5,R*%
%TO.N,Net-(J5-PadR)*%
X268800000Y-105500000D03*
D23*
%TO.P,J5,S*%
%TO.N,GND*%
X266650000Y-103700000D03*
D24*
%TO.P,J5,T*%
%TO.N,Net-(J5-PadT)*%
X264500000Y-105500000D03*
%TD*%
D18*
%TO.P,R49,*%
%TO.N,*%
X253455000Y-38500000D03*
X263055000Y-38500000D03*
D15*
%TO.P,R49,1,1*%
%TO.N,Net-(R48-Pad1)*%
X260755000Y-46000000D03*
D19*
%TO.P,R49,2,2*%
%TO.N,GND*%
X258255000Y-46000000D03*
%TO.P,R49,3,3*%
%TO.N,Net-(R47-Pad1)*%
X255755000Y-46000000D03*
%TD*%
D20*
%TO.P,J3,S*%
%TO.N,GND*%
X271300000Y-63080000D03*
D21*
%TO.P,J3,T*%
%TO.N,Net-(J3-PadT)*%
X271300000Y-51680000D03*
%TO.P,J3,TN*%
%TO.N,GND*%
X271300000Y-59980000D03*
%TD*%
D20*
%TO.P,J1,S*%
%TO.N,GND*%
X271300000Y-29680000D03*
D21*
%TO.P,J1,T*%
%TO.N,Net-(J1-PadT)*%
X271300000Y-18280000D03*
%TO.P,J1,TN*%
%TO.N,GND*%
X271300000Y-26580000D03*
%TD*%
D18*
%TO.P,R53,*%
%TO.N,*%
X253455000Y-71900000D03*
X263055000Y-71900000D03*
D15*
%TO.P,R53,1,1*%
%TO.N,Net-(R17-Pad1)*%
X260755000Y-79400000D03*
D19*
%TO.P,R53,2,2*%
%TO.N,GND*%
X258255000Y-79400000D03*
%TO.P,R53,3,3*%
%TO.N,Net-(R16-Pad1)*%
X255755000Y-79400000D03*
%TD*%
D18*
%TO.P,R23,*%
%TO.N,*%
X253455000Y-21800000D03*
X263055000Y-21800000D03*
D15*
%TO.P,R23,1,1*%
%TO.N,Net-(R23-Pad1)*%
X260755000Y-29300000D03*
D19*
%TO.P,R23,2,2*%
%TO.N,GND*%
X258255000Y-29300000D03*
%TO.P,R23,3,3*%
%TO.N,Net-(R21-Pad1)*%
X255755000Y-29300000D03*
%TD*%
D20*
%TO.P,J4,S*%
%TO.N,GND*%
X271300000Y-79780000D03*
D21*
%TO.P,J4,T*%
%TO.N,Net-(J4-PadT)*%
X271300000Y-68380000D03*
%TO.P,J4,TN*%
%TO.N,GND*%
X271300000Y-76680000D03*
%TD*%
D25*
%TO.N,+12V*%
X253500000Y-107500000D03*
X273500000Y-24000000D03*
X274500000Y-40500000D03*
X273500000Y-75000000D03*
X261500000Y-76000000D03*
X261500000Y-53000000D03*
X274500000Y-57000000D03*
X256500000Y-32000000D03*
X255000000Y-15200000D03*
X267500000Y-82500000D03*
%TO.N,GND*%
X258500000Y-22000000D03*
X257158206Y-65499500D03*
X257500000Y-71000000D03*
X259000000Y-32450500D03*
X254000000Y-74500000D03*
X258000000Y-77000000D03*
X243500000Y-102000000D03*
X260500000Y-20500000D03*
X257000000Y-26950500D03*
X262500000Y-32450500D03*
X253500000Y-100924500D03*
X254000000Y-76500000D03*
X258500000Y-49500000D03*
X257675000Y-16249500D03*
X259500000Y-100500000D03*
%TO.N,-12V*%
X255500000Y-53500000D03*
X259500000Y-43500000D03*
X274500000Y-82000000D03*
X255500000Y-82500000D03*
X255000000Y-66500000D03*
X244011727Y-110457096D03*
X261600000Y-26000000D03*
%TO.N,Net-(C15-Pad1)*%
X244500000Y-43850500D03*
%TO.N,Net-(C15-Pad2)*%
X245500000Y-40500000D03*
X246500000Y-32000000D03*
%TO.N,Net-(U3A--)*%
X243500000Y-25500000D03*
X261998635Y-74501796D03*
X246500000Y-65000000D03*
X241000000Y-43500000D03*
X241500000Y-55500000D03*
X261706755Y-69206755D03*
X248000000Y-58000000D03*
%TO.N,Net-(C16-Pad2)*%
X261950500Y-100500000D03*
%TO.N,Net-(C17-Pad2)*%
X255500000Y-101000000D03*
%TO.N,Net-(D3-K)*%
X244000000Y-48149500D03*
%TO.N,Net-(D7-K)*%
X267000000Y-85500000D03*
X252000000Y-82500000D03*
X273000000Y-84000000D03*
X263000000Y-85500000D03*
%TO.N,Net-(D10-A)*%
X257000000Y-59000000D03*
X262500000Y-64849500D03*
X260500000Y-59000000D03*
X262724500Y-60500000D03*
X261000000Y-68500000D03*
%TO.N,Net-(D9-A)*%
X254000000Y-78500000D03*
X262000000Y-57500000D03*
%TO.N,Net-(D10-K)*%
X253155500Y-58114941D03*
X248734375Y-89734375D03*
%TO.N,Net-(D13-K)*%
X259500000Y-70500000D03*
X258177496Y-74650500D03*
%TO.N,Net-(D13-A)*%
X266000000Y-76000000D03*
X267512299Y-74987701D03*
%TO.N,Net-(D14-K)*%
X274500000Y-85500000D03*
%TO.N,Net-(J6-PadR)*%
X251000000Y-100724500D03*
%TO.N,Net-(J6-PadT)*%
X257000000Y-100000000D03*
%TO.N,Net-(U2A--)*%
X244500000Y-59500000D03*
X244500000Y-52000000D03*
X251000000Y-43717359D03*
%TO.N,Net-(U2B--)*%
X258500000Y-36275500D03*
X254537074Y-35940712D03*
X247000000Y-35830500D03*
X246000000Y-72500000D03*
%TO.N,Net-(R12-Pad1)*%
X252000000Y-42500000D03*
%TO.N,Net-(R13-Pad1)*%
X241421495Y-65578505D03*
X251000000Y-58500000D03*
X255254500Y-60000000D03*
X257000000Y-36275500D03*
%TO.N,Net-(R14-Pad1)*%
X245000000Y-61000000D03*
X245224500Y-57363000D03*
%TO.N,Net-(R15-Pad1)*%
X247000000Y-52500000D03*
X245224500Y-52975500D03*
%TO.N,Net-(R16-Pad1)*%
X248500000Y-65475500D03*
X249500000Y-61000000D03*
X256262299Y-70762299D03*
%TO.N,Net-(R17-Pad1)*%
X249500000Y-77000000D03*
X246706755Y-73206755D03*
%TO.N,Net-(R21-Pad1)*%
X247000000Y-26500000D03*
%TO.N,Net-(R23-Pad1)*%
X248000000Y-16500000D03*
%TO.N,Net-(R46-Pad1)*%
X243500000Y-40500000D03*
X245000000Y-31000000D03*
%TO.N,Net-(R47-Pad1)*%
X241500000Y-36500000D03*
X241000000Y-39500000D03*
%TD*%
D26*
%TO.N,+12V*%
X242500000Y-107900000D02*
X238300000Y-103700000D01*
X255000000Y-15200000D02*
X260200000Y-15200000D01*
X260200000Y-15200000D02*
X265065000Y-20065000D01*
X267500000Y-82500000D02*
X269000000Y-82500000D01*
X252482792Y-89975000D02*
X249977968Y-89975000D01*
X273500000Y-80760000D02*
X273500000Y-75000000D01*
X263457569Y-52500000D02*
X262000000Y-52500000D01*
X251210000Y-109790000D02*
X253500000Y-107500000D01*
X272042431Y-54542431D02*
X274500000Y-57000000D01*
X262000000Y-52500000D02*
X261500000Y-53000000D01*
X262040000Y-88000000D02*
X267500000Y-82540000D01*
X265065000Y-68052006D02*
X263800000Y-66787006D01*
X261500000Y-76000000D02*
X264487006Y-76000000D01*
X258000000Y-33500000D02*
X256500000Y-32000000D01*
X245400000Y-107900000D02*
X242500000Y-107900000D01*
X253160000Y-88025000D02*
X253160000Y-89297792D01*
X251210000Y-112000000D02*
X249500000Y-112000000D01*
X262959310Y-51540690D02*
X262959310Y-41698259D01*
X245000000Y-94952968D02*
X245000000Y-97000000D01*
X263800000Y-66787006D02*
X263800000Y-65212994D01*
X273500000Y-22500000D02*
X273500000Y-24000000D01*
X253160000Y-89297792D02*
X252482792Y-89975000D01*
X272146408Y-38146408D02*
X274500000Y-40500000D01*
X265065000Y-22892569D02*
X266511161Y-21446408D01*
X265500000Y-63512994D02*
X265500000Y-54542431D01*
X265065000Y-22892569D02*
X264000000Y-23957569D01*
X269000000Y-82500000D02*
X269000000Y-80512994D01*
X272446408Y-21446408D02*
X273500000Y-22500000D01*
X271760000Y-82500000D02*
X273500000Y-80760000D01*
X265500000Y-36000000D02*
X263000000Y-33500000D01*
X269000000Y-82500000D02*
X271760000Y-82500000D01*
X249977968Y-89975000D02*
X245000000Y-94952968D01*
X265500000Y-39157569D02*
X266511161Y-38146408D01*
X265500000Y-54542431D02*
X272042431Y-54542431D01*
X269000000Y-80512994D02*
X264487006Y-76000000D01*
X264000000Y-23957569D02*
X264000000Y-32500000D01*
X264487006Y-76000000D02*
X265065000Y-75422006D01*
X254735000Y-86450000D02*
X261950000Y-86450000D01*
X262959310Y-41698259D02*
X265500000Y-39157569D01*
X262000000Y-52500000D02*
X262959310Y-51540690D01*
X265065000Y-20065000D02*
X265065000Y-22892569D01*
X253160000Y-88025000D02*
X254735000Y-86450000D01*
X265065000Y-75422006D02*
X265065000Y-68052006D01*
X245000000Y-97000000D02*
X238300000Y-103700000D01*
X263800000Y-65212994D02*
X265500000Y-63512994D01*
X249500000Y-112000000D02*
X245400000Y-107900000D01*
X261950000Y-86450000D02*
X262040000Y-86540000D01*
X267500000Y-82540000D02*
X267500000Y-82500000D01*
X251210000Y-112000000D02*
X251210000Y-109790000D01*
X265500000Y-39157569D02*
X265500000Y-36000000D01*
X262040000Y-86540000D02*
X262040000Y-88000000D01*
X265500000Y-54542431D02*
X263457569Y-52500000D01*
X263000000Y-33500000D02*
X258000000Y-33500000D01*
X266511161Y-38146408D02*
X272146408Y-38146408D01*
X264000000Y-32500000D02*
X263000000Y-33500000D01*
X266511161Y-21446408D02*
X272446408Y-21446408D01*
%TO.N,GND*%
X243500000Y-102000000D02*
X242500000Y-102000000D01*
X257158206Y-63796794D02*
X258255000Y-62700000D01*
X246300000Y-48715075D02*
X243000000Y-52015075D01*
X248315075Y-29300000D02*
X245950000Y-26934925D01*
X260550000Y-101550000D02*
X264500000Y-101550000D01*
X253500000Y-105142984D02*
X250642984Y-108000000D01*
X258500000Y-49500000D02*
X258500000Y-46245000D01*
X259500000Y-100500000D02*
X260550000Y-101550000D01*
X252812968Y-25450000D02*
X255112968Y-27750000D01*
X258500000Y-22000000D02*
X257675000Y-21175000D01*
X258255000Y-29300000D02*
X258255000Y-28205500D01*
X262500000Y-32450500D02*
X259000000Y-32450500D01*
X239750000Y-80042032D02*
X240657968Y-80950000D01*
X239750000Y-61750000D02*
X239750000Y-63342032D01*
X246300000Y-46000000D02*
X246300000Y-48715075D01*
X260000000Y-20500000D02*
X258500000Y-22000000D01*
X255112968Y-27750000D02*
X256705000Y-27750000D01*
X250642984Y-108000000D02*
X249480760Y-108000000D01*
X239750000Y-78757968D02*
X239750000Y-80042032D01*
X239832569Y-65682506D02*
X241942032Y-67791969D01*
X241942032Y-76565936D02*
X239750000Y-78757968D01*
X243000000Y-52015075D02*
X243000000Y-58500000D01*
X254000000Y-74500000D02*
X254000000Y-76500000D01*
X244471495Y-64528505D02*
X240986570Y-64528505D01*
X241942032Y-67791969D02*
X241942032Y-76565936D01*
X246300000Y-62700000D02*
X244471495Y-64528505D01*
X253500000Y-100924500D02*
X253500000Y-105142984D01*
X245950000Y-26934925D02*
X245950000Y-26065075D01*
X264500000Y-101550000D02*
X266650000Y-103700000D01*
X246300000Y-29300000D02*
X248315075Y-29300000D01*
X240657968Y-64250000D02*
X244750000Y-64250000D01*
X258255000Y-28205500D02*
X257000000Y-26950500D01*
X256705000Y-27750000D02*
X258255000Y-29300000D01*
X240986570Y-64528505D02*
X239832569Y-65682506D01*
X257158206Y-65499500D02*
X257158206Y-63796794D01*
X244750000Y-64250000D02*
X246300000Y-62700000D01*
X243000000Y-58500000D02*
X239750000Y-61750000D01*
X257675000Y-21175000D02*
X257675000Y-16249500D01*
X246565075Y-25450000D02*
X252812968Y-25450000D01*
X239750000Y-63342032D02*
X240657968Y-64250000D01*
X258000000Y-77000000D02*
X258000000Y-79145000D01*
X260500000Y-20500000D02*
X260000000Y-20500000D01*
X242500000Y-102000000D02*
X240800000Y-103700000D01*
X249480760Y-108000000D02*
X247500000Y-106019240D01*
X240657968Y-80950000D02*
X244750000Y-80950000D01*
X247500000Y-106019240D02*
X247500000Y-103700000D01*
X244750000Y-80950000D02*
X246300000Y-79400000D01*
X257127496Y-71372504D02*
X257500000Y-71000000D01*
X271300000Y-26580000D02*
X271300000Y-29680000D01*
X258000000Y-77000000D02*
X257127496Y-76127496D01*
X257127496Y-76127496D02*
X257127496Y-71372504D01*
X245950000Y-26065075D02*
X246565075Y-25450000D01*
%TO.N,-12V*%
X262762208Y-89550000D02*
X268950000Y-89550000D01*
X255500000Y-81812994D02*
X251445000Y-77757994D01*
X255500000Y-56257569D02*
X255500000Y-53500000D01*
X244097706Y-110457096D02*
X244011727Y-110457096D01*
X246500000Y-112859390D02*
X244097706Y-110457096D01*
X246500000Y-113450000D02*
X242950000Y-113450000D01*
X262350000Y-30500000D02*
X262350000Y-26750000D01*
X261200000Y-112000000D02*
X259750000Y-113450000D01*
X262000000Y-30850000D02*
X262350000Y-30500000D01*
X242950000Y-113450000D02*
X240800000Y-111300000D01*
X251445000Y-37407431D02*
X255000000Y-33852431D01*
X251445000Y-39592569D02*
X251445000Y-37407431D01*
X274500000Y-84000000D02*
X274500000Y-82000000D01*
X255500000Y-53500000D02*
X254205000Y-52205000D01*
X254205000Y-57552569D02*
X255500000Y-56257569D01*
X255500000Y-82500000D02*
X255500000Y-81812994D01*
X256000000Y-43500000D02*
X255352431Y-43500000D01*
X262350000Y-26750000D02*
X261600000Y-26000000D01*
X251445000Y-70055000D02*
X255000000Y-66500000D01*
X254205000Y-65705000D02*
X254205000Y-57552569D01*
X254205000Y-52205000D02*
X254205000Y-45295000D01*
X259750000Y-113450000D02*
X246500000Y-113450000D01*
X262060000Y-91525000D02*
X262060000Y-90252208D01*
X256165075Y-30850000D02*
X262000000Y-30850000D01*
X254205000Y-45295000D02*
X256000000Y-43500000D01*
X246500000Y-113450000D02*
X246500000Y-112859390D01*
X260510000Y-89975000D02*
X262060000Y-91525000D01*
X256000000Y-43500000D02*
X259500000Y-43500000D01*
X253160000Y-90965000D02*
X254150000Y-89975000D01*
X254150000Y-89975000D02*
X260510000Y-89975000D01*
X255000000Y-32015075D02*
X256165075Y-30850000D01*
X262060000Y-90252208D02*
X262762208Y-89550000D01*
X255000000Y-66500000D02*
X254205000Y-65705000D01*
X251445000Y-77757994D02*
X251445000Y-70055000D01*
X255352431Y-43500000D02*
X251445000Y-39592569D01*
X255000000Y-33852431D02*
X255000000Y-32015075D01*
X268950000Y-89550000D02*
X274500000Y-84000000D01*
D27*
%TO.N,Net-(C15-Pad1)*%
X243800000Y-46000000D02*
X243800000Y-44550500D01*
X243800000Y-44550500D02*
X244500000Y-43850500D01*
%TO.N,Net-(C15-Pad2)*%
X245500000Y-33000000D02*
X246500000Y-32000000D01*
X245500000Y-40500000D02*
X245500000Y-33000000D01*
%TO.N,Net-(U3A--)*%
X242575000Y-41925000D02*
X241000000Y-43500000D01*
X261300305Y-69613205D02*
X261300305Y-73803466D01*
X246500000Y-65000000D02*
X246850000Y-65000000D01*
X248500000Y-58500000D02*
X248000000Y-58000000D01*
X248500000Y-63350000D02*
X248500000Y-58500000D01*
X261300305Y-73803466D02*
X261998635Y-74501796D01*
X261706755Y-69206755D02*
X261300305Y-69613205D01*
X243500000Y-25500000D02*
X242575000Y-26425000D01*
X240075000Y-46507412D02*
X240075000Y-44425000D01*
X241500000Y-47932412D02*
X240075000Y-46507412D01*
X242575000Y-26425000D02*
X242575000Y-41925000D01*
X246850000Y-65000000D02*
X248500000Y-63350000D01*
X241500000Y-55500000D02*
X241500000Y-47932412D01*
X240075000Y-44425000D02*
X241000000Y-43500000D01*
%TO.N,Net-(C16-Pad2)*%
X261950500Y-100500000D02*
X270810000Y-100500000D01*
X248690000Y-95500000D02*
X250690000Y-97500000D01*
X258950500Y-97500000D02*
X261950500Y-100500000D01*
X250690000Y-97500000D02*
X258950500Y-97500000D01*
X270810000Y-100500000D02*
X275000000Y-104690000D01*
%TO.N,Net-(C17-Pad2)*%
X269280991Y-112000000D02*
X276125000Y-105155991D01*
X263690000Y-112000000D02*
X263690000Y-109190000D01*
X263690000Y-109190000D02*
X255500000Y-101000000D01*
X263690000Y-112000000D02*
X269280991Y-112000000D01*
X276125000Y-99815000D02*
X275310000Y-99000000D01*
X276125000Y-105155991D02*
X276125000Y-99815000D01*
%TO.N,Net-(D3-K)*%
X242525000Y-47225000D02*
X243075500Y-47225000D01*
X243075500Y-47225000D02*
X244000000Y-48149500D01*
X241300000Y-46000000D02*
X242525000Y-47225000D01*
%TO.N,Net-(D7-K)*%
X267492109Y-85007891D02*
X270000000Y-85007891D01*
X252000000Y-82500000D02*
X254980388Y-85480388D01*
X267000000Y-85500000D02*
X267492109Y-85007891D01*
X273000000Y-84000000D02*
X271007891Y-84000000D01*
X254980388Y-85480388D02*
X262980388Y-85480388D01*
X262980388Y-85480388D02*
X263000000Y-85500000D01*
X271007891Y-84000000D02*
X270000000Y-85007891D01*
%TO.N,Net-(D10-A)*%
X262500000Y-64849500D02*
X262500000Y-60724500D01*
X263632234Y-79600000D02*
X260575000Y-76542766D01*
X260575000Y-76542766D02*
X260575000Y-68925000D01*
X265400000Y-79600000D02*
X263632234Y-79600000D01*
X257000000Y-59000000D02*
X260500000Y-59000000D01*
X262500000Y-60724500D02*
X262724500Y-60500000D01*
X260575000Y-68925000D02*
X261000000Y-68500000D01*
%TO.N,Net-(D9-A)*%
X254000000Y-78500000D02*
X255140000Y-77360000D01*
X255140000Y-77360000D02*
X255140000Y-70860000D01*
X262000000Y-64000000D02*
X262000000Y-57500000D01*
X255140000Y-70860000D02*
X262000000Y-64000000D01*
%TO.N,Net-(D10-K)*%
X250500000Y-69903984D02*
X250500000Y-78272613D01*
X248734375Y-80038238D02*
X248734375Y-89734375D01*
X253155500Y-58114941D02*
X253155500Y-67248484D01*
X253155500Y-67248484D02*
X250500000Y-69903984D01*
X250500000Y-78272613D02*
X248734375Y-80038238D01*
%TO.N,Net-(D13-K)*%
X258177496Y-74650500D02*
X258177496Y-74309254D01*
X259500000Y-72986750D02*
X259500000Y-70500000D01*
X258177496Y-74309254D02*
X259500000Y-72986750D01*
%TO.N,Net-(D13-A)*%
X267512299Y-74987701D02*
X267012299Y-74987701D01*
X267012299Y-74987701D02*
X266000000Y-76000000D01*
%TO.N,Net-(D14-K)*%
X267050000Y-92950000D02*
X260945000Y-92950000D01*
X274500000Y-85500000D02*
X267050000Y-92950000D01*
X260945000Y-92950000D02*
X259520000Y-91525000D01*
%TO.N,Net-(J6-PadR)*%
X251000000Y-100724500D02*
X251000000Y-104150000D01*
X251000000Y-104150000D02*
X249650000Y-105500000D01*
%TO.N,Net-(J6-PadT)*%
X257000000Y-100000000D02*
X247894044Y-100000000D01*
X247894044Y-100000000D02*
X245000000Y-102894044D01*
X245000000Y-102894044D02*
X245000000Y-105150000D01*
%TO.N,Net-(U2A--)*%
X251000000Y-45500000D02*
X244500000Y-52000000D01*
X244500000Y-59500000D02*
X244500000Y-52000000D01*
X251000000Y-43717359D02*
X251000000Y-45500000D01*
%TO.N,Net-(U2B--)*%
X252725000Y-42199695D02*
X252725000Y-50302387D01*
X250047613Y-67775000D02*
X246000000Y-71822613D01*
X247000000Y-35830500D02*
X246915000Y-35915500D01*
X254927286Y-35550500D02*
X254537074Y-35940712D01*
X252275000Y-66852387D02*
X251352387Y-67775000D01*
X251725000Y-64997613D02*
X252275000Y-65547613D01*
X252725000Y-50302387D02*
X251725000Y-51302387D01*
X251725000Y-51302387D02*
X251725000Y-64997613D01*
X252275000Y-65547613D02*
X252275000Y-66852387D01*
X257775000Y-35550500D02*
X254927286Y-35550500D01*
X252300305Y-41775000D02*
X252725000Y-42199695D01*
X246915000Y-44575000D02*
X249715000Y-41775000D01*
X249715000Y-41775000D02*
X252300305Y-41775000D01*
X246000000Y-71822613D02*
X246000000Y-72500000D01*
X246915000Y-35915500D02*
X246915000Y-44575000D01*
X251352387Y-67775000D02*
X250047613Y-67775000D01*
X258500000Y-36275500D02*
X257775000Y-35550500D01*
%TO.N,Net-(R12-Pad1)*%
X252000000Y-42500000D02*
X252000000Y-48800000D01*
X252000000Y-48800000D02*
X251000000Y-49800000D01*
%TO.N,Net-(R13-Pad1)*%
X251000000Y-58500000D02*
X250700000Y-58800000D01*
X250700000Y-58800000D02*
X250700000Y-66200000D01*
X255254500Y-57745500D02*
X255254500Y-60000000D01*
X242042990Y-66200000D02*
X241421495Y-65578505D01*
X250700000Y-66200000D02*
X242042990Y-66200000D01*
X257000000Y-36275500D02*
X261980000Y-41255500D01*
X261980000Y-51020000D02*
X255254500Y-57745500D01*
X261980000Y-41255500D02*
X261980000Y-51020000D01*
%TO.N,Net-(R14-Pad1)*%
X245225000Y-57363500D02*
X245224500Y-57363000D01*
X245225000Y-60775000D02*
X245225000Y-57363500D01*
X245000000Y-61000000D02*
X245225000Y-60775000D01*
%TO.N,Net-(R15-Pad1)*%
X245700000Y-52500000D02*
X245224500Y-52975500D01*
X247000000Y-52500000D02*
X245700000Y-52500000D01*
%TO.N,Net-(R16-Pad1)*%
X255755000Y-79400000D02*
X255755000Y-71269598D01*
X249500000Y-61000000D02*
X249500000Y-64475500D01*
X249500000Y-64475500D02*
X248500000Y-65475500D01*
X255755000Y-71269598D02*
X256262299Y-70762299D01*
%TO.N,Net-(R17-Pad1)*%
X246706755Y-74206755D02*
X246706755Y-73206755D01*
X249500000Y-77000000D02*
X246706755Y-74206755D01*
%TO.N,Net-(R21-Pad1)*%
X255755000Y-29300000D02*
X249800000Y-29300000D01*
X249800000Y-29300000D02*
X247000000Y-26500000D01*
%TO.N,Net-(R23-Pad1)*%
X251770000Y-22770001D02*
X254999999Y-26000000D01*
X248000000Y-16500000D02*
X248000000Y-18557050D01*
X248000000Y-18557050D02*
X251770000Y-22327050D01*
X251770000Y-22327050D02*
X251770000Y-22770001D01*
X257455000Y-26000000D02*
X260755000Y-29300000D01*
X254999999Y-26000000D02*
X257455000Y-26000000D01*
%TO.N,Net-(R46-Pad1)*%
X243500000Y-32500000D02*
X243500000Y-40500000D01*
X245000000Y-31000000D02*
X243500000Y-32500000D01*
X251100000Y-33500000D02*
X248600000Y-31000000D01*
X248600000Y-31000000D02*
X245000000Y-31000000D01*
%TO.N,Net-(R47-Pad1)*%
X241500000Y-39000000D02*
X241000000Y-39500000D01*
X241500000Y-36500000D02*
X241500000Y-39000000D01*
%TD*%
%TA.AperFunction,Conductor*%
%TO.N,GND*%
G36*
X238550000Y-112100000D02*
G01*
X239144518Y-112100000D01*
X239151132Y-112099645D01*
X239207371Y-112093599D01*
X239342089Y-112043352D01*
X239457188Y-111957188D01*
X239543352Y-111842089D01*
X239599041Y-111692782D01*
X239602154Y-111693943D01*
X239619274Y-111652596D01*
X239676660Y-111612739D01*
X239746485Y-111610234D01*
X239803519Y-111642706D01*
X239960859Y-111800046D01*
X240147264Y-111930567D01*
X240147265Y-111930567D01*
X240147266Y-111930568D01*
X240353504Y-112026739D01*
X240474223Y-112059084D01*
X240529811Y-112091178D01*
X242026452Y-113587819D01*
X242059937Y-113649142D01*
X242054953Y-113718834D01*
X242013081Y-113774767D01*
X241947617Y-113799184D01*
X241938771Y-113799500D01*
X237706094Y-113799500D01*
X237693939Y-113798903D01*
X237664750Y-113796028D01*
X237634539Y-113792624D01*
X237546297Y-113782681D01*
X237524203Y-113778124D01*
X237470996Y-113761983D01*
X237466040Y-113760365D01*
X237384308Y-113731767D01*
X237366807Y-113724083D01*
X237312719Y-113695172D01*
X237305200Y-113690807D01*
X237236568Y-113647682D01*
X237223877Y-113638543D01*
X237175102Y-113598515D01*
X237166085Y-113590342D01*
X237109656Y-113533913D01*
X237101483Y-113524896D01*
X237061455Y-113476121D01*
X237052316Y-113463430D01*
X237009191Y-113394798D01*
X237004835Y-113387295D01*
X236975910Y-113333180D01*
X236968234Y-113315698D01*
X236939633Y-113233958D01*
X236938015Y-113229001D01*
X236921876Y-113175799D01*
X236917317Y-113153693D01*
X236903973Y-113035268D01*
X236901089Y-113005982D01*
X236900500Y-112993933D01*
X236900500Y-112501443D01*
X236900500Y-112006056D01*
X236920183Y-111939021D01*
X236972987Y-111893266D01*
X237042146Y-111883322D01*
X237105702Y-111912347D01*
X237123765Y-111931748D01*
X237142809Y-111957188D01*
X237257910Y-112043352D01*
X237392628Y-112093599D01*
X237448867Y-112099645D01*
X237455482Y-112100000D01*
X238050000Y-112100000D01*
X238050000Y-111115686D01*
X238061955Y-111127641D01*
X238174852Y-111185165D01*
X238268519Y-111200000D01*
X238331481Y-111200000D01*
X238425148Y-111185165D01*
X238538045Y-111127641D01*
X238549999Y-111115686D01*
X238550000Y-112100000D01*
G37*
%TD.AperFunction*%
%TA.AperFunction,Conductor*%
G36*
X254079331Y-14820185D02*
G01*
X254125086Y-14872989D01*
X254135030Y-14942147D01*
X254130223Y-14962817D01*
X254114326Y-15011740D01*
X254094540Y-15200000D01*
X254114326Y-15388257D01*
X254172820Y-15568284D01*
X254267466Y-15732216D01*
X254394129Y-15872889D01*
X254547269Y-15984151D01*
X254720197Y-16061144D01*
X254905352Y-16100500D01*
X254905354Y-16100500D01*
X255094648Y-16100500D01*
X255218084Y-16074262D01*
X255279803Y-16061144D01*
X255452730Y-15984151D01*
X255466449Y-15974183D01*
X255532256Y-15950702D01*
X255539337Y-15950500D01*
X259837770Y-15950500D01*
X259904809Y-15970185D01*
X259925451Y-15986819D01*
X263425034Y-19486402D01*
X263458519Y-19547725D01*
X263453535Y-19617417D01*
X263411663Y-19673350D01*
X263346199Y-19697767D01*
X263314831Y-19696021D01*
X263259024Y-19685713D01*
X262986869Y-19675767D01*
X262716162Y-19705553D01*
X262452674Y-19774438D01*
X262202024Y-19880953D01*
X261969556Y-20022826D01*
X261760223Y-20197035D01*
X261578480Y-20399871D01*
X261428210Y-20627005D01*
X261312615Y-20873589D01*
X261234153Y-21134388D01*
X261231078Y-21155285D01*
X261214434Y-21268382D01*
X261194500Y-21403831D01*
X261194499Y-22125738D01*
X261194500Y-22125765D01*
X261194500Y-22128000D01*
X261194664Y-22130249D01*
X261194665Y-22130259D01*
X261209402Y-22331617D01*
X261268616Y-22597438D01*
X261326929Y-22749902D01*
X261365907Y-22851814D01*
X261499196Y-23089310D01*
X261551015Y-23156417D01*
X261665645Y-23304869D01*
X261861704Y-23493894D01*
X262083199Y-23652359D01*
X262325397Y-23776882D01*
X262325403Y-23776885D01*
X262583159Y-23864819D01*
X262583161Y-23864819D01*
X262583163Y-23864820D01*
X262850970Y-23914286D01*
X263130027Y-23924484D01*
X263196303Y-23946603D01*
X263240099Y-24001043D01*
X263249499Y-24048401D01*
X263249499Y-26337668D01*
X263229814Y-26404707D01*
X263177010Y-26450462D01*
X263107852Y-26460406D01*
X263044296Y-26431381D01*
X263021899Y-26405807D01*
X262984026Y-26348224D01*
X262982087Y-26345181D01*
X262942050Y-26280270D01*
X262929750Y-26265172D01*
X262874290Y-26212848D01*
X262871703Y-26210335D01*
X262512771Y-25851403D01*
X262482521Y-25802040D01*
X262427179Y-25631715D01*
X262332533Y-25467783D01*
X262205870Y-25327110D01*
X262052730Y-25215848D01*
X261879802Y-25138855D01*
X261694648Y-25099500D01*
X261694646Y-25099500D01*
X261505354Y-25099500D01*
X261505352Y-25099500D01*
X261320197Y-25138855D01*
X261147269Y-25215848D01*
X260994129Y-25327110D01*
X260867466Y-25467783D01*
X260772820Y-25631715D01*
X260714326Y-25811742D01*
X260694540Y-25999999D01*
X260714326Y-26188257D01*
X260772820Y-26368284D01*
X260867466Y-26532216D01*
X260994129Y-26672889D01*
X261147269Y-26784151D01*
X261320193Y-26861143D01*
X261320196Y-26861143D01*
X261320197Y-26861144D01*
X261385329Y-26874987D01*
X261446811Y-26908179D01*
X261447169Y-26908536D01*
X261563180Y-27024548D01*
X261596665Y-27085870D01*
X261599499Y-27112228D01*
X261599500Y-27775500D01*
X261579816Y-27842539D01*
X261527012Y-27888294D01*
X261475500Y-27899500D01*
X260290453Y-27899500D01*
X260223414Y-27879815D01*
X260202772Y-27863181D01*
X257955802Y-25616211D01*
X257942906Y-25600113D01*
X257891775Y-25552098D01*
X257888978Y-25549387D01*
X257872227Y-25532636D01*
X257869471Y-25529880D01*
X257866290Y-25527412D01*
X257857422Y-25519837D01*
X257825582Y-25489938D01*
X257808024Y-25480285D01*
X257791764Y-25469604D01*
X257775936Y-25457327D01*
X257735851Y-25439980D01*
X257725361Y-25434841D01*
X257687091Y-25413802D01*
X257667691Y-25408821D01*
X257649284Y-25402519D01*
X257630897Y-25394562D01*
X257587758Y-25387729D01*
X257576324Y-25385361D01*
X257534019Y-25374500D01*
X257513984Y-25374500D01*
X257494586Y-25372973D01*
X257487162Y-25371797D01*
X257474805Y-25369840D01*
X257474804Y-25369840D01*
X257441751Y-25372964D01*
X257431325Y-25373950D01*
X257419656Y-25374500D01*
X255310452Y-25374500D01*
X255243413Y-25354815D01*
X255222771Y-25338181D01*
X253935045Y-24050455D01*
X253901560Y-23989132D01*
X253906544Y-23919440D01*
X253948416Y-23863507D01*
X253991359Y-23842807D01*
X254057326Y-23825562D01*
X254307975Y-23719047D01*
X254540444Y-23577173D01*
X254749779Y-23402963D01*
X254931518Y-23200131D01*
X255081788Y-22972998D01*
X255197386Y-22726406D01*
X255275847Y-22465611D01*
X255315500Y-22196171D01*
X255315500Y-21472000D01*
X255300597Y-21268384D01*
X255275403Y-21155285D01*
X255241383Y-21002561D01*
X255241382Y-21002558D01*
X255144093Y-20748186D01*
X255010804Y-20510690D01*
X254903024Y-20371110D01*
X254844354Y-20295130D01*
X254648295Y-20106105D01*
X254426800Y-19947640D01*
X254184602Y-19823117D01*
X254184598Y-19823115D01*
X254184597Y-19823115D01*
X253998686Y-19759691D01*
X253926836Y-19735179D01*
X253659029Y-19685713D01*
X253386869Y-19675767D01*
X253116162Y-19705553D01*
X252852674Y-19774438D01*
X252602024Y-19880953D01*
X252369556Y-20022826D01*
X252160223Y-20197035D01*
X251978480Y-20399871D01*
X251828210Y-20627005D01*
X251712612Y-20873595D01*
X251654078Y-21068157D01*
X251615915Y-21126683D01*
X251552167Y-21155285D01*
X251483077Y-21144883D01*
X251447655Y-21120114D01*
X248661819Y-18334277D01*
X248628334Y-18272954D01*
X248625500Y-18246596D01*
X248625500Y-17699999D01*
X249244591Y-17699999D01*
X249264197Y-17961627D01*
X249322580Y-18217418D01*
X249389417Y-18387714D01*
X249418432Y-18461643D01*
X249439259Y-18497717D01*
X249541561Y-18674910D01*
X249549614Y-18688857D01*
X249713195Y-18893981D01*
X249713197Y-18893983D01*
X249713198Y-18893984D01*
X249905514Y-19072428D01*
X249905520Y-19072432D01*
X249905521Y-19072433D01*
X250122296Y-19220228D01*
X250358677Y-19334063D01*
X250609385Y-19411396D01*
X250868818Y-19450500D01*
X251131182Y-19450500D01*
X251390615Y-19411396D01*
X251641323Y-19334063D01*
X251877704Y-19220228D01*
X252094479Y-19072433D01*
X252094482Y-19072429D01*
X252094485Y-19072428D01*
X252210767Y-18964534D01*
X252286805Y-18893981D01*
X252450386Y-18688857D01*
X252581568Y-18461643D01*
X252677420Y-18217416D01*
X252735802Y-17961630D01*
X252755408Y-17700000D01*
X252735802Y-17438370D01*
X252677420Y-17182584D01*
X252675898Y-17178707D01*
X252581568Y-16938358D01*
X252581568Y-16938357D01*
X252450386Y-16711143D01*
X252286805Y-16506019D01*
X252277528Y-16497411D01*
X252094485Y-16327571D01*
X252071268Y-16311742D01*
X251877704Y-16179772D01*
X251641323Y-16065937D01*
X251390615Y-15988604D01*
X251131182Y-15949500D01*
X250868818Y-15949500D01*
X250609385Y-15988604D01*
X250358677Y-16065937D01*
X250122296Y-16179772D01*
X250092627Y-16200000D01*
X249905514Y-16327571D01*
X249713198Y-16506015D01*
X249549613Y-16711143D01*
X249418431Y-16938358D01*
X249322580Y-17182581D01*
X249264197Y-17438372D01*
X249244591Y-17699999D01*
X248625500Y-17699999D01*
X248625500Y-17198687D01*
X248645185Y-17131648D01*
X248657350Y-17115714D01*
X248706118Y-17061552D01*
X248732533Y-17032216D01*
X248745610Y-17009567D01*
X248827179Y-16868284D01*
X248853747Y-16786516D01*
X248885674Y-16688256D01*
X248905460Y-16500000D01*
X248885674Y-16311744D01*
X248849366Y-16200000D01*
X248827179Y-16131715D01*
X248732533Y-15967783D01*
X248605870Y-15827110D01*
X248452730Y-15715848D01*
X248279802Y-15638855D01*
X248094648Y-15599500D01*
X248094646Y-15599500D01*
X247905354Y-15599500D01*
X247905352Y-15599500D01*
X247720197Y-15638855D01*
X247547269Y-15715848D01*
X247394129Y-15827110D01*
X247267466Y-15967783D01*
X247172820Y-16131715D01*
X247114326Y-16311742D01*
X247094540Y-16500000D01*
X247114326Y-16688257D01*
X247172820Y-16868284D01*
X247267466Y-17032216D01*
X247342649Y-17115715D01*
X247372879Y-17178707D01*
X247374499Y-17198687D01*
X247374500Y-18474306D01*
X247372235Y-18494816D01*
X247374439Y-18564922D01*
X247374500Y-18568817D01*
X247374500Y-18596400D01*
X247374988Y-18600269D01*
X247374989Y-18600275D01*
X247375004Y-18600393D01*
X247375918Y-18612017D01*
X247377290Y-18655676D01*
X247382879Y-18674910D01*
X247386825Y-18693966D01*
X247389335Y-18713842D01*
X247405414Y-18754454D01*
X247409197Y-18765501D01*
X247421382Y-18807441D01*
X247431580Y-18824685D01*
X247440136Y-18842150D01*
X247447514Y-18860782D01*
X247447515Y-18860783D01*
X247473180Y-18896109D01*
X247479593Y-18905872D01*
X247501826Y-18943466D01*
X247501829Y-18943469D01*
X247501830Y-18943470D01*
X247515995Y-18957635D01*
X247528627Y-18972425D01*
X247540406Y-18988637D01*
X247574058Y-19016476D01*
X247582699Y-19024339D01*
X248110401Y-19552042D01*
X248143886Y-19613365D01*
X248138902Y-19683057D01*
X248097030Y-19738990D01*
X248054085Y-19759690D01*
X248001327Y-19773483D01*
X247997674Y-19774438D01*
X247747024Y-19880953D01*
X247514556Y-20022826D01*
X247305223Y-20197035D01*
X247123480Y-20399871D01*
X246973210Y-20627005D01*
X246857615Y-20873589D01*
X246779153Y-21134388D01*
X246776078Y-21155285D01*
X246739500Y-21403829D01*
X246739500Y-22128000D01*
X246739664Y-22130249D01*
X246739665Y-22130259D01*
X246754402Y-22331617D01*
X246813616Y-22597438D01*
X246871929Y-22749902D01*
X246910907Y-22851814D01*
X247044196Y-23089310D01*
X247096015Y-23156417D01*
X247210645Y-23304869D01*
X247406704Y-23493894D01*
X247628199Y-23652359D01*
X247870397Y-23776882D01*
X247870403Y-23776885D01*
X248128159Y-23864819D01*
X248128161Y-23864819D01*
X248128163Y-23864820D01*
X248395970Y-23914286D01*
X248668130Y-23924232D01*
X248668130Y-23924231D01*
X248668131Y-23924232D01*
X248938839Y-23894446D01*
X249202326Y-23825562D01*
X249452975Y-23719047D01*
X249685444Y-23577173D01*
X249894779Y-23402963D01*
X250076518Y-23200131D01*
X250226788Y-22972998D01*
X250342386Y-22726406D01*
X250420847Y-22465611D01*
X250460500Y-22196171D01*
X250460499Y-22196167D01*
X250461821Y-22187192D01*
X250464582Y-22187598D01*
X250480185Y-22134462D01*
X250532989Y-22088707D01*
X250602147Y-22078763D01*
X250665703Y-22107788D01*
X250672166Y-22113806D01*
X250895077Y-22336717D01*
X251108181Y-22549821D01*
X251141666Y-22611144D01*
X251144500Y-22637504D01*
X251144499Y-22687259D01*
X251142235Y-22707765D01*
X251144439Y-22777873D01*
X251144500Y-22781768D01*
X251144500Y-22809351D01*
X251144988Y-22813220D01*
X251144989Y-22813226D01*
X251145004Y-22813344D01*
X251145918Y-22824968D01*
X251147290Y-22868627D01*
X251152879Y-22887861D01*
X251156825Y-22906917D01*
X251159335Y-22926793D01*
X251175414Y-22967405D01*
X251179197Y-22978452D01*
X251191382Y-23020392D01*
X251201580Y-23037636D01*
X251210136Y-23055101D01*
X251217514Y-23073733D01*
X251217515Y-23073734D01*
X251243180Y-23109060D01*
X251249593Y-23118823D01*
X251271826Y-23156417D01*
X251271829Y-23156420D01*
X251271830Y-23156421D01*
X251285995Y-23170586D01*
X251298627Y-23185376D01*
X251310406Y-23201588D01*
X251344058Y-23229427D01*
X251352699Y-23237290D01*
X254499195Y-26383787D01*
X254512095Y-26399888D01*
X254563222Y-26447900D01*
X254566019Y-26450611D01*
X254585528Y-26470120D01*
X254588708Y-26472587D01*
X254597570Y-26480155D01*
X254611297Y-26493046D01*
X254629417Y-26510062D01*
X254646969Y-26519711D01*
X254663237Y-26530397D01*
X254679063Y-26542673D01*
X254719145Y-26560017D01*
X254729632Y-26565155D01*
X254767906Y-26586197D01*
X254776409Y-26588379D01*
X254787307Y-26591178D01*
X254805712Y-26597478D01*
X254824103Y-26605437D01*
X254867249Y-26612270D01*
X254878667Y-26614635D01*
X254920980Y-26625500D01*
X254941015Y-26625500D01*
X254960414Y-26627027D01*
X254980195Y-26630160D01*
X255023673Y-26626050D01*
X255035343Y-26625500D01*
X257144548Y-26625500D01*
X257211587Y-26645185D01*
X257232229Y-26661819D01*
X258258729Y-27688319D01*
X258292214Y-27749642D01*
X258287230Y-27819334D01*
X258245358Y-27875267D01*
X258179894Y-27899684D01*
X258171048Y-27900000D01*
X258138993Y-27900000D01*
X257910140Y-27938188D01*
X257690703Y-28013521D01*
X257486645Y-28123952D01*
X257456200Y-28147646D01*
X257456200Y-28147647D01*
X258122466Y-28813913D01*
X258112685Y-28815320D01*
X257981900Y-28875048D01*
X257873239Y-28969202D01*
X257795507Y-29090156D01*
X257771923Y-29170476D01*
X257103811Y-28502364D01*
X257099029Y-28502860D01*
X257055957Y-28539618D01*
X256986726Y-28549040D01*
X256923391Y-28519538D01*
X256901491Y-28494263D01*
X256863979Y-28436847D01*
X256706784Y-28266087D01*
X256523626Y-28123530D01*
X256319503Y-28013064D01*
X256319499Y-28013062D01*
X256319498Y-28013062D01*
X256099984Y-27937702D01*
X255912398Y-27906400D01*
X255871049Y-27899500D01*
X255638951Y-27899500D01*
X255597602Y-27906400D01*
X255410015Y-27937702D01*
X255190501Y-28013062D01*
X255190497Y-28013063D01*
X255190497Y-28013064D01*
X255105500Y-28059062D01*
X254986372Y-28123531D01*
X254803215Y-28266087D01*
X254694714Y-28383952D01*
X254646021Y-28436847D01*
X254527457Y-28618322D01*
X254474313Y-28663678D01*
X254423650Y-28674500D01*
X250110452Y-28674500D01*
X250043413Y-28654815D01*
X250022771Y-28638181D01*
X247938960Y-26554369D01*
X247905475Y-26493046D01*
X247903323Y-26479668D01*
X247885674Y-26311744D01*
X247847061Y-26192907D01*
X247827179Y-26131715D01*
X247732533Y-25967783D01*
X247605870Y-25827110D01*
X247452730Y-25715848D01*
X247279802Y-25638855D01*
X247094648Y-25599500D01*
X247094646Y-25599500D01*
X246905354Y-25599500D01*
X246905352Y-25599500D01*
X246720197Y-25638855D01*
X246547269Y-25715848D01*
X246394129Y-25827110D01*
X246267466Y-25967783D01*
X246172820Y-26131715D01*
X246114326Y-26311742D01*
X246094540Y-26500000D01*
X246114326Y-26688257D01*
X246172820Y-26868284D01*
X246267466Y-27032216D01*
X246394129Y-27172889D01*
X246547269Y-27284151D01*
X246720197Y-27361144D01*
X246905352Y-27400500D01*
X246905354Y-27400500D01*
X246964548Y-27400500D01*
X247031587Y-27420185D01*
X247052229Y-27436819D01*
X247303729Y-27688319D01*
X247337214Y-27749642D01*
X247332230Y-27819334D01*
X247290358Y-27875267D01*
X247224894Y-27899684D01*
X247216048Y-27900000D01*
X246550000Y-27900000D01*
X246550000Y-28864498D01*
X246442315Y-28815320D01*
X246335763Y-28800000D01*
X246264237Y-28800000D01*
X246157685Y-28815320D01*
X246050000Y-28864498D01*
X246050000Y-27900000D01*
X245355482Y-27900000D01*
X245348867Y-27900354D01*
X245292628Y-27906400D01*
X245157910Y-27956647D01*
X245042811Y-28042811D01*
X244956646Y-28157913D01*
X244938319Y-28207048D01*
X244896447Y-28262981D01*
X244830982Y-28287397D01*
X244762710Y-28272544D01*
X244745980Y-28261569D01*
X244568626Y-28123530D01*
X244364503Y-28013064D01*
X244364499Y-28013062D01*
X244364498Y-28013062D01*
X244144984Y-27937702D01*
X243957398Y-27906400D01*
X243916049Y-27899500D01*
X243683951Y-27899500D01*
X243642602Y-27906400D01*
X243455015Y-27937702D01*
X243364763Y-27968686D01*
X243294964Y-27971836D01*
X243234543Y-27936750D01*
X243202682Y-27874567D01*
X243200500Y-27851405D01*
X243200500Y-26735451D01*
X243220185Y-26668412D01*
X243236819Y-26647770D01*
X243447771Y-26436819D01*
X243509094Y-26403334D01*
X243535452Y-26400500D01*
X243594648Y-26400500D01*
X243718084Y-26374262D01*
X243779803Y-26361144D01*
X243952730Y-26284151D01*
X243967349Y-26273530D01*
X244105870Y-26172889D01*
X244142943Y-26131716D01*
X244232533Y-26032216D01*
X244327179Y-25868284D01*
X244385674Y-25688256D01*
X244405460Y-25500000D01*
X244385674Y-25311744D01*
X244327179Y-25131716D01*
X244327179Y-25131715D01*
X244232533Y-24967783D01*
X244105870Y-24827110D01*
X243952730Y-24715848D01*
X243779802Y-24638855D01*
X243594648Y-24599500D01*
X243594646Y-24599500D01*
X243405354Y-24599500D01*
X243405352Y-24599500D01*
X243220197Y-24638855D01*
X243047269Y-24715848D01*
X242894129Y-24827110D01*
X242767466Y-24967783D01*
X242672820Y-25131715D01*
X242614326Y-25311742D01*
X242596679Y-25479649D01*
X242570094Y-25544263D01*
X242561039Y-25554368D01*
X242191208Y-25924199D01*
X242175110Y-25937096D01*
X242127096Y-25988225D01*
X242124392Y-25991016D01*
X242107628Y-26007780D01*
X242107621Y-26007787D01*
X242104880Y-26010529D01*
X242102499Y-26013597D01*
X242102490Y-26013608D01*
X242102411Y-26013711D01*
X242094842Y-26022572D01*
X242064935Y-26054420D01*
X242055285Y-26071974D01*
X242044609Y-26088228D01*
X242032326Y-26104063D01*
X242014975Y-26144158D01*
X242009838Y-26154644D01*
X241988802Y-26192907D01*
X241983821Y-26212309D01*
X241977520Y-26230711D01*
X241969561Y-26249102D01*
X241962728Y-26292242D01*
X241960360Y-26303674D01*
X241949500Y-26345977D01*
X241949500Y-26366016D01*
X241947973Y-26385414D01*
X241944840Y-26405194D01*
X241948950Y-26448673D01*
X241949500Y-26460343D01*
X241949499Y-27868570D01*
X241929814Y-27935610D01*
X241877010Y-27981364D01*
X241807852Y-27991308D01*
X241785236Y-27985851D01*
X241644984Y-27937702D01*
X241457398Y-27906400D01*
X241416049Y-27899500D01*
X241183951Y-27899500D01*
X241142602Y-27906400D01*
X240955015Y-27937702D01*
X240735501Y-28013062D01*
X240735497Y-28013063D01*
X240735497Y-28013064D01*
X240650500Y-28059062D01*
X240531372Y-28123531D01*
X240348215Y-28266087D01*
X240191020Y-28436848D01*
X240064076Y-28631150D01*
X239970844Y-28843696D01*
X239970842Y-28843700D01*
X239970843Y-28843700D01*
X239918601Y-29050000D01*
X239913865Y-29068700D01*
X239894699Y-29299999D01*
X239913865Y-29531299D01*
X239913865Y-29531301D01*
X239913866Y-29531305D01*
X239970843Y-29756300D01*
X239970844Y-29756303D01*
X240045731Y-29927027D01*
X240064076Y-29968849D01*
X240191021Y-30163153D01*
X240348216Y-30333913D01*
X240531374Y-30476470D01*
X240735497Y-30586936D01*
X240814763Y-30614148D01*
X240955015Y-30662297D01*
X240955017Y-30662297D01*
X240955019Y-30662298D01*
X241183951Y-30700500D01*
X241183952Y-30700500D01*
X241416048Y-30700500D01*
X241416049Y-30700500D01*
X241644981Y-30662298D01*
X241785237Y-30614147D01*
X241855034Y-30610998D01*
X241915456Y-30646084D01*
X241947316Y-30708266D01*
X241949499Y-30731429D01*
X241949499Y-35523465D01*
X241929814Y-35590504D01*
X241877010Y-35636259D01*
X241807852Y-35646203D01*
X241789584Y-35640934D01*
X241594648Y-35599500D01*
X241594646Y-35599500D01*
X241405354Y-35599500D01*
X241405352Y-35599500D01*
X241220197Y-35638855D01*
X241047269Y-35715848D01*
X240894129Y-35827110D01*
X240767466Y-35967783D01*
X240672820Y-36131715D01*
X240614326Y-36311742D01*
X240594540Y-36500000D01*
X240614326Y-36688257D01*
X240672820Y-36868284D01*
X240767464Y-37032213D01*
X240767467Y-37032216D01*
X240828384Y-37099871D01*
X240842650Y-37115714D01*
X240872880Y-37178706D01*
X240874500Y-37198687D01*
X240874500Y-37304239D01*
X240854815Y-37371278D01*
X240802011Y-37417033D01*
X240732853Y-37426977D01*
X240669297Y-37397952D01*
X240642366Y-37364927D01*
X240621081Y-37327002D01*
X240555804Y-37210690D01*
X240439174Y-37059649D01*
X240389354Y-36995130D01*
X240193295Y-36806105D01*
X239971800Y-36647640D01*
X239729602Y-36523117D01*
X239729598Y-36523115D01*
X239729597Y-36523115D01*
X239582487Y-36472928D01*
X239471836Y-36435179D01*
X239204029Y-36385713D01*
X238931869Y-36375767D01*
X238661162Y-36405553D01*
X238397674Y-36474438D01*
X238147024Y-36580953D01*
X237914556Y-36722826D01*
X237705223Y-36897035D01*
X237705221Y-36897037D01*
X237671414Y-36934768D01*
X237523480Y-37099871D01*
X237373210Y-37327005D01*
X237257615Y-37573589D01*
X237179153Y-37834388D01*
X237179153Y-37834389D01*
X237159434Y-37968382D01*
X237147179Y-38051653D01*
X237117943Y-38115112D01*
X237059039Y-38152691D01*
X236989170Y-38152458D01*
X236930518Y-38114489D01*
X236901704Y-38050837D01*
X236900500Y-38033598D01*
X236900500Y-22255497D01*
X236920185Y-22188458D01*
X236972989Y-22142703D01*
X237042147Y-22132759D01*
X237105703Y-22161784D01*
X237143477Y-22220562D01*
X237148169Y-22246446D01*
X237154402Y-22331617D01*
X237213616Y-22597438D01*
X237271929Y-22749902D01*
X237310907Y-22851814D01*
X237444196Y-23089310D01*
X237496015Y-23156417D01*
X237610645Y-23304869D01*
X237806704Y-23493894D01*
X238028199Y-23652359D01*
X238270397Y-23776882D01*
X238270403Y-23776885D01*
X238528159Y-23864819D01*
X238528161Y-23864819D01*
X238528163Y-23864820D01*
X238795970Y-23914286D01*
X239068130Y-23924232D01*
X239068130Y-23924231D01*
X239068131Y-23924232D01*
X239338839Y-23894446D01*
X239602326Y-23825562D01*
X239852975Y-23719047D01*
X240085444Y-23577173D01*
X240294779Y-23402963D01*
X240476518Y-23200131D01*
X240626788Y-22972998D01*
X240742386Y-22726406D01*
X240820847Y-22465611D01*
X240860500Y-22196171D01*
X240860500Y-21472000D01*
X240845597Y-21268384D01*
X240820403Y-21155285D01*
X240786383Y-21002561D01*
X240786382Y-21002558D01*
X240689093Y-20748186D01*
X240555804Y-20510690D01*
X240448023Y-20371110D01*
X240389354Y-20295130D01*
X240193295Y-20106105D01*
X239971800Y-19947640D01*
X239729602Y-19823117D01*
X239729598Y-19823115D01*
X239729597Y-19823115D01*
X239543686Y-19759691D01*
X239471836Y-19735179D01*
X239204029Y-19685713D01*
X238931869Y-19675767D01*
X238661162Y-19705553D01*
X238397674Y-19774438D01*
X238147024Y-19880953D01*
X237914556Y-20022826D01*
X237705223Y-20197035D01*
X237523480Y-20399871D01*
X237373210Y-20627005D01*
X237257615Y-20873589D01*
X237179153Y-21134388D01*
X237176078Y-21155285D01*
X237159434Y-21268382D01*
X237147179Y-21351653D01*
X237117943Y-21415112D01*
X237059039Y-21452691D01*
X236989170Y-21452458D01*
X236930518Y-21414489D01*
X236901704Y-21350837D01*
X236900500Y-21333598D01*
X236900500Y-15905410D01*
X236900972Y-15894604D01*
X236904476Y-15854550D01*
X236918739Y-15709731D01*
X236922361Y-15689824D01*
X236941291Y-15619179D01*
X236942360Y-15615432D01*
X236973715Y-15512069D01*
X236979973Y-15495714D01*
X237013787Y-15423201D01*
X237016733Y-15417307D01*
X237064467Y-15328002D01*
X237072230Y-15315366D01*
X237119456Y-15247920D01*
X237125143Y-15240425D01*
X237188026Y-15163802D01*
X237196159Y-15154829D01*
X237254829Y-15096159D01*
X237263802Y-15088026D01*
X237340425Y-15025143D01*
X237347920Y-15019456D01*
X237415366Y-14972230D01*
X237428002Y-14964467D01*
X237517307Y-14916733D01*
X237523201Y-14913787D01*
X237595714Y-14879973D01*
X237612069Y-14873715D01*
X237715432Y-14842360D01*
X237719179Y-14841291D01*
X237789818Y-14822363D01*
X237809737Y-14818739D01*
X237954473Y-14804483D01*
X237994641Y-14800968D01*
X238005401Y-14800500D01*
X254012292Y-14800500D01*
X254079331Y-14820185D01*
G37*
%TD.AperFunction*%
%TA.AperFunction,Conductor*%
G36*
X276006059Y-14801096D02*
G01*
X276035330Y-14803979D01*
X276174665Y-14819680D01*
X276196749Y-14824234D01*
X276256548Y-14842374D01*
X276261502Y-14843991D01*
X276356675Y-14877293D01*
X276374165Y-14884974D01*
X276435420Y-14917717D01*
X276442937Y-14922080D01*
X276522606Y-14972139D01*
X276535298Y-14981279D01*
X276590645Y-15026700D01*
X276599662Y-15034873D01*
X276665125Y-15100336D01*
X276673298Y-15109353D01*
X276718719Y-15164700D01*
X276727859Y-15177392D01*
X276777918Y-15257061D01*
X276782281Y-15264578D01*
X276815024Y-15325833D01*
X276822709Y-15343334D01*
X276856005Y-15438491D01*
X276857623Y-15443449D01*
X276875761Y-15503241D01*
X276880321Y-15525353D01*
X276896027Y-15664739D01*
X276898908Y-15693998D01*
X276899500Y-15706069D01*
X276899500Y-99435211D01*
X276879815Y-99502250D01*
X276827011Y-99548005D01*
X276757853Y-99557949D01*
X276694297Y-99528924D01*
X276675183Y-99508098D01*
X276654471Y-99479591D01*
X276651811Y-99475930D01*
X276645401Y-99466171D01*
X276630005Y-99440138D01*
X276623170Y-99428580D01*
X276609413Y-99414823D01*
X276575928Y-99353500D01*
X276577319Y-99295048D01*
X276595635Y-99226692D01*
X276615468Y-99000000D01*
X276595635Y-98773308D01*
X276536739Y-98553504D01*
X276440568Y-98347266D01*
X276310047Y-98160861D01*
X276310046Y-98160859D01*
X276149140Y-97999953D01*
X275962735Y-97869432D01*
X275756497Y-97773261D01*
X275536689Y-97714364D01*
X275310000Y-97694531D01*
X275083310Y-97714364D01*
X274863502Y-97773261D01*
X274657264Y-97869432D01*
X274470859Y-97999953D01*
X274309953Y-98160859D01*
X274179432Y-98347264D01*
X274083261Y-98553502D01*
X274024364Y-98773310D01*
X274004531Y-99000000D01*
X274024364Y-99226689D01*
X274083261Y-99446497D01*
X274179432Y-99652735D01*
X274309953Y-99839140D01*
X274470859Y-100000046D01*
X274657264Y-100130567D01*
X274657265Y-100130567D01*
X274657266Y-100130568D01*
X274863504Y-100226739D01*
X275083308Y-100285635D01*
X275234435Y-100298857D01*
X275309999Y-100305468D01*
X275309999Y-100305467D01*
X275310000Y-100305468D01*
X275327291Y-100303955D01*
X275364692Y-100300683D01*
X275433192Y-100314449D01*
X275483375Y-100363064D01*
X275499500Y-100424211D01*
X275499500Y-103315863D01*
X275479815Y-103382902D01*
X275427011Y-103428657D01*
X275357853Y-103438601D01*
X275343407Y-103435638D01*
X275226691Y-103404364D01*
X275000000Y-103384531D01*
X274773307Y-103404364D01*
X274704950Y-103422680D01*
X274635100Y-103421017D01*
X274585177Y-103390586D01*
X271310802Y-100116211D01*
X271297906Y-100100113D01*
X271246775Y-100052098D01*
X271243978Y-100049387D01*
X271227227Y-100032636D01*
X271224471Y-100029880D01*
X271221290Y-100027412D01*
X271212422Y-100019837D01*
X271180582Y-99989938D01*
X271163024Y-99980285D01*
X271146764Y-99969604D01*
X271130936Y-99957327D01*
X271090851Y-99939980D01*
X271080361Y-99934841D01*
X271042091Y-99913802D01*
X271022691Y-99908821D01*
X271004284Y-99902519D01*
X270985897Y-99894562D01*
X270942758Y-99887729D01*
X270931324Y-99885361D01*
X270889019Y-99874500D01*
X270868984Y-99874500D01*
X270849586Y-99872973D01*
X270842162Y-99871797D01*
X270829805Y-99869840D01*
X270829804Y-99869840D01*
X270796751Y-99872964D01*
X270786325Y-99873950D01*
X270774656Y-99874500D01*
X268903488Y-99874500D01*
X268836449Y-99854815D01*
X268790694Y-99802011D01*
X268780750Y-99732853D01*
X268801912Y-99679378D01*
X268804486Y-99675700D01*
X268820568Y-99652734D01*
X268916739Y-99446496D01*
X268975635Y-99226692D01*
X268995468Y-99000000D01*
X268975635Y-98773308D01*
X268916739Y-98553504D01*
X268820568Y-98347266D01*
X268690047Y-98160861D01*
X268690046Y-98160859D01*
X268529140Y-97999953D01*
X268342735Y-97869432D01*
X268136497Y-97773261D01*
X267916689Y-97714364D01*
X267690000Y-97694531D01*
X267463310Y-97714364D01*
X267243502Y-97773261D01*
X267037264Y-97869432D01*
X266850859Y-97999953D01*
X266689953Y-98160859D01*
X266559432Y-98347264D01*
X266463261Y-98553502D01*
X266404364Y-98773310D01*
X266384531Y-99000000D01*
X266404364Y-99226689D01*
X266463261Y-99446497D01*
X266559432Y-99652734D01*
X266578088Y-99679378D01*
X266600415Y-99745584D01*
X266583403Y-99813351D01*
X266532455Y-99861164D01*
X266476512Y-99874500D01*
X262654247Y-99874500D01*
X262587208Y-99854815D01*
X262562099Y-99833473D01*
X262556371Y-99827112D01*
X262403230Y-99715849D01*
X262403229Y-99715848D01*
X262403227Y-99715847D01*
X262230302Y-99638855D01*
X262045148Y-99599500D01*
X262045146Y-99599500D01*
X261985952Y-99599500D01*
X261918913Y-99579815D01*
X261898271Y-99563181D01*
X260682356Y-98347266D01*
X259451302Y-97116211D01*
X259438406Y-97100113D01*
X259387275Y-97052098D01*
X259384478Y-97049387D01*
X259367727Y-97032636D01*
X259364971Y-97029880D01*
X259361790Y-97027412D01*
X259352922Y-97019837D01*
X259321082Y-96989938D01*
X259303524Y-96980285D01*
X259287264Y-96969604D01*
X259271436Y-96957327D01*
X259231351Y-96939980D01*
X259220861Y-96934841D01*
X259182591Y-96913802D01*
X259163191Y-96908821D01*
X259144784Y-96902519D01*
X259126397Y-96894562D01*
X259083258Y-96887729D01*
X259071824Y-96885361D01*
X259029519Y-96874500D01*
X259009484Y-96874500D01*
X258990086Y-96872973D01*
X258980160Y-96871401D01*
X258970305Y-96869840D01*
X258970304Y-96869840D01*
X258953791Y-96871401D01*
X258926825Y-96873950D01*
X258915156Y-96874500D01*
X256998948Y-96874500D01*
X256931909Y-96854815D01*
X256886154Y-96802011D01*
X256876210Y-96732853D01*
X256905235Y-96669297D01*
X256946540Y-96638119D01*
X256962734Y-96630568D01*
X257149139Y-96500047D01*
X257310047Y-96339139D01*
X257440568Y-96152734D01*
X257536739Y-95946496D01*
X257595635Y-95726692D01*
X257615468Y-95500000D01*
X266384531Y-95500000D01*
X266404364Y-95726689D01*
X266463261Y-95946497D01*
X266559432Y-96152735D01*
X266689953Y-96339140D01*
X266850859Y-96500046D01*
X267037264Y-96630567D01*
X267037265Y-96630567D01*
X267037266Y-96630568D01*
X267243504Y-96726739D01*
X267463308Y-96785635D01*
X267690000Y-96805468D01*
X267916692Y-96785635D01*
X268136496Y-96726739D01*
X268342734Y-96630568D01*
X268529139Y-96500047D01*
X268690047Y-96339139D01*
X268820568Y-96152734D01*
X268916739Y-95946496D01*
X268975635Y-95726692D01*
X268995468Y-95500000D01*
X268995468Y-95499999D01*
X274004531Y-95499999D01*
X274024364Y-95726689D01*
X274083261Y-95946497D01*
X274179432Y-96152735D01*
X274309953Y-96339140D01*
X274470859Y-96500046D01*
X274657264Y-96630567D01*
X274657265Y-96630567D01*
X274657266Y-96630568D01*
X274863504Y-96726739D01*
X275083308Y-96785635D01*
X275310000Y-96805468D01*
X275536692Y-96785635D01*
X275756496Y-96726739D01*
X275962734Y-96630568D01*
X276149139Y-96500047D01*
X276310047Y-96339139D01*
X276440568Y-96152734D01*
X276536739Y-95946496D01*
X276595635Y-95726692D01*
X276615468Y-95500000D01*
X276595635Y-95273308D01*
X276536739Y-95053504D01*
X276440568Y-94847266D01*
X276374000Y-94752195D01*
X276310046Y-94660859D01*
X276149140Y-94499953D01*
X275962735Y-94369432D01*
X275756497Y-94273261D01*
X275536689Y-94214364D01*
X275310000Y-94194531D01*
X275083310Y-94214364D01*
X274863502Y-94273261D01*
X274657264Y-94369432D01*
X274470859Y-94499953D01*
X274309953Y-94660859D01*
X274179432Y-94847264D01*
X274083261Y-95053502D01*
X274024364Y-95273310D01*
X274004531Y-95499999D01*
X268995468Y-95499999D01*
X268975635Y-95273308D01*
X268916739Y-95053504D01*
X268820568Y-94847266D01*
X268754000Y-94752195D01*
X268690046Y-94660859D01*
X268529140Y-94499953D01*
X268342735Y-94369432D01*
X268136497Y-94273261D01*
X267916689Y-94214364D01*
X267690000Y-94194531D01*
X267463310Y-94214364D01*
X267243502Y-94273261D01*
X267037264Y-94369432D01*
X266850859Y-94499953D01*
X266689953Y-94660859D01*
X266559432Y-94847264D01*
X266463261Y-95053502D01*
X266404364Y-95273310D01*
X266384531Y-95500000D01*
X257615468Y-95500000D01*
X257595635Y-95273308D01*
X257536739Y-95053504D01*
X257440568Y-94847266D01*
X257374000Y-94752195D01*
X257310046Y-94660859D01*
X257149140Y-94499953D01*
X256962735Y-94369432D01*
X256756497Y-94273261D01*
X256536689Y-94214364D01*
X256309999Y-94194531D01*
X256083310Y-94214364D01*
X255863502Y-94273261D01*
X255657264Y-94369432D01*
X255470859Y-94499953D01*
X255309953Y-94660859D01*
X255179432Y-94847264D01*
X255083261Y-95053502D01*
X255024364Y-95273310D01*
X255004531Y-95499999D01*
X255024364Y-95726689D01*
X255083261Y-95946497D01*
X255179432Y-96152735D01*
X255309953Y-96339140D01*
X255470859Y-96500046D01*
X255657263Y-96630566D01*
X255657266Y-96630568D01*
X255673459Y-96638119D01*
X255725897Y-96684291D01*
X255745048Y-96751485D01*
X255724832Y-96818366D01*
X255671666Y-96863700D01*
X255621052Y-96874500D01*
X251000453Y-96874500D01*
X250933414Y-96854815D01*
X250912772Y-96838181D01*
X249989413Y-95914822D01*
X249955928Y-95853499D01*
X249957319Y-95795047D01*
X249975635Y-95726692D01*
X249995468Y-95500000D01*
X249975635Y-95273308D01*
X249916739Y-95053504D01*
X249820568Y-94847266D01*
X249754000Y-94752195D01*
X249690046Y-94660859D01*
X249529140Y-94499953D01*
X249342735Y-94369432D01*
X249136497Y-94273261D01*
X248916689Y-94214364D01*
X248690000Y-94194531D01*
X248463310Y-94214364D01*
X248243502Y-94273261D01*
X248037264Y-94369432D01*
X247850859Y-94499953D01*
X247689953Y-94660859D01*
X247559432Y-94847264D01*
X247463261Y-95053502D01*
X247404364Y-95273310D01*
X247384531Y-95499999D01*
X247404364Y-95726689D01*
X247463261Y-95946497D01*
X247559432Y-96152735D01*
X247689953Y-96339140D01*
X247850859Y-96500046D01*
X248037264Y-96630567D01*
X248037265Y-96630567D01*
X248037266Y-96630568D01*
X248243504Y-96726739D01*
X248463308Y-96785635D01*
X248690000Y-96805468D01*
X248916692Y-96785635D01*
X248985047Y-96767319D01*
X249054897Y-96768982D01*
X249104822Y-96799413D01*
X250189196Y-97883787D01*
X250202096Y-97899888D01*
X250253223Y-97947900D01*
X250256020Y-97950611D01*
X250275529Y-97970120D01*
X250278709Y-97972587D01*
X250287571Y-97980155D01*
X250308653Y-97999953D01*
X250319418Y-98010062D01*
X250336970Y-98019711D01*
X250353238Y-98030397D01*
X250369064Y-98042673D01*
X250409146Y-98060017D01*
X250419633Y-98065155D01*
X250457907Y-98086197D01*
X250466410Y-98088379D01*
X250477308Y-98091178D01*
X250495713Y-98097478D01*
X250514104Y-98105437D01*
X250557250Y-98112270D01*
X250568668Y-98114635D01*
X250610981Y-98125500D01*
X250631016Y-98125500D01*
X250650415Y-98127027D01*
X250670196Y-98130160D01*
X250713674Y-98126050D01*
X250725344Y-98125500D01*
X258640048Y-98125500D01*
X258707087Y-98145185D01*
X258727729Y-98161819D01*
X261011538Y-100445628D01*
X261045023Y-100506951D01*
X261047178Y-100520347D01*
X261064826Y-100688257D01*
X261123320Y-100868284D01*
X261217966Y-101032216D01*
X261344629Y-101172889D01*
X261497769Y-101284151D01*
X261670697Y-101361144D01*
X261855852Y-101400500D01*
X261855854Y-101400500D01*
X262045148Y-101400500D01*
X262168583Y-101374262D01*
X262230303Y-101361144D01*
X262403230Y-101284151D01*
X262556371Y-101172888D01*
X262562098Y-101166527D01*
X262621584Y-101129879D01*
X262654247Y-101125500D01*
X270499548Y-101125500D01*
X270566587Y-101145185D01*
X270587229Y-101161819D01*
X273700586Y-104275177D01*
X273734071Y-104336500D01*
X273732680Y-104394950D01*
X273714364Y-104463307D01*
X273694531Y-104690000D01*
X273714364Y-104916689D01*
X273773261Y-105136497D01*
X273869432Y-105342735D01*
X273999953Y-105529140D01*
X274160859Y-105690046D01*
X274356152Y-105826790D01*
X274354628Y-105828965D01*
X274395081Y-105864579D01*
X274414237Y-105931771D01*
X274394026Y-105998653D01*
X274377922Y-106018476D01*
X269058219Y-111338181D01*
X268996896Y-111371666D01*
X268970538Y-111374500D01*
X264904188Y-111374500D01*
X264837149Y-111354815D01*
X264802613Y-111321623D01*
X264690046Y-111160859D01*
X264529140Y-110999953D01*
X264368377Y-110887387D01*
X264324752Y-110832811D01*
X264315500Y-110785812D01*
X264315500Y-109272740D01*
X264317763Y-109252239D01*
X264316940Y-109226053D01*
X264315561Y-109182144D01*
X264315500Y-109178250D01*
X264315500Y-109154544D01*
X264315500Y-109150650D01*
X264314998Y-109146681D01*
X264314080Y-109135024D01*
X264312709Y-109091373D01*
X264307120Y-109072140D01*
X264303174Y-109053082D01*
X264300664Y-109033206D01*
X264284588Y-108992604D01*
X264280804Y-108981553D01*
X264274881Y-108961168D01*
X264268618Y-108939610D01*
X264258414Y-108922355D01*
X264249861Y-108904895D01*
X264242486Y-108886269D01*
X264242486Y-108886268D01*
X264216808Y-108850925D01*
X264210401Y-108841171D01*
X264188169Y-108803579D01*
X264174006Y-108789416D01*
X264161367Y-108774617D01*
X264149595Y-108758413D01*
X264115941Y-108730573D01*
X264107299Y-108722709D01*
X263226874Y-107842284D01*
X263193389Y-107780961D01*
X263198373Y-107711269D01*
X263240245Y-107655336D01*
X263305709Y-107630919D01*
X263373982Y-107645771D01*
X263390041Y-107656227D01*
X263395725Y-107660588D01*
X263415963Y-107676117D01*
X263559001Y-107735365D01*
X263673960Y-107750500D01*
X264540975Y-107750499D01*
X264625050Y-107739940D01*
X264758016Y-107684863D01*
X264824935Y-107632879D01*
X265757884Y-106699931D01*
X265809864Y-106633016D01*
X265864940Y-106500050D01*
X265875500Y-106415977D01*
X265875499Y-105198998D01*
X265895184Y-105131961D01*
X265947987Y-105086206D01*
X265999499Y-105075000D01*
X266400000Y-105075000D01*
X266400000Y-104075000D01*
X266900000Y-104075000D01*
X266900000Y-105075000D01*
X267300500Y-105075000D01*
X267367539Y-105094685D01*
X267413294Y-105147489D01*
X267424500Y-105199000D01*
X267424500Y-106412096D01*
X267424500Y-106412111D01*
X267424501Y-106415975D01*
X267435060Y-106500050D01*
X267476254Y-106599500D01*
X267490137Y-106633016D01*
X267539737Y-106696867D01*
X267539742Y-106696873D01*
X267542121Y-106699935D01*
X268475069Y-107632884D01*
X268541984Y-107684864D01*
X268674950Y-107739940D01*
X268759023Y-107750500D01*
X268762900Y-107750500D01*
X269621987Y-107750500D01*
X269626040Y-107750500D01*
X269740999Y-107735365D01*
X269884037Y-107676117D01*
X270006867Y-107581867D01*
X270101117Y-107459037D01*
X270160365Y-107315999D01*
X270175500Y-107201040D01*
X270175500Y-103798960D01*
X270160365Y-103684001D01*
X270101117Y-103540963D01*
X270060460Y-103487977D01*
X270006867Y-103418132D01*
X269884036Y-103323882D01*
X269741000Y-103264635D01*
X269630058Y-103250029D01*
X269626040Y-103249500D01*
X269621987Y-103249500D01*
X269023999Y-103249500D01*
X268956960Y-103229815D01*
X268911205Y-103177011D01*
X268899999Y-103125500D01*
X268899999Y-102894398D01*
X268899469Y-102886321D01*
X268884428Y-102772063D01*
X268823466Y-102624888D01*
X268726491Y-102498508D01*
X268600111Y-102401532D01*
X268452937Y-102340572D01*
X268338674Y-102325529D01*
X268330604Y-102325000D01*
X266900000Y-102325000D01*
X266900000Y-103325000D01*
X266400000Y-103325000D01*
X266400000Y-102325000D01*
X264969398Y-102325000D01*
X264961321Y-102325530D01*
X264847063Y-102340571D01*
X264699888Y-102401533D01*
X264573508Y-102498508D01*
X264476532Y-102624888D01*
X264415572Y-102772062D01*
X264400529Y-102886325D01*
X264400000Y-102894396D01*
X264400000Y-103125500D01*
X264380315Y-103192539D01*
X264327511Y-103238294D01*
X264276000Y-103249500D01*
X263673960Y-103249500D01*
X263669942Y-103250028D01*
X263669941Y-103250029D01*
X263558999Y-103264635D01*
X263415963Y-103323882D01*
X263293132Y-103418132D01*
X263198882Y-103540963D01*
X263139635Y-103683999D01*
X263134058Y-103726358D01*
X263124500Y-103798960D01*
X263124500Y-107201040D01*
X263125029Y-107205058D01*
X263139635Y-107316000D01*
X263198882Y-107459036D01*
X263218772Y-107484958D01*
X263243966Y-107550128D01*
X263229927Y-107618573D01*
X263181113Y-107668562D01*
X263113021Y-107684225D01*
X263047271Y-107660588D01*
X263032715Y-107648125D01*
X260242136Y-104857546D01*
X256438960Y-101054369D01*
X256405475Y-100993046D01*
X256403323Y-100979668D01*
X256397147Y-100920910D01*
X256409717Y-100852184D01*
X256457449Y-100801161D01*
X256525189Y-100784043D01*
X256570904Y-100794674D01*
X256720197Y-100861144D01*
X256905352Y-100900500D01*
X256905354Y-100900500D01*
X257094648Y-100900500D01*
X257218084Y-100874262D01*
X257279803Y-100861144D01*
X257452730Y-100784151D01*
X257534833Y-100724500D01*
X257605870Y-100672889D01*
X257642943Y-100631716D01*
X257732533Y-100532216D01*
X257827179Y-100368284D01*
X257885674Y-100188256D01*
X257905460Y-100000000D01*
X257885674Y-99811744D01*
X257845391Y-99687766D01*
X257827179Y-99631715D01*
X257732533Y-99467783D01*
X257605870Y-99327110D01*
X257452730Y-99215848D01*
X257279802Y-99138855D01*
X257094648Y-99099500D01*
X257094646Y-99099500D01*
X256905354Y-99099500D01*
X256905352Y-99099500D01*
X256720197Y-99138855D01*
X256547272Y-99215847D01*
X256445175Y-99290024D01*
X256394129Y-99327112D01*
X256388401Y-99333472D01*
X256328916Y-99370121D01*
X256296253Y-99374500D01*
X247976784Y-99374500D01*
X247956280Y-99372236D01*
X247886188Y-99374439D01*
X247882294Y-99374500D01*
X247854694Y-99374500D01*
X247850843Y-99374986D01*
X247850812Y-99374988D01*
X247850684Y-99375005D01*
X247839072Y-99375918D01*
X247795412Y-99377290D01*
X247776172Y-99382880D01*
X247757125Y-99386825D01*
X247737253Y-99389335D01*
X247696643Y-99405413D01*
X247685598Y-99409194D01*
X247643655Y-99421380D01*
X247626413Y-99431578D01*
X247608941Y-99440138D01*
X247590310Y-99447514D01*
X247554982Y-99473181D01*
X247545224Y-99479591D01*
X247507623Y-99501829D01*
X247493454Y-99515998D01*
X247478666Y-99528628D01*
X247462457Y-99540405D01*
X247434616Y-99574058D01*
X247426755Y-99582696D01*
X244616208Y-102393243D01*
X244600110Y-102406140D01*
X244552096Y-102457269D01*
X244549392Y-102460060D01*
X244532628Y-102476824D01*
X244532621Y-102476831D01*
X244529880Y-102479573D01*
X244527499Y-102482641D01*
X244527490Y-102482652D01*
X244527411Y-102482755D01*
X244519842Y-102491616D01*
X244489935Y-102523464D01*
X244480285Y-102541018D01*
X244469609Y-102557272D01*
X244457326Y-102573107D01*
X244439975Y-102613202D01*
X244434838Y-102623688D01*
X244413802Y-102661951D01*
X244408821Y-102681353D01*
X244402520Y-102699755D01*
X244394561Y-102718146D01*
X244387728Y-102761286D01*
X244385360Y-102772718D01*
X244374500Y-102815021D01*
X244374500Y-102835060D01*
X244372972Y-102854458D01*
X244369840Y-102874240D01*
X244371746Y-102894398D01*
X244373950Y-102917717D01*
X244374500Y-102929387D01*
X244374500Y-103196071D01*
X244354815Y-103263110D01*
X244302011Y-103308865D01*
X244297953Y-103310632D01*
X244265962Y-103323883D01*
X244143132Y-103418132D01*
X244048882Y-103540963D01*
X243989635Y-103683999D01*
X243984058Y-103726358D01*
X243974500Y-103798960D01*
X243974500Y-103803013D01*
X243974500Y-107025500D01*
X243954815Y-107092539D01*
X243902011Y-107138294D01*
X243850500Y-107149500D01*
X242862229Y-107149500D01*
X242795190Y-107129815D01*
X242774548Y-107113181D01*
X240865120Y-105203752D01*
X240831635Y-105142429D01*
X240836619Y-105072737D01*
X240878491Y-105016804D01*
X240941995Y-104992543D01*
X241026602Y-104985141D01*
X241246326Y-104926266D01*
X241452480Y-104830134D01*
X241525472Y-104779025D01*
X240844400Y-104097953D01*
X240925148Y-104085165D01*
X241038045Y-104027641D01*
X241127641Y-103938045D01*
X241185165Y-103825148D01*
X241197953Y-103744400D01*
X241879025Y-104425472D01*
X241930134Y-104352480D01*
X242026266Y-104146326D01*
X242085141Y-103926602D01*
X242104966Y-103700000D01*
X242085141Y-103473397D01*
X242026266Y-103253673D01*
X241930133Y-103047515D01*
X241879025Y-102974526D01*
X241197953Y-103655598D01*
X241185165Y-103574852D01*
X241127641Y-103461955D01*
X241038045Y-103372359D01*
X240925148Y-103314835D01*
X240844400Y-103302046D01*
X241525472Y-102620974D01*
X241525471Y-102620972D01*
X241452484Y-102569866D01*
X241246326Y-102473733D01*
X241026602Y-102414858D01*
X240941993Y-102407456D01*
X240876924Y-102382004D01*
X240835945Y-102325413D01*
X240832067Y-102255651D01*
X240865117Y-102196249D01*
X245485642Y-97575724D01*
X245499260Y-97563954D01*
X245518530Y-97549610D01*
X245550366Y-97511667D01*
X245557680Y-97503688D01*
X245558264Y-97503103D01*
X245561591Y-97499777D01*
X245580833Y-97475439D01*
X245583090Y-97472670D01*
X245597853Y-97455075D01*
X245631302Y-97415214D01*
X245631303Y-97415211D01*
X245632115Y-97414244D01*
X245642573Y-97397827D01*
X245643106Y-97396682D01*
X245643111Y-97396677D01*
X245674833Y-97328646D01*
X245676362Y-97325488D01*
X245710040Y-97258433D01*
X245710040Y-97258432D01*
X245710612Y-97257294D01*
X245717000Y-97238914D01*
X245717255Y-97237676D01*
X245717257Y-97237673D01*
X245732450Y-97164088D01*
X245733182Y-97160785D01*
X245750500Y-97087721D01*
X245750499Y-97087716D01*
X245750793Y-97086480D01*
X245752770Y-97067133D01*
X245752732Y-97065860D01*
X245752734Y-97065856D01*
X245750550Y-96990800D01*
X245750499Y-96987331D01*
X245750499Y-95315196D01*
X245770184Y-95248158D01*
X245786813Y-95227521D01*
X249084437Y-91929897D01*
X249145758Y-91896414D01*
X249215450Y-91901398D01*
X249271383Y-91943270D01*
X249285334Y-91972496D01*
X249286716Y-91971891D01*
X249290842Y-91981299D01*
X249290843Y-91981300D01*
X249384076Y-92193849D01*
X249511021Y-92388153D01*
X249668216Y-92558913D01*
X249851374Y-92701470D01*
X250055497Y-92811936D01*
X250165258Y-92849617D01*
X250275015Y-92887297D01*
X250275017Y-92887297D01*
X250275019Y-92887298D01*
X250503951Y-92925500D01*
X250503952Y-92925500D01*
X250736048Y-92925500D01*
X250736049Y-92925500D01*
X250964981Y-92887298D01*
X251184503Y-92811936D01*
X251388626Y-92701470D01*
X251571784Y-92558913D01*
X251728979Y-92388153D01*
X251786191Y-92300582D01*
X251839337Y-92255226D01*
X251908569Y-92245802D01*
X251971905Y-92275304D01*
X251993807Y-92300581D01*
X252051021Y-92388153D01*
X252208216Y-92558913D01*
X252391374Y-92701470D01*
X252595497Y-92811936D01*
X252705258Y-92849617D01*
X252815015Y-92887297D01*
X252815017Y-92887297D01*
X252815019Y-92887298D01*
X253043951Y-92925500D01*
X253043952Y-92925500D01*
X253276048Y-92925500D01*
X253276049Y-92925500D01*
X253504981Y-92887298D01*
X253724503Y-92811936D01*
X253928626Y-92701470D01*
X254111784Y-92558913D01*
X254120132Y-92549844D01*
X254180016Y-92513853D01*
X254249855Y-92515950D01*
X254307472Y-92555473D01*
X254327544Y-92590491D01*
X254356204Y-92667331D01*
X254442454Y-92782546D01*
X254557669Y-92868796D01*
X254692517Y-92919091D01*
X254752127Y-92925500D01*
X256647872Y-92925499D01*
X256707483Y-92919091D01*
X256842331Y-92868796D01*
X256957546Y-92782546D01*
X257043796Y-92667331D01*
X257094091Y-92532483D01*
X257100500Y-92472873D01*
X257100499Y-90849499D01*
X257120184Y-90782461D01*
X257172987Y-90736706D01*
X257224499Y-90725500D01*
X258151588Y-90725500D01*
X258218627Y-90745185D01*
X258264382Y-90797989D01*
X258274326Y-90867147D01*
X258265144Y-90899310D01*
X258190844Y-91068696D01*
X258133865Y-91293700D01*
X258114699Y-91524999D01*
X258133865Y-91756299D01*
X258133865Y-91756301D01*
X258133866Y-91756305D01*
X258188614Y-91972496D01*
X258190844Y-91981303D01*
X258245167Y-92105145D01*
X258284076Y-92193849D01*
X258411021Y-92388153D01*
X258568216Y-92558913D01*
X258751374Y-92701470D01*
X258955497Y-92811936D01*
X259065257Y-92849617D01*
X259175015Y-92887297D01*
X259175017Y-92887297D01*
X259175019Y-92887298D01*
X259403951Y-92925500D01*
X259403952Y-92925500D01*
X259636048Y-92925500D01*
X259636049Y-92925500D01*
X259864981Y-92887298D01*
X259890576Y-92878510D01*
X259960374Y-92875360D01*
X260018521Y-92908111D01*
X260444196Y-93333787D01*
X260457096Y-93349888D01*
X260508223Y-93397900D01*
X260511020Y-93400611D01*
X260530529Y-93420120D01*
X260533709Y-93422587D01*
X260542571Y-93430155D01*
X260574418Y-93460061D01*
X260574418Y-93460062D01*
X260591970Y-93469711D01*
X260608238Y-93480397D01*
X260624064Y-93492673D01*
X260664146Y-93510017D01*
X260674633Y-93515155D01*
X260712907Y-93536197D01*
X260721410Y-93538379D01*
X260732308Y-93541178D01*
X260750713Y-93547478D01*
X260769104Y-93555437D01*
X260812250Y-93562270D01*
X260823668Y-93564635D01*
X260865981Y-93575500D01*
X260886016Y-93575500D01*
X260905415Y-93577027D01*
X260925196Y-93580160D01*
X260968674Y-93576050D01*
X260980344Y-93575500D01*
X266967256Y-93575500D01*
X266987762Y-93577764D01*
X266990665Y-93577672D01*
X266990667Y-93577673D01*
X267057872Y-93575561D01*
X267061768Y-93575500D01*
X267085448Y-93575500D01*
X267089350Y-93575500D01*
X267093313Y-93574999D01*
X267104962Y-93574080D01*
X267148627Y-93572709D01*
X267167859Y-93567120D01*
X267186918Y-93563174D01*
X267194099Y-93562267D01*
X267206792Y-93560664D01*
X267247407Y-93544582D01*
X267258444Y-93540803D01*
X267300390Y-93528618D01*
X267317629Y-93518422D01*
X267335102Y-93509862D01*
X267353732Y-93502486D01*
X267389064Y-93476814D01*
X267398830Y-93470400D01*
X267436418Y-93448171D01*
X267436417Y-93448171D01*
X267436420Y-93448170D01*
X267450585Y-93434004D01*
X267465373Y-93421373D01*
X267481587Y-93409594D01*
X267509438Y-93375926D01*
X267517279Y-93367309D01*
X274447771Y-86436819D01*
X274509095Y-86403334D01*
X274535453Y-86400500D01*
X274594648Y-86400500D01*
X274718083Y-86374262D01*
X274779803Y-86361144D01*
X274952730Y-86284151D01*
X275105871Y-86172888D01*
X275232533Y-86032216D01*
X275327179Y-85868284D01*
X275385674Y-85688256D01*
X275405460Y-85500000D01*
X275385674Y-85311744D01*
X275337179Y-85162493D01*
X275327179Y-85131715D01*
X275232533Y-84967783D01*
X275105870Y-84827110D01*
X275009422Y-84757037D01*
X274966756Y-84701707D01*
X274960777Y-84632094D01*
X274993383Y-84570299D01*
X275008262Y-84557254D01*
X275011906Y-84554541D01*
X275018530Y-84549610D01*
X275050372Y-84511661D01*
X275057686Y-84503681D01*
X275058267Y-84503099D01*
X275061590Y-84499777D01*
X275080837Y-84475433D01*
X275083031Y-84472738D01*
X275131302Y-84415214D01*
X275131303Y-84415210D01*
X275132119Y-84414239D01*
X275142575Y-84397825D01*
X275143109Y-84396679D01*
X275143111Y-84396677D01*
X275174816Y-84328682D01*
X275176369Y-84325475D01*
X275210040Y-84258433D01*
X275210040Y-84258429D01*
X275210610Y-84257296D01*
X275216999Y-84238917D01*
X275219524Y-84226689D01*
X275232431Y-84164171D01*
X275233186Y-84160767D01*
X275250500Y-84087721D01*
X275250500Y-84087717D01*
X275250790Y-84086494D01*
X275252769Y-84067123D01*
X275252732Y-84065859D01*
X275252733Y-84065856D01*
X275250552Y-83990888D01*
X275250500Y-83987283D01*
X275250500Y-82534321D01*
X275267113Y-82472321D01*
X275327179Y-82368284D01*
X275327178Y-82368284D01*
X275385674Y-82188256D01*
X275405460Y-82000000D01*
X275385674Y-81811744D01*
X275336026Y-81658943D01*
X275327179Y-81631715D01*
X275232533Y-81467783D01*
X275105870Y-81327110D01*
X274952730Y-81215848D01*
X274779802Y-81138855D01*
X274594648Y-81099500D01*
X274594646Y-81099500D01*
X274405354Y-81099500D01*
X274372216Y-81106543D01*
X274302549Y-81101225D01*
X274246816Y-81059087D01*
X274222712Y-80993507D01*
X274224999Y-80960178D01*
X274232431Y-80924184D01*
X274233212Y-80920660D01*
X274243982Y-80875223D01*
X274250500Y-80847721D01*
X274250500Y-80847720D01*
X274250791Y-80846493D01*
X274252770Y-80827121D01*
X274252733Y-80825858D01*
X274252734Y-80825855D01*
X274250552Y-80750868D01*
X274250500Y-80747262D01*
X274250500Y-75534321D01*
X274267113Y-75472321D01*
X274327179Y-75368284D01*
X274341767Y-75323388D01*
X274385674Y-75188256D01*
X274405460Y-75000000D01*
X274385674Y-74811744D01*
X274346134Y-74690052D01*
X274327179Y-74631715D01*
X274232533Y-74467783D01*
X274105870Y-74327110D01*
X273952730Y-74215848D01*
X273779802Y-74138855D01*
X273594648Y-74099500D01*
X273594646Y-74099500D01*
X273405354Y-74099500D01*
X273405352Y-74099500D01*
X273220197Y-74138855D01*
X273047269Y-74215848D01*
X272894129Y-74327110D01*
X272767466Y-74467783D01*
X272672820Y-74631715D01*
X272614326Y-74811742D01*
X272594540Y-75000000D01*
X272614326Y-75188257D01*
X272672820Y-75368284D01*
X272732887Y-75472321D01*
X272749500Y-75534321D01*
X272749500Y-75642569D01*
X272729815Y-75709608D01*
X272677011Y-75755363D01*
X272610925Y-75765709D01*
X272572401Y-75761149D01*
X271947546Y-76386004D01*
X271888610Y-76273712D01*
X271774275Y-76144654D01*
X271632377Y-76046709D01*
X271594212Y-76032235D01*
X272218849Y-75407597D01*
X272012693Y-75281263D01*
X271785107Y-75186993D01*
X271545578Y-75129488D01*
X271299999Y-75110161D01*
X271054421Y-75129488D01*
X270814892Y-75186993D01*
X270587306Y-75281264D01*
X270381149Y-75407597D01*
X271005787Y-76032234D01*
X270967623Y-76046709D01*
X270825725Y-76144654D01*
X270711390Y-76273712D01*
X270652453Y-76386005D01*
X270027597Y-75761149D01*
X269901264Y-75967306D01*
X269806993Y-76194892D01*
X269749488Y-76434421D01*
X269730161Y-76679999D01*
X269749488Y-76925578D01*
X269806993Y-77165107D01*
X269901263Y-77392693D01*
X270027597Y-77598849D01*
X270652452Y-76973993D01*
X270711390Y-77086288D01*
X270825725Y-77215346D01*
X270967623Y-77313291D01*
X271005787Y-77327764D01*
X270381149Y-77952401D01*
X270587306Y-78078736D01*
X270702471Y-78126439D01*
X270756874Y-78170280D01*
X270778939Y-78236574D01*
X270761660Y-78304274D01*
X270710522Y-78351884D01*
X270655018Y-78365000D01*
X270290482Y-78365000D01*
X270283867Y-78365354D01*
X270227628Y-78371400D01*
X270092910Y-78421647D01*
X269977811Y-78507811D01*
X269891647Y-78622910D01*
X269841400Y-78757628D01*
X269835354Y-78813867D01*
X269835000Y-78820481D01*
X269835000Y-79530000D01*
X270743480Y-79530000D01*
X270715245Y-79590002D01*
X270686365Y-79741393D01*
X270696043Y-79895211D01*
X270739838Y-80030000D01*
X269835000Y-80030000D01*
X269822491Y-80042508D01*
X269815315Y-80066949D01*
X269762511Y-80112704D01*
X269693353Y-80122648D01*
X269629797Y-80093623D01*
X269605462Y-80065008D01*
X269592050Y-80043264D01*
X269579750Y-80028166D01*
X269524290Y-79975842D01*
X269521703Y-79973329D01*
X266485769Y-76937395D01*
X266452284Y-76876072D01*
X266457268Y-76806380D01*
X266499140Y-76750447D01*
X266500454Y-76749477D01*
X266605871Y-76672888D01*
X266732533Y-76532216D01*
X266827179Y-76368284D01*
X266885674Y-76188256D01*
X266903321Y-76020344D01*
X266929904Y-75955734D01*
X266938951Y-75945638D01*
X267036098Y-75848491D01*
X267097419Y-75815008D01*
X267167111Y-75819992D01*
X267174187Y-75822883D01*
X267226670Y-75846251D01*
X267232498Y-75848846D01*
X267417651Y-75888201D01*
X267417653Y-75888201D01*
X267606947Y-75888201D01*
X267730382Y-75861963D01*
X267792102Y-75848845D01*
X267965029Y-75771852D01*
X267973484Y-75765709D01*
X268118169Y-75660590D01*
X268244832Y-75519917D01*
X268339478Y-75355985D01*
X268393976Y-75188257D01*
X268397973Y-75175957D01*
X268417759Y-74987701D01*
X268397973Y-74799445D01*
X268361610Y-74687533D01*
X268339478Y-74619416D01*
X268244832Y-74455484D01*
X268118169Y-74314811D01*
X267965029Y-74203549D01*
X267792101Y-74126556D01*
X267606947Y-74087201D01*
X267606945Y-74087201D01*
X267417653Y-74087201D01*
X267417651Y-74087201D01*
X267232496Y-74126556D01*
X267059568Y-74203549D01*
X266906427Y-74314812D01*
X266867032Y-74358564D01*
X266820545Y-74390877D01*
X266814907Y-74393110D01*
X266803844Y-74396898D01*
X266778857Y-74404159D01*
X266761906Y-74409084D01*
X266744664Y-74419280D01*
X266727203Y-74427834D01*
X266708566Y-74435213D01*
X266673230Y-74460886D01*
X266663473Y-74467296D01*
X266625879Y-74489530D01*
X266611712Y-74503697D01*
X266596923Y-74516327D01*
X266580712Y-74528105D01*
X266552871Y-74561759D01*
X266545010Y-74570398D01*
X266052228Y-75063181D01*
X265990905Y-75096666D01*
X265964547Y-75099500D01*
X265939500Y-75099500D01*
X265872461Y-75079815D01*
X265826706Y-75027011D01*
X265815500Y-74975500D01*
X265815500Y-73336774D01*
X269795308Y-73336774D01*
X269798515Y-73366780D01*
X269821519Y-73582038D01*
X269887434Y-73819721D01*
X269991288Y-74043452D01*
X270130285Y-74247216D01*
X270300696Y-74425541D01*
X270413834Y-74510487D01*
X270497946Y-74573640D01*
X270716734Y-74687534D01*
X270951187Y-74764165D01*
X271195007Y-74801475D01*
X271441646Y-74798461D01*
X271516618Y-74785106D01*
X271684480Y-74755207D01*
X271724190Y-74741144D01*
X271916992Y-74672869D01*
X272132931Y-74553664D01*
X272165292Y-74528107D01*
X272326501Y-74400793D01*
X272326504Y-74400790D01*
X272492508Y-74218356D01*
X272626486Y-74011256D01*
X272684912Y-73876885D01*
X272724841Y-73785056D01*
X272784930Y-73545828D01*
X272790955Y-73472536D01*
X272805140Y-73300000D01*
X272803344Y-73226474D01*
X272777770Y-73032216D01*
X272771150Y-72981929D01*
X272762000Y-72951814D01*
X272699445Y-72745921D01*
X272590158Y-72524795D01*
X272446223Y-72324488D01*
X272271505Y-72150379D01*
X272245340Y-72131716D01*
X272070700Y-72007146D01*
X272070699Y-72007145D01*
X272070697Y-72007144D01*
X271849191Y-71898630D01*
X271612936Y-71827750D01*
X271490606Y-71812078D01*
X271368279Y-71796408D01*
X271368278Y-71796408D01*
X271121783Y-71805446D01*
X271121784Y-71805447D01*
X270880073Y-71854624D01*
X270649654Y-71942612D01*
X270436687Y-72067060D01*
X270246908Y-72224617D01*
X270085409Y-72411057D01*
X269956533Y-72621364D01*
X269863734Y-72849902D01*
X269809506Y-73090527D01*
X269798342Y-73284151D01*
X269795308Y-73336774D01*
X265815500Y-73336774D01*
X265815500Y-68380000D01*
X269729659Y-68380000D01*
X269748993Y-68625656D01*
X269806516Y-68865261D01*
X269814864Y-68885414D01*
X269900816Y-69092920D01*
X270029567Y-69303023D01*
X270189601Y-69490399D01*
X270376977Y-69650433D01*
X270587080Y-69779184D01*
X270814738Y-69873483D01*
X271054345Y-69931007D01*
X271300000Y-69950341D01*
X271545655Y-69931007D01*
X271785262Y-69873483D01*
X272012920Y-69779184D01*
X272223023Y-69650433D01*
X272410399Y-69490399D01*
X272570433Y-69303023D01*
X272699184Y-69092920D01*
X272793483Y-68865262D01*
X272851007Y-68625655D01*
X272870341Y-68380000D01*
X272851007Y-68134345D01*
X272793483Y-67894738D01*
X272699184Y-67667080D01*
X272570433Y-67456977D01*
X272410399Y-67269601D01*
X272223023Y-67109567D01*
X272012920Y-66980816D01*
X271899091Y-66933666D01*
X271785261Y-66886516D01*
X271545656Y-66828993D01*
X271300000Y-66809659D01*
X271054343Y-66828993D01*
X270814738Y-66886516D01*
X270587078Y-66980817D01*
X270376978Y-67109566D01*
X270189601Y-67269601D01*
X270029566Y-67456978D01*
X269900817Y-67667078D01*
X269806516Y-67894738D01*
X269748993Y-68134343D01*
X269729659Y-68380000D01*
X265815500Y-68380000D01*
X265815500Y-68115711D01*
X265816809Y-68097741D01*
X265816980Y-68096570D01*
X265820289Y-68073983D01*
X265815971Y-68024639D01*
X265815500Y-68013833D01*
X265815500Y-68011907D01*
X265815500Y-68008297D01*
X265811894Y-67977449D01*
X265811537Y-67973962D01*
X265804998Y-67899209D01*
X265804997Y-67899208D01*
X265804890Y-67897975D01*
X265800087Y-67876430D01*
X265800061Y-67876212D01*
X265811667Y-67807313D01*
X265858681Y-67755627D01*
X265904707Y-67738912D01*
X266090503Y-67710908D01*
X266341139Y-67633596D01*
X266577456Y-67519792D01*
X266749167Y-67402720D01*
X265909220Y-66562773D01*
X266002588Y-66524099D01*
X266127925Y-66427925D01*
X266224099Y-66302589D01*
X266262773Y-66209220D01*
X267102124Y-67048571D01*
X267149972Y-66988572D01*
X267281117Y-66761423D01*
X267376940Y-66517270D01*
X267435306Y-66261552D01*
X267454907Y-66000000D01*
X267435306Y-65738447D01*
X267376940Y-65482729D01*
X267281117Y-65238575D01*
X267149972Y-65011426D01*
X267102125Y-64951427D01*
X266262772Y-65790779D01*
X266224099Y-65697412D01*
X266127925Y-65572075D01*
X266002588Y-65475901D01*
X265909219Y-65437226D01*
X266749167Y-64597278D01*
X266577451Y-64480205D01*
X266341139Y-64366403D01*
X266090498Y-64289090D01*
X266071929Y-64286291D01*
X266008573Y-64256833D01*
X265971201Y-64197798D01*
X265971678Y-64127930D01*
X266009853Y-64069412D01*
X266016340Y-64064234D01*
X266018530Y-64062604D01*
X266050366Y-64024661D01*
X266057680Y-64016682D01*
X266058264Y-64016097D01*
X266061591Y-64012771D01*
X266080833Y-63988433D01*
X266083090Y-63985664D01*
X266117109Y-63945122D01*
X266131302Y-63928208D01*
X266131303Y-63928205D01*
X266132115Y-63927238D01*
X266142573Y-63910821D01*
X266143106Y-63909676D01*
X266143111Y-63909671D01*
X266174833Y-63841640D01*
X266176362Y-63838482D01*
X266210040Y-63771427D01*
X266210040Y-63771426D01*
X266210612Y-63770288D01*
X266217000Y-63751908D01*
X266217255Y-63750669D01*
X266217257Y-63750667D01*
X266232447Y-63677097D01*
X266233186Y-63673764D01*
X266250500Y-63600715D01*
X266250500Y-63600710D01*
X266250791Y-63599483D01*
X266252770Y-63580115D01*
X266252733Y-63578853D01*
X266252734Y-63578850D01*
X266250552Y-63503863D01*
X266250500Y-63500257D01*
X266250500Y-59980000D01*
X269730161Y-59980000D01*
X269749488Y-60225578D01*
X269806993Y-60465107D01*
X269901263Y-60692693D01*
X270027597Y-60898849D01*
X270652452Y-60273993D01*
X270711390Y-60386288D01*
X270825725Y-60515346D01*
X270967623Y-60613291D01*
X271005787Y-60627764D01*
X270381149Y-61252401D01*
X270587306Y-61378736D01*
X270702471Y-61426439D01*
X270756874Y-61470280D01*
X270778939Y-61536574D01*
X270761660Y-61604274D01*
X270710522Y-61651884D01*
X270655018Y-61665000D01*
X270290482Y-61665000D01*
X270283867Y-61665354D01*
X270227628Y-61671400D01*
X270092910Y-61721647D01*
X269977811Y-61807811D01*
X269891647Y-61922910D01*
X269841400Y-62057628D01*
X269835354Y-62113867D01*
X269835000Y-62120481D01*
X269835000Y-62830000D01*
X270743480Y-62830000D01*
X270715245Y-62890002D01*
X270686365Y-63041393D01*
X270696043Y-63195211D01*
X270739838Y-63330000D01*
X269835000Y-63330000D01*
X269835000Y-64039518D01*
X269835354Y-64046129D01*
X269841400Y-64102371D01*
X269891647Y-64237089D01*
X269977811Y-64352188D01*
X270092910Y-64438352D01*
X270227628Y-64488599D01*
X270283867Y-64494645D01*
X270290482Y-64495000D01*
X271050000Y-64495000D01*
X271050000Y-63638664D01*
X271073659Y-63651671D01*
X271222939Y-63690000D01*
X271338375Y-63690000D01*
X271452906Y-63675531D01*
X271550000Y-63637088D01*
X271550000Y-64495000D01*
X272309518Y-64495000D01*
X272316132Y-64494645D01*
X272372371Y-64488599D01*
X272507089Y-64438352D01*
X272622188Y-64352188D01*
X272708352Y-64237089D01*
X272758599Y-64102371D01*
X272764646Y-64046129D01*
X272765000Y-64039518D01*
X272765000Y-63330000D01*
X271856520Y-63330000D01*
X271884755Y-63269998D01*
X271913635Y-63118607D01*
X271903957Y-62964789D01*
X271860162Y-62830000D01*
X272765000Y-62830000D01*
X272765000Y-62120481D01*
X272764645Y-62113867D01*
X272758599Y-62057628D01*
X272708352Y-61922910D01*
X272622188Y-61807811D01*
X272507089Y-61721647D01*
X272372371Y-61671400D01*
X272316132Y-61665354D01*
X272309518Y-61665000D01*
X271944982Y-61665000D01*
X271877943Y-61645315D01*
X271832188Y-61592511D01*
X271822244Y-61523353D01*
X271851269Y-61459797D01*
X271897529Y-61426439D01*
X272012693Y-61378736D01*
X272218848Y-61252402D01*
X272218849Y-61252401D01*
X271594212Y-60627765D01*
X271632377Y-60613291D01*
X271774275Y-60515346D01*
X271888610Y-60386288D01*
X271947547Y-60273993D01*
X272572401Y-60898849D01*
X272572402Y-60898848D01*
X272698736Y-60692693D01*
X272793006Y-60465107D01*
X272850511Y-60225578D01*
X272869838Y-59980000D01*
X272850511Y-59734421D01*
X272793006Y-59494892D01*
X272698736Y-59267306D01*
X272572401Y-59061149D01*
X271947546Y-59686004D01*
X271888610Y-59573712D01*
X271774275Y-59444654D01*
X271632377Y-59346709D01*
X271594212Y-59332235D01*
X272218849Y-58707597D01*
X272012693Y-58581263D01*
X271785107Y-58486993D01*
X271545578Y-58429488D01*
X271299999Y-58410161D01*
X271054421Y-58429488D01*
X270814892Y-58486993D01*
X270587306Y-58581264D01*
X270381149Y-58707597D01*
X271005787Y-59332234D01*
X270967623Y-59346709D01*
X270825725Y-59444654D01*
X270711390Y-59573712D01*
X270652453Y-59686004D01*
X270027597Y-59061149D01*
X269901264Y-59267306D01*
X269806993Y-59494892D01*
X269749488Y-59734421D01*
X269730161Y-59980000D01*
X266250500Y-59980000D01*
X266250500Y-55416931D01*
X266270185Y-55349892D01*
X266322989Y-55304137D01*
X266374500Y-55292931D01*
X270182493Y-55292931D01*
X270249532Y-55312616D01*
X270295287Y-55365420D01*
X270305231Y-55434578D01*
X270276206Y-55498134D01*
X270261701Y-55512336D01*
X270246908Y-55524616D01*
X270085409Y-55711057D01*
X269956533Y-55921364D01*
X269863734Y-56149902D01*
X269809506Y-56390527D01*
X269795308Y-56636771D01*
X269821519Y-56882038D01*
X269887434Y-57119721D01*
X269991288Y-57343452D01*
X270130285Y-57547216D01*
X270300696Y-57725541D01*
X270497946Y-57873640D01*
X270549543Y-57900500D01*
X270716734Y-57987534D01*
X270951187Y-58064165D01*
X271195007Y-58101475D01*
X271441646Y-58098461D01*
X271519367Y-58084617D01*
X271684480Y-58055207D01*
X271724190Y-58041144D01*
X271916992Y-57972869D01*
X272132931Y-57853664D01*
X272166552Y-57827112D01*
X272326501Y-57700793D01*
X272351893Y-57672888D01*
X272492508Y-57518356D01*
X272626486Y-57311256D01*
X272679269Y-57189863D01*
X272724841Y-57085056D01*
X272784930Y-56845828D01*
X272794300Y-56731854D01*
X272800939Y-56651089D01*
X272826050Y-56585890D01*
X272882425Y-56544615D01*
X272952166Y-56540372D01*
X273012203Y-56573570D01*
X273587228Y-57148595D01*
X273617478Y-57197958D01*
X273672820Y-57368284D01*
X273767466Y-57532216D01*
X273894129Y-57672889D01*
X274047269Y-57784151D01*
X274220197Y-57861144D01*
X274405352Y-57900500D01*
X274405354Y-57900500D01*
X274594648Y-57900500D01*
X274721013Y-57873640D01*
X274779803Y-57861144D01*
X274952730Y-57784151D01*
X275105870Y-57672889D01*
X275136515Y-57638855D01*
X275232533Y-57532216D01*
X275327179Y-57368284D01*
X275385674Y-57188256D01*
X275405460Y-57000000D01*
X275385674Y-56811744D01*
X275346153Y-56690112D01*
X275327179Y-56631715D01*
X275232533Y-56467783D01*
X275105870Y-56327110D01*
X274952730Y-56215848D01*
X274779803Y-56138855D01*
X274714669Y-56125011D01*
X274653187Y-56091819D01*
X274652769Y-56091402D01*
X272618159Y-54056791D01*
X272606377Y-54043158D01*
X272594349Y-54027002D01*
X272592041Y-54023901D01*
X272554098Y-53992062D01*
X272546122Y-53984754D01*
X272544760Y-53983392D01*
X272542208Y-53980840D01*
X272517875Y-53961600D01*
X272515078Y-53959321D01*
X272456682Y-53910321D01*
X272440252Y-53899853D01*
X272371122Y-53867617D01*
X272367878Y-53866046D01*
X272299737Y-53831825D01*
X272281334Y-53825428D01*
X272206642Y-53810005D01*
X272203123Y-53809225D01*
X272128921Y-53791639D01*
X272109552Y-53789660D01*
X272033300Y-53791879D01*
X272029694Y-53791931D01*
X265862229Y-53791931D01*
X265795190Y-53772246D01*
X265774548Y-53755612D01*
X264905338Y-52886402D01*
X264033297Y-52014360D01*
X264021515Y-52000727D01*
X264007178Y-51981469D01*
X263969235Y-51949631D01*
X263961260Y-51942323D01*
X263959898Y-51940961D01*
X263957346Y-51938409D01*
X263933013Y-51919169D01*
X263930216Y-51916890D01*
X263889062Y-51882358D01*
X263872783Y-51868698D01*
X263872782Y-51868697D01*
X263871820Y-51867890D01*
X263855390Y-51857422D01*
X263786260Y-51825186D01*
X263783015Y-51823614D01*
X263763870Y-51813999D01*
X263712796Y-51766321D01*
X263695606Y-51698599D01*
X263698129Y-51680000D01*
X269729659Y-51680000D01*
X269733819Y-51732853D01*
X269748993Y-51925656D01*
X269806516Y-52165261D01*
X269839591Y-52245109D01*
X269900816Y-52392920D01*
X270029567Y-52603023D01*
X270189601Y-52790399D01*
X270376977Y-52950433D01*
X270587080Y-53079184D01*
X270814738Y-53173483D01*
X271054345Y-53231007D01*
X271300000Y-53250341D01*
X271545655Y-53231007D01*
X271785262Y-53173483D01*
X272012920Y-53079184D01*
X272223023Y-52950433D01*
X272410399Y-52790399D01*
X272570433Y-52603023D01*
X272699184Y-52392920D01*
X272793483Y-52165262D01*
X272851007Y-51925655D01*
X272870341Y-51680000D01*
X272851007Y-51434345D01*
X272793483Y-51194738D01*
X272699184Y-50967080D01*
X272570433Y-50756977D01*
X272410399Y-50569601D01*
X272223023Y-50409567D01*
X272012920Y-50280816D01*
X271898921Y-50233596D01*
X271785261Y-50186516D01*
X271545656Y-50128993D01*
X271300000Y-50109659D01*
X271054343Y-50128993D01*
X270814738Y-50186516D01*
X270620418Y-50267006D01*
X270606206Y-50272894D01*
X270587078Y-50280817D01*
X270376978Y-50409566D01*
X270189601Y-50569601D01*
X270029566Y-50756978D01*
X269900817Y-50967078D01*
X269806516Y-51194738D01*
X269748993Y-51434343D01*
X269734945Y-51612837D01*
X269729659Y-51680000D01*
X263698129Y-51680000D01*
X263698862Y-51674598D01*
X263709810Y-51628411D01*
X263709809Y-51628406D01*
X263710102Y-51627174D01*
X263712079Y-51607824D01*
X263712041Y-51606550D01*
X263712043Y-51606546D01*
X263709862Y-51531578D01*
X263709810Y-51527973D01*
X263709810Y-49462074D01*
X263729495Y-49395035D01*
X263782299Y-49349280D01*
X263851457Y-49339336D01*
X263915013Y-49368361D01*
X263941197Y-49400074D01*
X264050027Y-49588573D01*
X264097873Y-49648571D01*
X264097874Y-49648571D01*
X264937226Y-48809219D01*
X264975901Y-48902588D01*
X265072075Y-49027925D01*
X265197412Y-49124099D01*
X265290779Y-49162772D01*
X264450831Y-50002720D01*
X264622546Y-50119793D01*
X264858860Y-50233596D01*
X265109496Y-50310908D01*
X265368856Y-50350000D01*
X265631144Y-50350000D01*
X265890503Y-50310908D01*
X266141139Y-50233596D01*
X266377456Y-50119792D01*
X266549167Y-50002720D01*
X265709220Y-49162772D01*
X265802588Y-49124099D01*
X265927925Y-49027925D01*
X266024099Y-48902589D01*
X266062773Y-48809220D01*
X266902124Y-49648571D01*
X266949972Y-49588572D01*
X267081117Y-49361423D01*
X267176940Y-49117270D01*
X267235306Y-48861552D01*
X267254907Y-48600000D01*
X267235306Y-48338447D01*
X267176940Y-48082729D01*
X267081117Y-47838575D01*
X266949972Y-47611426D01*
X266902125Y-47551427D01*
X266062772Y-48390779D01*
X266024099Y-48297412D01*
X265927925Y-48172075D01*
X265802588Y-48075901D01*
X265709219Y-48037226D01*
X266549167Y-47197278D01*
X266377451Y-47080205D01*
X266141139Y-46966403D01*
X265890503Y-46889091D01*
X265631144Y-46850000D01*
X265368856Y-46850000D01*
X265109496Y-46889091D01*
X264858860Y-46966403D01*
X264622545Y-47080206D01*
X264450832Y-47197278D01*
X265290780Y-48037226D01*
X265197412Y-48075901D01*
X265072075Y-48172075D01*
X264975901Y-48297411D01*
X264937226Y-48390779D01*
X264097873Y-47551427D01*
X264050028Y-47611424D01*
X263941197Y-47799926D01*
X263890630Y-47848142D01*
X263822023Y-47861364D01*
X263757158Y-47835396D01*
X263716630Y-47778482D01*
X263709810Y-47737926D01*
X263709810Y-44904274D01*
X263709809Y-43279999D01*
X269730161Y-43279999D01*
X269749488Y-43525578D01*
X269806993Y-43765107D01*
X269901263Y-43992693D01*
X270027597Y-44198849D01*
X270652452Y-43573993D01*
X270711390Y-43686288D01*
X270825725Y-43815346D01*
X270967623Y-43913291D01*
X271005787Y-43927764D01*
X270381149Y-44552401D01*
X270587306Y-44678736D01*
X270702471Y-44726439D01*
X270756874Y-44770280D01*
X270778939Y-44836574D01*
X270761660Y-44904274D01*
X270710522Y-44951884D01*
X270655018Y-44965000D01*
X270290482Y-44965000D01*
X270283867Y-44965354D01*
X270227628Y-44971400D01*
X270092910Y-45021647D01*
X269977811Y-45107811D01*
X269891647Y-45222910D01*
X269841400Y-45357628D01*
X269835354Y-45413867D01*
X269835000Y-45420481D01*
X269835000Y-46130000D01*
X270743480Y-46130000D01*
X270715245Y-46190002D01*
X270686365Y-46341393D01*
X270696043Y-46495211D01*
X270739838Y-46630000D01*
X269835000Y-46630000D01*
X269835000Y-47339518D01*
X269835354Y-47346129D01*
X269841400Y-47402371D01*
X269891647Y-47537089D01*
X269977811Y-47652188D01*
X270092910Y-47738352D01*
X270227628Y-47788599D01*
X270283867Y-47794645D01*
X270290482Y-47795000D01*
X271050000Y-47795000D01*
X271050000Y-46938664D01*
X271073659Y-46951671D01*
X271222939Y-46990000D01*
X271338375Y-46990000D01*
X271452906Y-46975531D01*
X271550000Y-46937088D01*
X271550000Y-47795000D01*
X272309518Y-47795000D01*
X272316132Y-47794645D01*
X272372371Y-47788599D01*
X272507089Y-47738352D01*
X272622188Y-47652188D01*
X272708352Y-47537089D01*
X272758599Y-47402371D01*
X272764646Y-47346129D01*
X272765000Y-47339518D01*
X272765000Y-46630000D01*
X271856520Y-46630000D01*
X271884755Y-46569998D01*
X271913635Y-46418607D01*
X271903957Y-46264789D01*
X271860162Y-46130000D01*
X272765000Y-46130000D01*
X272765000Y-45420481D01*
X272764645Y-45413867D01*
X272758599Y-45357628D01*
X272708352Y-45222910D01*
X272622188Y-45107811D01*
X272507089Y-45021647D01*
X272372371Y-44971400D01*
X272316132Y-44965354D01*
X272309518Y-44965000D01*
X271944982Y-44965000D01*
X271877943Y-44945315D01*
X271832188Y-44892511D01*
X271822244Y-44823353D01*
X271851269Y-44759797D01*
X271897529Y-44726439D01*
X272012693Y-44678736D01*
X272218848Y-44552402D01*
X272218849Y-44552401D01*
X271594212Y-43927765D01*
X271632377Y-43913291D01*
X271774275Y-43815346D01*
X271888610Y-43686288D01*
X271947547Y-43573993D01*
X272572401Y-44198849D01*
X272572402Y-44198848D01*
X272698736Y-43992693D01*
X272793006Y-43765107D01*
X272850511Y-43525578D01*
X272869838Y-43280000D01*
X272850511Y-43034421D01*
X272793006Y-42794892D01*
X272698736Y-42567306D01*
X272572401Y-42361149D01*
X271947546Y-42986004D01*
X271888610Y-42873712D01*
X271774275Y-42744654D01*
X271632377Y-42646709D01*
X271594210Y-42632234D01*
X272218849Y-42007597D01*
X272012693Y-41881263D01*
X271785107Y-41786993D01*
X271545578Y-41729488D01*
X271299999Y-41710161D01*
X271054421Y-41729488D01*
X270814892Y-41786993D01*
X270587306Y-41881264D01*
X270381149Y-42007597D01*
X271005787Y-42632234D01*
X270967623Y-42646709D01*
X270825725Y-42744654D01*
X270711390Y-42873712D01*
X270652453Y-42986005D01*
X270027597Y-42361149D01*
X269901264Y-42567306D01*
X269806993Y-42794892D01*
X269749488Y-43034421D01*
X269730161Y-43279999D01*
X263709809Y-43279999D01*
X263709809Y-42060483D01*
X263729494Y-41993448D01*
X263746119Y-41972816D01*
X265958445Y-39760489D01*
X265958455Y-39760482D01*
X265968654Y-39750281D01*
X265968656Y-39750281D01*
X265985640Y-39733295D01*
X265999266Y-39721519D01*
X266018530Y-39707179D01*
X266050379Y-39669221D01*
X266057667Y-39661268D01*
X266785709Y-38933227D01*
X266847032Y-38899742D01*
X266873390Y-38896908D01*
X269933942Y-38896908D01*
X270000981Y-38916593D01*
X270046736Y-38969397D01*
X270056680Y-39038555D01*
X270039670Y-39085696D01*
X269990699Y-39165611D01*
X269956531Y-39221368D01*
X269863734Y-39449902D01*
X269809506Y-39690527D01*
X269795601Y-39931686D01*
X269795308Y-39936774D01*
X269805411Y-40031309D01*
X269821519Y-40182038D01*
X269887434Y-40419721D01*
X269991288Y-40643452D01*
X270130285Y-40847216D01*
X270300696Y-41025541D01*
X270466443Y-41149987D01*
X270497946Y-41173640D01*
X270716734Y-41287534D01*
X270951187Y-41364165D01*
X271195007Y-41401475D01*
X271441646Y-41398461D01*
X271516618Y-41385106D01*
X271684480Y-41355207D01*
X271724190Y-41341144D01*
X271916992Y-41272869D01*
X272132931Y-41153664D01*
X272136640Y-41150735D01*
X272326501Y-41000793D01*
X272326504Y-41000790D01*
X272492508Y-40818356D01*
X272626486Y-40611256D01*
X272684912Y-40476885D01*
X272724841Y-40385056D01*
X272784930Y-40145828D01*
X272785746Y-40135902D01*
X272810855Y-40070701D01*
X272867229Y-40029424D01*
X272936970Y-40025179D01*
X272997010Y-40058378D01*
X273587228Y-40648596D01*
X273617478Y-40697958D01*
X273672821Y-40868285D01*
X273767466Y-41032216D01*
X273894129Y-41172889D01*
X274047269Y-41284151D01*
X274220197Y-41361144D01*
X274405352Y-41400500D01*
X274405354Y-41400500D01*
X274594648Y-41400500D01*
X274718084Y-41374262D01*
X274779803Y-41361144D01*
X274952730Y-41284151D01*
X275034186Y-41224970D01*
X275105870Y-41172889D01*
X275124418Y-41152290D01*
X275232533Y-41032216D01*
X275327179Y-40868284D01*
X275385674Y-40688256D01*
X275405460Y-40500000D01*
X275385674Y-40311744D01*
X275336999Y-40161939D01*
X275327179Y-40131715D01*
X275232533Y-39967783D01*
X275105870Y-39827110D01*
X274952730Y-39715848D01*
X274779803Y-39638855D01*
X274714669Y-39625011D01*
X274653187Y-39591819D01*
X274652769Y-39591402D01*
X272722136Y-37660768D01*
X272710354Y-37647135D01*
X272696017Y-37627877D01*
X272658074Y-37596039D01*
X272650099Y-37588731D01*
X272648737Y-37587369D01*
X272646185Y-37584817D01*
X272621852Y-37565577D01*
X272619055Y-37563298D01*
X272560659Y-37514298D01*
X272544229Y-37503830D01*
X272475099Y-37471594D01*
X272471855Y-37470023D01*
X272403714Y-37435802D01*
X272385311Y-37429405D01*
X272384081Y-37429151D01*
X272310614Y-37413980D01*
X272307100Y-37413202D01*
X272232898Y-37395616D01*
X272213529Y-37393637D01*
X272137277Y-37395856D01*
X272133671Y-37395908D01*
X266574867Y-37395908D01*
X266556897Y-37394599D01*
X266543014Y-37392565D01*
X266533138Y-37391119D01*
X266533137Y-37391119D01*
X266483792Y-37395436D01*
X266472985Y-37395908D01*
X266467452Y-37395908D01*
X266463891Y-37396324D01*
X266463876Y-37396325D01*
X266436662Y-37399506D01*
X266433076Y-37399872D01*
X266385307Y-37404051D01*
X266316807Y-37390284D01*
X266266624Y-37341669D01*
X266250500Y-37280523D01*
X266250500Y-36063705D01*
X266251809Y-36045735D01*
X266251961Y-36044691D01*
X266255289Y-36021977D01*
X266250972Y-35972629D01*
X266250500Y-35961823D01*
X266250500Y-35959901D01*
X266250500Y-35956291D01*
X266246903Y-35925520D01*
X266246536Y-35921929D01*
X266239889Y-35845949D01*
X266235672Y-35826930D01*
X266209592Y-35755274D01*
X266208408Y-35751868D01*
X266184814Y-35680666D01*
X266184812Y-35680663D01*
X266184415Y-35679464D01*
X266175929Y-35661936D01*
X266175237Y-35660884D01*
X266175237Y-35660883D01*
X266134001Y-35598188D01*
X266132086Y-35595181D01*
X266092048Y-35530269D01*
X266079748Y-35515170D01*
X266024272Y-35462831D01*
X266021685Y-35460318D01*
X265541367Y-34980000D01*
X269729659Y-34980000D01*
X269748993Y-35225656D01*
X269806516Y-35465261D01*
X269833444Y-35530269D01*
X269900816Y-35692920D01*
X270029567Y-35903023D01*
X270189601Y-36090399D01*
X270376977Y-36250433D01*
X270587080Y-36379184D01*
X270814738Y-36473483D01*
X271054345Y-36531007D01*
X271300000Y-36550341D01*
X271545655Y-36531007D01*
X271785262Y-36473483D01*
X272012920Y-36379184D01*
X272223023Y-36250433D01*
X272410399Y-36090399D01*
X272570433Y-35903023D01*
X272699184Y-35692920D01*
X272793483Y-35465262D01*
X272851007Y-35225655D01*
X272870341Y-34980000D01*
X272851007Y-34734345D01*
X272793483Y-34494738D01*
X272699184Y-34267080D01*
X272570433Y-34056977D01*
X272410399Y-33869601D01*
X272223023Y-33709567D01*
X272012920Y-33580816D01*
X271899091Y-33533666D01*
X271785261Y-33486516D01*
X271545656Y-33428993D01*
X271300000Y-33409659D01*
X271054343Y-33428993D01*
X270814738Y-33486516D01*
X270587078Y-33580817D01*
X270376978Y-33709566D01*
X270189601Y-33869601D01*
X270029566Y-34056978D01*
X269900817Y-34267078D01*
X269806516Y-34494738D01*
X269748993Y-34734343D01*
X269729659Y-34980000D01*
X265541367Y-34980000D01*
X265050223Y-34488856D01*
X264149045Y-33587677D01*
X264115562Y-33526357D01*
X264120546Y-33456665D01*
X264149044Y-33412321D01*
X264324479Y-33236887D01*
X264385799Y-33203404D01*
X264455491Y-33208388D01*
X264511424Y-33250260D01*
X264519544Y-33262570D01*
X264650027Y-33488573D01*
X264697873Y-33548571D01*
X265537226Y-32709219D01*
X265575901Y-32802588D01*
X265672075Y-32927925D01*
X265797412Y-33024099D01*
X265890779Y-33062772D01*
X265050831Y-33902720D01*
X265222546Y-34019793D01*
X265458860Y-34133596D01*
X265709496Y-34210908D01*
X265968856Y-34250000D01*
X266231144Y-34250000D01*
X266490503Y-34210908D01*
X266741139Y-34133596D01*
X266977456Y-34019792D01*
X267149167Y-33902720D01*
X266309220Y-33062772D01*
X266402588Y-33024099D01*
X266527925Y-32927925D01*
X266624099Y-32802589D01*
X266662773Y-32709219D01*
X267502124Y-33548571D01*
X267549972Y-33488572D01*
X267681117Y-33261423D01*
X267776940Y-33017270D01*
X267835306Y-32761552D01*
X267854907Y-32500000D01*
X267835306Y-32238447D01*
X267776940Y-31982729D01*
X267681117Y-31738575D01*
X267549972Y-31511426D01*
X267502125Y-31451427D01*
X266662772Y-32290779D01*
X266624099Y-32197412D01*
X266527925Y-32072075D01*
X266402588Y-31975901D01*
X266309219Y-31937226D01*
X267149167Y-31097278D01*
X266977451Y-30980205D01*
X266741139Y-30866403D01*
X266490503Y-30789091D01*
X266231144Y-30750000D01*
X265968856Y-30750000D01*
X265709496Y-30789091D01*
X265458860Y-30866403D01*
X265222546Y-30980206D01*
X265005834Y-31127957D01*
X264958840Y-31171561D01*
X264896307Y-31202729D01*
X264826851Y-31195142D01*
X264772522Y-31151208D01*
X264750571Y-31084876D01*
X264750499Y-31080710D01*
X264750499Y-26580000D01*
X269730161Y-26580000D01*
X269749488Y-26825578D01*
X269806993Y-27065107D01*
X269901263Y-27292693D01*
X270027597Y-27498849D01*
X270652452Y-26873993D01*
X270711390Y-26986288D01*
X270825725Y-27115346D01*
X270967623Y-27213291D01*
X271005787Y-27227764D01*
X270381149Y-27852401D01*
X270587306Y-27978736D01*
X270702471Y-28026439D01*
X270756874Y-28070280D01*
X270778939Y-28136574D01*
X270761660Y-28204274D01*
X270710522Y-28251884D01*
X270655018Y-28265000D01*
X270290482Y-28265000D01*
X270283867Y-28265354D01*
X270227628Y-28271400D01*
X270092910Y-28321647D01*
X269977811Y-28407811D01*
X269891647Y-28522910D01*
X269841400Y-28657628D01*
X269835354Y-28713867D01*
X269835000Y-28720481D01*
X269835000Y-29430000D01*
X270743480Y-29430000D01*
X270715245Y-29490002D01*
X270686365Y-29641393D01*
X270696043Y-29795211D01*
X270739838Y-29930000D01*
X269835000Y-29930000D01*
X269835000Y-30639518D01*
X269835354Y-30646132D01*
X269841400Y-30702371D01*
X269891647Y-30837089D01*
X269977811Y-30952188D01*
X270092910Y-31038352D01*
X270227628Y-31088599D01*
X270283867Y-31094645D01*
X270290482Y-31095000D01*
X271050000Y-31095000D01*
X271050000Y-30238664D01*
X271073659Y-30251671D01*
X271222939Y-30290000D01*
X271338375Y-30290000D01*
X271452906Y-30275531D01*
X271550000Y-30237088D01*
X271550000Y-31095000D01*
X272309518Y-31095000D01*
X272316132Y-31094645D01*
X272372371Y-31088599D01*
X272507089Y-31038352D01*
X272622188Y-30952188D01*
X272708352Y-30837089D01*
X272758599Y-30702371D01*
X272764645Y-30646132D01*
X272765000Y-30639518D01*
X272765000Y-29930000D01*
X271856520Y-29930000D01*
X271884755Y-29869998D01*
X271913635Y-29718607D01*
X271903957Y-29564789D01*
X271860162Y-29430000D01*
X272765000Y-29430000D01*
X272765000Y-28720481D01*
X272764645Y-28713867D01*
X272758599Y-28657628D01*
X272708352Y-28522910D01*
X272622188Y-28407811D01*
X272507089Y-28321647D01*
X272372371Y-28271400D01*
X272316132Y-28265354D01*
X272309518Y-28265000D01*
X271944982Y-28265000D01*
X271877943Y-28245315D01*
X271832188Y-28192511D01*
X271822244Y-28123353D01*
X271851269Y-28059797D01*
X271897529Y-28026439D01*
X272012693Y-27978736D01*
X272218848Y-27852402D01*
X272218849Y-27852401D01*
X271594212Y-27227765D01*
X271632377Y-27213291D01*
X271774275Y-27115346D01*
X271888610Y-26986288D01*
X271947547Y-26873994D01*
X272572401Y-27498849D01*
X272572402Y-27498848D01*
X272698736Y-27292693D01*
X272793006Y-27065107D01*
X272850511Y-26825578D01*
X272869838Y-26580000D01*
X272850511Y-26334421D01*
X272793006Y-26094892D01*
X272698736Y-25867306D01*
X272572401Y-25661149D01*
X271947546Y-26286004D01*
X271888610Y-26173712D01*
X271774275Y-26044654D01*
X271632377Y-25946709D01*
X271594210Y-25932234D01*
X272218849Y-25307597D01*
X272012693Y-25181263D01*
X271785107Y-25086993D01*
X271545578Y-25029488D01*
X271299999Y-25010161D01*
X271054421Y-25029488D01*
X270814892Y-25086993D01*
X270587306Y-25181264D01*
X270381149Y-25307597D01*
X271005787Y-25932234D01*
X270967623Y-25946709D01*
X270825725Y-26044654D01*
X270711390Y-26173712D01*
X270652453Y-26286005D01*
X270027597Y-25661149D01*
X269901264Y-25867306D01*
X269806993Y-26094892D01*
X269749488Y-26334421D01*
X269730161Y-26580000D01*
X264750499Y-26580000D01*
X264750499Y-24319797D01*
X264770184Y-24252759D01*
X264786818Y-24232117D01*
X265154116Y-23864819D01*
X265523445Y-23495489D01*
X265523455Y-23495482D01*
X265533654Y-23485281D01*
X265533656Y-23485281D01*
X265550640Y-23468295D01*
X265564266Y-23456519D01*
X265583530Y-23442179D01*
X265615379Y-23404221D01*
X265622667Y-23396268D01*
X266785709Y-22233226D01*
X266847032Y-22199742D01*
X266873390Y-22196908D01*
X269933942Y-22196908D01*
X270000981Y-22216593D01*
X270046736Y-22269397D01*
X270056680Y-22338555D01*
X270039670Y-22385696D01*
X269996410Y-22456291D01*
X269956531Y-22521368D01*
X269863734Y-22749902D01*
X269809506Y-22990527D01*
X269795308Y-23236771D01*
X269821519Y-23482038D01*
X269887434Y-23719721D01*
X269991288Y-23943452D01*
X270130285Y-24147216D01*
X270300696Y-24325541D01*
X270357625Y-24368284D01*
X270497946Y-24473640D01*
X270716734Y-24587534D01*
X270951187Y-24664165D01*
X271195007Y-24701475D01*
X271441646Y-24698461D01*
X271516618Y-24685106D01*
X271684480Y-24655207D01*
X271730655Y-24638855D01*
X271916992Y-24572869D01*
X272132931Y-24453664D01*
X272132935Y-24453661D01*
X272326501Y-24300793D01*
X272370209Y-24252759D01*
X272421863Y-24195992D01*
X272481539Y-24159658D01*
X272551388Y-24161354D01*
X272609231Y-24200544D01*
X272631506Y-24241130D01*
X272672820Y-24368284D01*
X272767466Y-24532216D01*
X272894129Y-24672889D01*
X273047269Y-24784151D01*
X273220197Y-24861144D01*
X273405352Y-24900500D01*
X273405354Y-24900500D01*
X273594648Y-24900500D01*
X273718083Y-24874262D01*
X273779803Y-24861144D01*
X273952730Y-24784151D01*
X274046740Y-24715849D01*
X274105870Y-24672889D01*
X274136515Y-24638855D01*
X274232533Y-24532216D01*
X274327179Y-24368284D01*
X274385674Y-24188256D01*
X274405460Y-24000000D01*
X274385674Y-23811744D01*
X274355332Y-23718363D01*
X274327179Y-23631715D01*
X274267113Y-23527677D01*
X274250500Y-23465677D01*
X274250500Y-22563705D01*
X274251809Y-22545735D01*
X274251980Y-22544564D01*
X274255289Y-22521977D01*
X274250971Y-22472633D01*
X274250500Y-22461827D01*
X274250500Y-22459901D01*
X274250500Y-22456291D01*
X274246894Y-22425443D01*
X274246537Y-22421956D01*
X274239998Y-22347203D01*
X274239888Y-22345943D01*
X274235674Y-22326935D01*
X274229894Y-22311055D01*
X274209567Y-22255207D01*
X274208399Y-22251844D01*
X274184814Y-22180666D01*
X274184811Y-22180662D01*
X274184416Y-22179468D01*
X274175929Y-22161936D01*
X274175237Y-22160884D01*
X274175237Y-22160883D01*
X274133999Y-22098184D01*
X274132087Y-22095181D01*
X274092050Y-22030270D01*
X274079750Y-22015172D01*
X274024290Y-21962848D01*
X274021703Y-21960335D01*
X273022136Y-20960768D01*
X273010354Y-20947135D01*
X272996017Y-20927877D01*
X272958074Y-20896039D01*
X272950099Y-20888731D01*
X272948737Y-20887369D01*
X272946185Y-20884817D01*
X272921852Y-20865577D01*
X272919055Y-20863298D01*
X272860659Y-20814298D01*
X272844229Y-20803830D01*
X272775099Y-20771594D01*
X272771855Y-20770023D01*
X272703714Y-20735802D01*
X272685311Y-20729405D01*
X272610619Y-20713982D01*
X272607100Y-20713202D01*
X272532898Y-20695616D01*
X272513529Y-20693637D01*
X272437277Y-20695856D01*
X272433671Y-20695908D01*
X266574867Y-20695908D01*
X266556897Y-20694599D01*
X266543014Y-20692565D01*
X266533138Y-20691119D01*
X266533137Y-20691119D01*
X266483795Y-20695436D01*
X266472988Y-20695908D01*
X266467452Y-20695908D01*
X266463891Y-20696324D01*
X266463876Y-20696325D01*
X266436645Y-20699508D01*
X266433061Y-20699874D01*
X266357111Y-20706519D01*
X266338087Y-20710736D01*
X266266412Y-20736823D01*
X266263010Y-20738005D01*
X266190631Y-20761990D01*
X266173090Y-20770482D01*
X266109358Y-20812399D01*
X266106317Y-20814336D01*
X266041441Y-20854351D01*
X266024120Y-20868462D01*
X266013366Y-20875537D01*
X266011988Y-20873443D01*
X265969365Y-20898352D01*
X265899558Y-20895393D01*
X265842432Y-20855164D01*
X265816124Y-20790436D01*
X265815499Y-20778002D01*
X265815499Y-20627002D01*
X265815499Y-20128691D01*
X265816809Y-20110732D01*
X265820289Y-20086976D01*
X265815972Y-20037629D01*
X265815500Y-20026823D01*
X265815500Y-20024901D01*
X265815500Y-20021291D01*
X265811903Y-19990520D01*
X265811536Y-19986929D01*
X265804889Y-19910949D01*
X265800672Y-19891930D01*
X265774592Y-19820274D01*
X265773408Y-19816868D01*
X265749417Y-19744468D01*
X265740929Y-19726936D01*
X265740237Y-19725884D01*
X265740237Y-19725883D01*
X265698999Y-19663184D01*
X265697087Y-19660181D01*
X265657050Y-19595270D01*
X265644750Y-19580172D01*
X265589290Y-19527848D01*
X265586703Y-19525335D01*
X264580097Y-18518729D01*
X264546612Y-18457406D01*
X264551596Y-18387714D01*
X264593468Y-18331781D01*
X264658932Y-18307364D01*
X264721580Y-18319328D01*
X264958860Y-18433596D01*
X265209496Y-18510908D01*
X265468856Y-18550000D01*
X265731144Y-18550000D01*
X265990503Y-18510908D01*
X266241139Y-18433596D01*
X266477456Y-18319792D01*
X266535819Y-18280000D01*
X269729659Y-18280000D01*
X269748993Y-18525656D01*
X269806516Y-18765261D01*
X269823988Y-18807441D01*
X269900816Y-18992920D01*
X270029567Y-19203023D01*
X270189601Y-19390399D01*
X270376977Y-19550433D01*
X270587080Y-19679184D01*
X270814738Y-19773483D01*
X271054345Y-19831007D01*
X271300000Y-19850341D01*
X271545655Y-19831007D01*
X271785262Y-19773483D01*
X272012920Y-19679184D01*
X272223023Y-19550433D01*
X272410399Y-19390399D01*
X272570433Y-19203023D01*
X272699184Y-18992920D01*
X272793483Y-18765262D01*
X272851007Y-18525655D01*
X272870341Y-18280000D01*
X272851007Y-18034345D01*
X272793483Y-17794738D01*
X272699184Y-17567080D01*
X272570433Y-17356977D01*
X272410399Y-17169601D01*
X272223023Y-17009567D01*
X272012920Y-16880816D01*
X271899091Y-16833666D01*
X271785261Y-16786516D01*
X271545656Y-16728993D01*
X271300000Y-16709659D01*
X271054343Y-16728993D01*
X270814738Y-16786516D01*
X270587078Y-16880817D01*
X270376978Y-17009566D01*
X270189601Y-17169601D01*
X270029566Y-17356978D01*
X269900817Y-17567078D01*
X269806516Y-17794738D01*
X269748993Y-18034343D01*
X269729659Y-18280000D01*
X266535819Y-18280000D01*
X266649167Y-18202720D01*
X265809220Y-17362773D01*
X265902588Y-17324099D01*
X266027925Y-17227925D01*
X266124099Y-17102589D01*
X266162773Y-17009220D01*
X267002124Y-17848571D01*
X267049972Y-17788572D01*
X267181117Y-17561423D01*
X267276940Y-17317270D01*
X267335306Y-17061552D01*
X267354907Y-16800000D01*
X267335306Y-16538447D01*
X267276940Y-16282729D01*
X267181117Y-16038575D01*
X267049972Y-15811426D01*
X267002125Y-15751427D01*
X266162772Y-16590779D01*
X266124099Y-16497412D01*
X266027925Y-16372075D01*
X265902588Y-16275901D01*
X265809219Y-16237226D01*
X266649167Y-15397278D01*
X266477451Y-15280205D01*
X266241139Y-15166403D01*
X265990503Y-15089091D01*
X265731144Y-15050000D01*
X265468856Y-15050000D01*
X265209496Y-15089091D01*
X264958860Y-15166403D01*
X264722545Y-15280206D01*
X264550832Y-15397278D01*
X265390780Y-16237226D01*
X265297412Y-16275901D01*
X265172075Y-16372075D01*
X265075901Y-16497411D01*
X265037226Y-16590780D01*
X264197874Y-15751428D01*
X264150026Y-15811428D01*
X264018882Y-16038576D01*
X263923059Y-16282729D01*
X263864693Y-16538447D01*
X263845092Y-16800000D01*
X263864693Y-17061552D01*
X263923059Y-17317270D01*
X264018882Y-17561424D01*
X264089015Y-17682898D01*
X264105488Y-17750798D01*
X264082635Y-17816825D01*
X264027714Y-17860016D01*
X263958161Y-17866657D01*
X263896058Y-17834641D01*
X263893947Y-17832579D01*
X261073549Y-15012181D01*
X261040064Y-14950858D01*
X261045048Y-14881166D01*
X261086920Y-14825233D01*
X261152384Y-14800816D01*
X261161230Y-14800500D01*
X275993912Y-14800500D01*
X276006059Y-14801096D01*
G37*
%TD.AperFunction*%
%TA.AperFunction,Conductor*%
G36*
X237105702Y-104813181D02*
G01*
X237123765Y-104832582D01*
X237142452Y-104857544D01*
X237142453Y-104857544D01*
X237142454Y-104857546D01*
X237257669Y-104943796D01*
X237392517Y-104994091D01*
X237452127Y-105000500D01*
X238487769Y-105000499D01*
X238554808Y-105020183D01*
X238575450Y-105036818D01*
X241924269Y-108385637D01*
X241936051Y-108399270D01*
X241950390Y-108418531D01*
X241988338Y-108450373D01*
X241996313Y-108457681D01*
X242000223Y-108461591D01*
X242024556Y-108480830D01*
X242027335Y-108483095D01*
X242085752Y-108532113D01*
X242102179Y-108542578D01*
X242171320Y-108574819D01*
X242174567Y-108576391D01*
X242242699Y-108610609D01*
X242261087Y-108617000D01*
X242262323Y-108617255D01*
X242262327Y-108617257D01*
X242335895Y-108632447D01*
X242339242Y-108633189D01*
X242412279Y-108650500D01*
X242412281Y-108650500D01*
X242413509Y-108650791D01*
X242432878Y-108652770D01*
X242434140Y-108652733D01*
X242434144Y-108652734D01*
X242506533Y-108650627D01*
X242509131Y-108650552D01*
X242512737Y-108650500D01*
X245037770Y-108650500D01*
X245104809Y-108670185D01*
X245125451Y-108686819D01*
X248924267Y-112485634D01*
X248936042Y-112499258D01*
X248937669Y-112501443D01*
X248961919Y-112566969D01*
X248946893Y-112635204D01*
X248897362Y-112684483D01*
X248838213Y-112699500D01*
X247327295Y-112699500D01*
X247260256Y-112679815D01*
X247214501Y-112627011D01*
X247210768Y-112617896D01*
X247210486Y-112617122D01*
X247209587Y-112614650D01*
X247208408Y-112611258D01*
X247201629Y-112590801D01*
X247184814Y-112540056D01*
X247184812Y-112540053D01*
X247184415Y-112538854D01*
X247175929Y-112521326D01*
X247175237Y-112520274D01*
X247175237Y-112520273D01*
X247134001Y-112457578D01*
X247132086Y-112454571D01*
X247127105Y-112446496D01*
X247092712Y-112390735D01*
X247092711Y-112390734D01*
X247092048Y-112389659D01*
X247079748Y-112374560D01*
X247024272Y-112322221D01*
X247021685Y-112319708D01*
X244883115Y-110181137D01*
X244852865Y-110131773D01*
X244838906Y-110088812D01*
X244744260Y-109924879D01*
X244617597Y-109784206D01*
X244464457Y-109672944D01*
X244291529Y-109595951D01*
X244106375Y-109556596D01*
X244106373Y-109556596D01*
X243917081Y-109556596D01*
X243917079Y-109556596D01*
X243731924Y-109595951D01*
X243558996Y-109672944D01*
X243405856Y-109784206D01*
X243279193Y-109924879D01*
X243184547Y-110088811D01*
X243126053Y-110268838D01*
X243106267Y-110457096D01*
X243126053Y-110645355D01*
X243130540Y-110659162D01*
X243132535Y-110729003D01*
X243096454Y-110788835D01*
X243065015Y-110809861D01*
X242937263Y-110869433D01*
X242750859Y-110999953D01*
X242589953Y-111160859D01*
X242459433Y-111347263D01*
X242359110Y-111562404D01*
X242312937Y-111614843D01*
X242245743Y-111633994D01*
X242178862Y-111613778D01*
X242159047Y-111597679D01*
X242018528Y-111457160D01*
X241985043Y-111395837D01*
X241990027Y-111326145D01*
X241993817Y-111317095D01*
X242026739Y-111246496D01*
X242085635Y-111026692D01*
X242105468Y-110800000D01*
X242103128Y-110773259D01*
X242085635Y-110573310D01*
X242085635Y-110573308D01*
X242026739Y-110353504D01*
X241930568Y-110147266D01*
X241889639Y-110088812D01*
X241800046Y-109960859D01*
X241639140Y-109799953D01*
X241452735Y-109669432D01*
X241246497Y-109573261D01*
X241026689Y-109514364D01*
X240800000Y-109494531D01*
X240573310Y-109514364D01*
X240353502Y-109573261D01*
X240147264Y-109669432D01*
X239960863Y-109799950D01*
X239803519Y-109957294D01*
X239742196Y-109990778D01*
X239672504Y-109985794D01*
X239616571Y-109943922D01*
X239601737Y-109906212D01*
X239599041Y-109907218D01*
X239543352Y-109757910D01*
X239457188Y-109642811D01*
X239342089Y-109556647D01*
X239207371Y-109506400D01*
X239151132Y-109500354D01*
X239144518Y-109500000D01*
X238550000Y-109500000D01*
X238549999Y-110484313D01*
X238538045Y-110472359D01*
X238425148Y-110414835D01*
X238331481Y-110400000D01*
X238268519Y-110400000D01*
X238174852Y-110414835D01*
X238061955Y-110472359D01*
X238050000Y-110484314D01*
X238050000Y-109500000D01*
X237455482Y-109500000D01*
X237448867Y-109500354D01*
X237392628Y-109506400D01*
X237257910Y-109556647D01*
X237142808Y-109642812D01*
X237123764Y-109668252D01*
X237067829Y-109710122D01*
X236998138Y-109715104D01*
X236936815Y-109681618D01*
X236903332Y-109620294D01*
X236900500Y-109593948D01*
X236900500Y-104906890D01*
X236920184Y-104839855D01*
X236972988Y-104794100D01*
X237042146Y-104784156D01*
X237105702Y-104813181D01*
G37*
%TD.AperFunction*%
%TA.AperFunction,Conductor*%
G36*
X250039524Y-100645185D02*
G01*
X250085279Y-100697989D01*
X250095804Y-100736534D01*
X250109652Y-100868284D01*
X250114326Y-100912757D01*
X250172820Y-101092784D01*
X250267466Y-101256716D01*
X250342649Y-101340215D01*
X250372879Y-101403207D01*
X250374499Y-101423187D01*
X250374500Y-103125500D01*
X250354815Y-103192539D01*
X250302012Y-103238294D01*
X250250500Y-103249500D01*
X249873999Y-103249500D01*
X249806960Y-103229815D01*
X249761205Y-103177011D01*
X249749999Y-103125500D01*
X249749999Y-102894398D01*
X249749469Y-102886321D01*
X249734428Y-102772063D01*
X249673466Y-102624888D01*
X249576491Y-102498508D01*
X249450111Y-102401532D01*
X249302937Y-102340572D01*
X249188674Y-102325529D01*
X249180604Y-102325000D01*
X247749999Y-102325000D01*
X247750000Y-103325000D01*
X247250000Y-103325000D01*
X247250000Y-102325000D01*
X246752995Y-102325000D01*
X246685956Y-102305315D01*
X246640201Y-102252511D01*
X246630257Y-102183353D01*
X246659282Y-102119797D01*
X246665294Y-102113339D01*
X248116815Y-100661819D01*
X248178139Y-100628334D01*
X248204497Y-100625500D01*
X249972485Y-100625500D01*
X250039524Y-100645185D01*
G37*
%TD.AperFunction*%
%TA.AperFunction,Conductor*%
G36*
X254571208Y-100645185D02*
G01*
X254616963Y-100697989D01*
X254626907Y-100767147D01*
X254622100Y-100787817D01*
X254614326Y-100811740D01*
X254594540Y-101000000D01*
X254614326Y-101188257D01*
X254672820Y-101368284D01*
X254767466Y-101532216D01*
X254894129Y-101672889D01*
X255047269Y-101784151D01*
X255220197Y-101861144D01*
X255405352Y-101900500D01*
X255405354Y-101900500D01*
X255464548Y-101900500D01*
X255531587Y-101920185D01*
X255552229Y-101936819D01*
X263028181Y-109412771D01*
X263061666Y-109474094D01*
X263064500Y-109500452D01*
X263064499Y-110785812D01*
X263044814Y-110852852D01*
X263011622Y-110887387D01*
X262850860Y-110999952D01*
X262689953Y-111160859D01*
X262559431Y-111347266D01*
X262557381Y-111351664D01*
X262511208Y-111404102D01*
X262444014Y-111423253D01*
X262377133Y-111403036D01*
X262332619Y-111351664D01*
X262330568Y-111347266D01*
X262200046Y-111160859D01*
X262039140Y-110999953D01*
X261852735Y-110869432D01*
X261646497Y-110773261D01*
X261426689Y-110714364D01*
X261200000Y-110694531D01*
X260973310Y-110714364D01*
X260753502Y-110773261D01*
X260547264Y-110869432D01*
X260360859Y-110999953D01*
X260199953Y-111160859D01*
X260069432Y-111347264D01*
X259973261Y-111553502D01*
X259914364Y-111773310D01*
X259894531Y-112000000D01*
X259909129Y-112166860D01*
X259895362Y-112235360D01*
X259873282Y-112265348D01*
X259475451Y-112663181D01*
X259414128Y-112696666D01*
X259387770Y-112699500D01*
X254883402Y-112699500D01*
X254816363Y-112679815D01*
X254770608Y-112627011D01*
X254760664Y-112557853D01*
X254771020Y-112523095D01*
X254773149Y-112518530D01*
X254806739Y-112446496D01*
X254865635Y-112226692D01*
X254885468Y-112000000D01*
X254865635Y-111773308D01*
X254806739Y-111553504D01*
X254710568Y-111347266D01*
X254693971Y-111323562D01*
X254580046Y-111160859D01*
X254419140Y-110999953D01*
X254232735Y-110869432D01*
X254026497Y-110773261D01*
X253806689Y-110714364D01*
X253579999Y-110694531D01*
X253353310Y-110714364D01*
X253133502Y-110773261D01*
X252927264Y-110869432D01*
X252740859Y-110999953D01*
X252579953Y-111160859D01*
X252496575Y-111279937D01*
X252441998Y-111323562D01*
X252372500Y-111330756D01*
X252310145Y-111299233D01*
X252293425Y-111279937D01*
X252210047Y-111160860D01*
X252049139Y-110999953D01*
X252013374Y-110974909D01*
X251969751Y-110920331D01*
X251960500Y-110873336D01*
X251960500Y-110544432D01*
X251960500Y-110152225D01*
X251980183Y-110085190D01*
X251996809Y-110064558D01*
X253652771Y-108408595D01*
X253714092Y-108375112D01*
X253714488Y-108375026D01*
X253779803Y-108361144D01*
X253779804Y-108361143D01*
X253779806Y-108361143D01*
X253952730Y-108284151D01*
X254105870Y-108172889D01*
X254232533Y-108032216D01*
X254327179Y-107868284D01*
X254355552Y-107780961D01*
X254385674Y-107688256D01*
X254405460Y-107500000D01*
X254385674Y-107311744D01*
X254348387Y-107196986D01*
X254327179Y-107131715D01*
X254232533Y-106967783D01*
X254105870Y-106827110D01*
X253952730Y-106715848D01*
X253779802Y-106638855D01*
X253594648Y-106599500D01*
X253594646Y-106599500D01*
X253405354Y-106599500D01*
X253405352Y-106599500D01*
X253220197Y-106638855D01*
X253047269Y-106715848D01*
X252894129Y-106827110D01*
X252767466Y-106967783D01*
X252672821Y-107131714D01*
X252617478Y-107302040D01*
X252587228Y-107351402D01*
X250724358Y-109214272D01*
X250710727Y-109226053D01*
X250691468Y-109240391D01*
X250659635Y-109278328D01*
X250652338Y-109286292D01*
X250650972Y-109287657D01*
X250650950Y-109287681D01*
X250648409Y-109290223D01*
X250646173Y-109293050D01*
X250646171Y-109293053D01*
X250629176Y-109314546D01*
X250626902Y-109317337D01*
X250577894Y-109375744D01*
X250567418Y-109392187D01*
X250535192Y-109461294D01*
X250533622Y-109464536D01*
X250499393Y-109532692D01*
X250492996Y-109551098D01*
X250477573Y-109625788D01*
X250476793Y-109629305D01*
X250459208Y-109703506D01*
X250457229Y-109722882D01*
X250459447Y-109799128D01*
X250459499Y-109802733D01*
X250459499Y-110873336D01*
X250439814Y-110940375D01*
X250406626Y-110974909D01*
X250370858Y-110999955D01*
X250209953Y-111160859D01*
X250184912Y-111196623D01*
X250130336Y-111240248D01*
X250083337Y-111249500D01*
X249862229Y-111249500D01*
X249795190Y-111229815D01*
X249774548Y-111213181D01*
X246022271Y-107460903D01*
X245988786Y-107399580D01*
X245993770Y-107329888D01*
X246022268Y-107285544D01*
X246607884Y-106699931D01*
X246659864Y-106633016D01*
X246714940Y-106500050D01*
X246725500Y-106415977D01*
X246725499Y-105198998D01*
X246745184Y-105131961D01*
X246797987Y-105086206D01*
X246849499Y-105075000D01*
X247250000Y-105075000D01*
X247250000Y-104075000D01*
X247750000Y-104075000D01*
X247750000Y-105075000D01*
X248150500Y-105075000D01*
X248217539Y-105094685D01*
X248263294Y-105147489D01*
X248274500Y-105199000D01*
X248274500Y-106412096D01*
X248274500Y-106412111D01*
X248274501Y-106415975D01*
X248285060Y-106500050D01*
X248326254Y-106599500D01*
X248340137Y-106633016D01*
X248389737Y-106696867D01*
X248389742Y-106696873D01*
X248392121Y-106699935D01*
X249325069Y-107632884D01*
X249391984Y-107684864D01*
X249524950Y-107739940D01*
X249609023Y-107750500D01*
X249612900Y-107750500D01*
X250471987Y-107750500D01*
X250476040Y-107750500D01*
X250590999Y-107735365D01*
X250734037Y-107676117D01*
X250856867Y-107581867D01*
X250951117Y-107459037D01*
X251010365Y-107315999D01*
X251025500Y-107201040D01*
X251025499Y-105060451D01*
X251045185Y-104993413D01*
X251061819Y-104972771D01*
X251221409Y-104813181D01*
X251383789Y-104650800D01*
X251399885Y-104637906D01*
X251401873Y-104635787D01*
X251401877Y-104635786D01*
X251447949Y-104586723D01*
X251450534Y-104584055D01*
X251470120Y-104564471D01*
X251472585Y-104561292D01*
X251480167Y-104552416D01*
X251484434Y-104547872D01*
X251510062Y-104520582D01*
X251519717Y-104503018D01*
X251530394Y-104486764D01*
X251542673Y-104470936D01*
X251560018Y-104430852D01*
X251565160Y-104420356D01*
X251586197Y-104382092D01*
X251591179Y-104362684D01*
X251597481Y-104344280D01*
X251605437Y-104325896D01*
X251612269Y-104282752D01*
X251614633Y-104271338D01*
X251625500Y-104229019D01*
X251625500Y-104208982D01*
X251627027Y-104189584D01*
X251630160Y-104169804D01*
X251626050Y-104126324D01*
X251625500Y-104114655D01*
X251625500Y-101423187D01*
X251645185Y-101356148D01*
X251657350Y-101340214D01*
X251707830Y-101284151D01*
X251732533Y-101256716D01*
X251780931Y-101172889D01*
X251827179Y-101092784D01*
X251846859Y-101032216D01*
X251885674Y-100912756D01*
X251904194Y-100736536D01*
X251930778Y-100671924D01*
X251988076Y-100631939D01*
X252027515Y-100625500D01*
X254504169Y-100625500D01*
X254571208Y-100645185D01*
G37*
%TD.AperFunction*%
%TA.AperFunction,Conductor*%
G36*
X251039471Y-42420185D02*
G01*
X251085226Y-42472989D01*
X251095752Y-42511537D01*
X251109959Y-42646709D01*
X251113448Y-42679898D01*
X251100878Y-42748627D01*
X251053146Y-42799651D01*
X250990127Y-42816859D01*
X250905352Y-42816859D01*
X250720197Y-42856214D01*
X250547269Y-42933207D01*
X250394129Y-43044469D01*
X250267466Y-43185142D01*
X250172820Y-43349074D01*
X250114326Y-43529101D01*
X250094540Y-43717359D01*
X250114326Y-43905616D01*
X250172820Y-44085643D01*
X250267464Y-44249572D01*
X250294992Y-44280144D01*
X250316178Y-44303674D01*
X250342650Y-44333073D01*
X250372880Y-44396065D01*
X250374500Y-44416046D01*
X250374500Y-45189546D01*
X250354815Y-45256585D01*
X250338181Y-45277227D01*
X244552228Y-51063181D01*
X244490905Y-51096666D01*
X244464547Y-51099500D01*
X244405352Y-51099500D01*
X244220197Y-51138855D01*
X244047269Y-51215848D01*
X243894129Y-51327110D01*
X243767466Y-51467783D01*
X243672820Y-51631715D01*
X243614326Y-51811742D01*
X243594540Y-51999999D01*
X243594540Y-52000000D01*
X243595378Y-52007972D01*
X243614326Y-52188257D01*
X243672820Y-52368284D01*
X243767464Y-52532213D01*
X243842650Y-52615714D01*
X243872880Y-52678706D01*
X243874500Y-52698687D01*
X243874500Y-58801312D01*
X243854815Y-58868351D01*
X243842650Y-58884284D01*
X243767466Y-58967783D01*
X243672820Y-59131715D01*
X243614326Y-59311742D01*
X243600357Y-59444654D01*
X243594540Y-59500000D01*
X243602873Y-59579285D01*
X243614326Y-59688257D01*
X243672820Y-59868284D01*
X243767466Y-60032216D01*
X243894129Y-60172889D01*
X244047269Y-60284151D01*
X244180969Y-60343679D01*
X244234206Y-60388929D01*
X244254527Y-60455778D01*
X244237921Y-60518957D01*
X244172820Y-60631716D01*
X244114326Y-60811742D01*
X244100515Y-60943151D01*
X244094540Y-61000000D01*
X244112710Y-61172885D01*
X244112730Y-61173066D01*
X244100160Y-61241795D01*
X244052428Y-61292819D01*
X243984688Y-61309937D01*
X243969002Y-61308336D01*
X243916049Y-61299500D01*
X243683951Y-61299500D01*
X243645544Y-61305909D01*
X243455015Y-61337702D01*
X243235501Y-61413062D01*
X243235497Y-61413063D01*
X243235497Y-61413064D01*
X243181189Y-61442454D01*
X243031372Y-61523531D01*
X242848215Y-61666087D01*
X242739531Y-61784151D01*
X242691021Y-61836847D01*
X242691021Y-61836848D01*
X242653809Y-61893805D01*
X242600662Y-61939161D01*
X242531431Y-61948585D01*
X242468095Y-61919083D01*
X242446191Y-61893805D01*
X242408979Y-61836847D01*
X242251784Y-61666087D01*
X242068626Y-61523530D01*
X241864503Y-61413064D01*
X241864499Y-61413062D01*
X241864498Y-61413062D01*
X241644984Y-61337702D01*
X241469000Y-61308336D01*
X241416049Y-61299500D01*
X241183951Y-61299500D01*
X241145544Y-61305909D01*
X240955015Y-61337702D01*
X240735501Y-61413062D01*
X240735497Y-61413063D01*
X240735497Y-61413064D01*
X240681189Y-61442454D01*
X240531372Y-61523531D01*
X240348215Y-61666087D01*
X240191020Y-61836848D01*
X240064076Y-62031150D01*
X239970844Y-62243696D01*
X239913865Y-62468700D01*
X239894699Y-62700000D01*
X239913865Y-62931299D01*
X239913865Y-62931301D01*
X239913866Y-62931305D01*
X239961298Y-63118607D01*
X239970844Y-63156303D01*
X239990944Y-63202126D01*
X240064076Y-63368849D01*
X240191021Y-63563153D01*
X240348216Y-63733913D01*
X240531374Y-63876470D01*
X240735497Y-63986936D01*
X240775943Y-64000821D01*
X240955015Y-64062297D01*
X240955017Y-64062297D01*
X240955019Y-64062298D01*
X241183951Y-64100500D01*
X241183952Y-64100500D01*
X241416048Y-64100500D01*
X241416049Y-64100500D01*
X241644981Y-64062298D01*
X241864503Y-63986936D01*
X242068626Y-63876470D01*
X242251784Y-63733913D01*
X242408979Y-63563153D01*
X242446193Y-63506192D01*
X242499335Y-63460838D01*
X242568566Y-63451414D01*
X242631902Y-63480915D01*
X242653807Y-63506194D01*
X242668188Y-63528205D01*
X242691021Y-63563153D01*
X242848216Y-63733913D01*
X243031374Y-63876470D01*
X243235497Y-63986936D01*
X243275943Y-64000821D01*
X243455015Y-64062297D01*
X243455017Y-64062297D01*
X243455019Y-64062298D01*
X243683951Y-64100500D01*
X243683952Y-64100500D01*
X243916048Y-64100500D01*
X243916049Y-64100500D01*
X244144981Y-64062298D01*
X244364503Y-63986936D01*
X244568626Y-63876470D01*
X244745977Y-63738432D01*
X244810970Y-63712790D01*
X244879510Y-63726356D01*
X244929834Y-63774825D01*
X244938319Y-63792952D01*
X244956645Y-63842086D01*
X245042811Y-63957188D01*
X245157910Y-64043352D01*
X245292628Y-64093599D01*
X245348867Y-64099645D01*
X245355482Y-64100000D01*
X245825089Y-64100000D01*
X245892128Y-64119685D01*
X245937883Y-64172489D01*
X245947827Y-64241647D01*
X245918802Y-64305203D01*
X245897973Y-64324319D01*
X245894128Y-64327112D01*
X245767466Y-64467783D01*
X245672820Y-64631715D01*
X245614326Y-64811742D01*
X245594540Y-65000000D01*
X245614326Y-65188257D01*
X245672820Y-65368283D01*
X245684493Y-65388501D01*
X245700965Y-65456401D01*
X245678112Y-65522428D01*
X245623190Y-65565618D01*
X245577105Y-65574500D01*
X242438184Y-65574500D01*
X242371145Y-65554815D01*
X242325390Y-65502011D01*
X242314864Y-65463464D01*
X242307169Y-65390249D01*
X242257887Y-65238575D01*
X242248674Y-65210220D01*
X242154028Y-65046288D01*
X242027365Y-64905615D01*
X241874225Y-64794353D01*
X241701297Y-64717360D01*
X241516143Y-64678005D01*
X241516141Y-64678005D01*
X241326849Y-64678005D01*
X241326847Y-64678005D01*
X241141692Y-64717360D01*
X240968764Y-64794353D01*
X240815624Y-64905615D01*
X240688961Y-65046288D01*
X240594315Y-65210220D01*
X240535821Y-65390247D01*
X240517389Y-65565618D01*
X240516035Y-65578505D01*
X240517434Y-65591819D01*
X240535821Y-65766762D01*
X240594315Y-65946789D01*
X240688961Y-66110721D01*
X240815624Y-66251394D01*
X240968764Y-66362656D01*
X241141692Y-66439649D01*
X241326847Y-66479005D01*
X241326849Y-66479005D01*
X241386043Y-66479005D01*
X241453082Y-66498690D01*
X241473724Y-66515324D01*
X241542187Y-66583787D01*
X241555088Y-66599889D01*
X241557202Y-66601874D01*
X241557204Y-66601877D01*
X241604551Y-66646339D01*
X241606230Y-66647916D01*
X241609026Y-66650626D01*
X241628520Y-66670120D01*
X241631605Y-66672513D01*
X241631691Y-66672580D01*
X241640563Y-66680158D01*
X241672408Y-66710062D01*
X241689964Y-66719714D01*
X241706221Y-66730392D01*
X241722054Y-66742674D01*
X241738175Y-66749649D01*
X241762146Y-66760023D01*
X241772633Y-66765160D01*
X241810898Y-66786197D01*
X241830306Y-66791180D01*
X241848700Y-66797478D01*
X241867095Y-66805438D01*
X241910244Y-66812271D01*
X241921670Y-66814638D01*
X241937212Y-66818629D01*
X241963970Y-66825500D01*
X241963971Y-66825500D01*
X241984006Y-66825500D01*
X242003403Y-66827026D01*
X242023186Y-66830160D01*
X242066664Y-66826050D01*
X242078334Y-66825500D01*
X248980459Y-66825500D01*
X249047498Y-66845185D01*
X249093253Y-66897989D01*
X249095869Y-66904153D01*
X249118432Y-66961643D01*
X249158885Y-67031710D01*
X249249613Y-67188856D01*
X249302889Y-67255662D01*
X249398147Y-67375112D01*
X249402155Y-67380137D01*
X249428563Y-67444824D01*
X249415808Y-67513519D01*
X249392889Y-67545131D01*
X245616208Y-71321812D01*
X245600110Y-71334709D01*
X245552096Y-71385838D01*
X245549392Y-71388629D01*
X245532628Y-71405393D01*
X245532621Y-71405400D01*
X245529880Y-71408142D01*
X245527499Y-71411210D01*
X245527490Y-71411221D01*
X245527411Y-71411324D01*
X245519842Y-71420185D01*
X245489935Y-71452033D01*
X245480285Y-71469587D01*
X245469609Y-71485841D01*
X245457326Y-71501676D01*
X245439975Y-71541771D01*
X245434838Y-71552257D01*
X245413802Y-71590520D01*
X245408821Y-71609922D01*
X245402520Y-71628324D01*
X245394561Y-71646715D01*
X245387728Y-71689856D01*
X245385361Y-71701288D01*
X245374500Y-71743595D01*
X245374499Y-71763633D01*
X245372973Y-71783019D01*
X245367390Y-71818278D01*
X245364682Y-71817849D01*
X245355815Y-71863619D01*
X245337805Y-71889665D01*
X245267464Y-71967786D01*
X245172820Y-72131715D01*
X245114326Y-72311742D01*
X245094540Y-72499999D01*
X245114326Y-72688257D01*
X245172820Y-72868284D01*
X245267466Y-73032216D01*
X245394129Y-73172889D01*
X245547269Y-73284151D01*
X245720193Y-73361143D01*
X245720196Y-73361143D01*
X245720197Y-73361144D01*
X245746716Y-73366780D01*
X245808197Y-73399972D01*
X245838867Y-73449752D01*
X245879576Y-73575040D01*
X245974219Y-73738968D01*
X246011062Y-73779886D01*
X246046931Y-73819722D01*
X246049405Y-73822469D01*
X246079635Y-73885461D01*
X246081255Y-73905442D01*
X246081255Y-74124011D01*
X246078990Y-74144521D01*
X246081194Y-74214627D01*
X246081255Y-74218522D01*
X246081255Y-74246105D01*
X246081743Y-74249974D01*
X246081744Y-74249980D01*
X246081759Y-74250098D01*
X246082673Y-74261722D01*
X246084045Y-74305381D01*
X246089634Y-74324615D01*
X246093580Y-74343671D01*
X246096090Y-74363547D01*
X246112169Y-74404159D01*
X246115952Y-74415206D01*
X246128137Y-74457146D01*
X246138335Y-74474390D01*
X246146891Y-74491855D01*
X246154269Y-74510487D01*
X246158512Y-74516327D01*
X246179935Y-74545814D01*
X246186348Y-74555577D01*
X246208581Y-74593171D01*
X246208584Y-74593174D01*
X246208585Y-74593175D01*
X246222750Y-74607340D01*
X246235382Y-74622130D01*
X246247161Y-74638342D01*
X246280813Y-74666181D01*
X246289454Y-74674044D01*
X248561038Y-76945629D01*
X248594523Y-77006952D01*
X248596678Y-77020348D01*
X248614326Y-77188257D01*
X248672820Y-77368284D01*
X248767466Y-77532216D01*
X248894129Y-77672889D01*
X249047269Y-77784151D01*
X249220197Y-77861144D01*
X249405352Y-77900500D01*
X249405354Y-77900500D01*
X249594648Y-77900500D01*
X249684102Y-77881486D01*
X249753769Y-77886802D01*
X249809503Y-77928939D01*
X249833608Y-77994519D01*
X249818431Y-78062720D01*
X249797564Y-78090457D01*
X248350583Y-79537437D01*
X248334485Y-79550334D01*
X248286471Y-79601463D01*
X248283767Y-79604254D01*
X248267003Y-79621018D01*
X248266996Y-79621025D01*
X248264255Y-79623767D01*
X248261874Y-79626835D01*
X248261865Y-79626846D01*
X248261786Y-79626949D01*
X248254217Y-79635810D01*
X248224310Y-79667658D01*
X248214660Y-79685212D01*
X248203984Y-79701466D01*
X248191701Y-79717301D01*
X248174350Y-79757396D01*
X248169213Y-79767882D01*
X248148177Y-79806145D01*
X248143196Y-79825547D01*
X248136895Y-79843949D01*
X248128936Y-79862340D01*
X248122103Y-79905480D01*
X248119735Y-79916912D01*
X248108875Y-79959215D01*
X248108875Y-79979254D01*
X248107347Y-79998652D01*
X248104215Y-80018434D01*
X248105925Y-80036524D01*
X248108325Y-80061911D01*
X248108875Y-80073581D01*
X248108875Y-89035687D01*
X248089190Y-89102726D01*
X248077025Y-89118659D01*
X248001841Y-89202158D01*
X247907195Y-89366090D01*
X247848701Y-89546117D01*
X247828915Y-89734375D01*
X247848701Y-89922632D01*
X247907195Y-90102659D01*
X248001841Y-90266591D01*
X248128504Y-90407264D01*
X248217141Y-90471662D01*
X248259807Y-90526992D01*
X248265786Y-90596605D01*
X248233180Y-90658400D01*
X248231937Y-90659661D01*
X244514358Y-94377240D01*
X244500726Y-94389022D01*
X244483764Y-94401650D01*
X244418235Y-94425894D01*
X244350002Y-94410862D01*
X244300727Y-94361327D01*
X244286055Y-94293015D01*
X244308141Y-94231063D01*
X244373598Y-94137580D01*
X244473430Y-93923492D01*
X244530636Y-93710000D01*
X243633686Y-93710000D01*
X243659493Y-93669844D01*
X243700000Y-93531889D01*
X243700000Y-93388111D01*
X243659493Y-93250156D01*
X243633686Y-93210000D01*
X244530636Y-93210000D01*
X244530635Y-93209999D01*
X244473430Y-92996507D01*
X244373599Y-92782421D01*
X244238109Y-92588921D01*
X244071081Y-92421893D01*
X243884968Y-92291575D01*
X243841344Y-92236998D01*
X243834151Y-92167499D01*
X243865673Y-92105145D01*
X243884968Y-92088425D01*
X244071081Y-91958106D01*
X244238106Y-91791081D01*
X244373600Y-91597576D01*
X244473430Y-91383492D01*
X244530636Y-91170000D01*
X243633686Y-91170000D01*
X243659493Y-91129844D01*
X243700000Y-90991889D01*
X243700000Y-90848111D01*
X243659493Y-90710156D01*
X243633686Y-90670000D01*
X244530636Y-90670000D01*
X244530635Y-90669999D01*
X244473430Y-90456507D01*
X244373599Y-90242421D01*
X244238109Y-90048921D01*
X244071081Y-89881893D01*
X243884968Y-89751575D01*
X243841344Y-89696998D01*
X243834151Y-89627499D01*
X243865673Y-89565145D01*
X243884968Y-89548425D01*
X244071081Y-89418106D01*
X244238106Y-89251081D01*
X244373600Y-89057576D01*
X244473430Y-88843492D01*
X244530636Y-88630000D01*
X243633686Y-88630000D01*
X243659493Y-88589844D01*
X243700000Y-88451889D01*
X243700000Y-88308111D01*
X243659493Y-88170156D01*
X243633686Y-88130000D01*
X244530636Y-88130000D01*
X244530635Y-88129999D01*
X244473430Y-87916507D01*
X244373599Y-87702421D01*
X244238109Y-87508921D01*
X244071081Y-87341893D01*
X243885404Y-87211880D01*
X243841780Y-87157303D01*
X243834587Y-87087804D01*
X243866109Y-87025450D01*
X243885399Y-87008734D01*
X244071401Y-86878495D01*
X244238495Y-86711401D01*
X244374035Y-86517830D01*
X244473903Y-86303663D01*
X244535063Y-86075408D01*
X244555659Y-85840000D01*
X244535063Y-85604592D01*
X244473903Y-85376337D01*
X244374035Y-85162171D01*
X244238495Y-84968599D01*
X244071401Y-84801505D01*
X243877830Y-84665965D01*
X243663663Y-84566097D01*
X243597228Y-84548296D01*
X243435407Y-84504936D01*
X243200000Y-84484340D01*
X242964592Y-84504936D01*
X242736336Y-84566097D01*
X242522170Y-84665965D01*
X242328598Y-84801505D01*
X242161505Y-84968598D01*
X242031575Y-85154159D01*
X241976998Y-85197784D01*
X241907500Y-85204978D01*
X241845145Y-85173455D01*
X241828425Y-85154159D01*
X241761416Y-85058460D01*
X241698495Y-84968599D01*
X241531401Y-84801505D01*
X241337830Y-84665965D01*
X241123663Y-84566097D01*
X241057228Y-84548296D01*
X240895407Y-84504936D01*
X240660000Y-84484340D01*
X240424592Y-84504936D01*
X240196336Y-84566097D01*
X239982170Y-84665965D01*
X239788598Y-84801505D01*
X239621505Y-84968598D01*
X239485965Y-85162170D01*
X239386097Y-85376336D01*
X239324936Y-85604592D01*
X239304340Y-85839999D01*
X239324936Y-86075407D01*
X239369709Y-86242501D01*
X239386097Y-86303663D01*
X239485965Y-86517830D01*
X239621505Y-86711401D01*
X239788599Y-86878495D01*
X239974596Y-87008732D01*
X240018219Y-87063307D01*
X240025412Y-87132806D01*
X239993890Y-87195160D01*
X239974595Y-87211880D01*
X239788919Y-87341892D01*
X239621890Y-87508921D01*
X239486400Y-87702421D01*
X239386569Y-87916507D01*
X239329364Y-88129999D01*
X239329364Y-88130000D01*
X240226314Y-88130000D01*
X240200507Y-88170156D01*
X240160000Y-88308111D01*
X240160000Y-88451889D01*
X240200507Y-88589844D01*
X240226314Y-88630000D01*
X239329364Y-88630000D01*
X239386569Y-88843492D01*
X239486399Y-89057576D01*
X239621893Y-89251081D01*
X239788918Y-89418106D01*
X239975031Y-89548425D01*
X240018656Y-89603002D01*
X240025848Y-89672501D01*
X239994326Y-89734855D01*
X239975031Y-89751575D01*
X239788918Y-89881893D01*
X239621890Y-90048921D01*
X239486400Y-90242421D01*
X239386569Y-90456507D01*
X239329364Y-90669999D01*
X239329364Y-90670000D01*
X240226314Y-90670000D01*
X240200507Y-90710156D01*
X240160000Y-90848111D01*
X240160000Y-90991889D01*
X240200507Y-91129844D01*
X240226314Y-91170000D01*
X239329364Y-91170000D01*
X239386569Y-91383492D01*
X239486399Y-91597576D01*
X239621893Y-91791081D01*
X239788918Y-91958106D01*
X239975031Y-92088425D01*
X240018656Y-92143002D01*
X240025848Y-92212501D01*
X239994326Y-92274855D01*
X239975031Y-92291575D01*
X239788918Y-92421893D01*
X239621890Y-92588921D01*
X239486400Y-92782421D01*
X239386569Y-92996507D01*
X239329364Y-93209999D01*
X239329364Y-93210000D01*
X240226314Y-93210000D01*
X240200507Y-93250156D01*
X240160000Y-93388111D01*
X240160000Y-93531889D01*
X240200507Y-93669844D01*
X240226314Y-93710000D01*
X239329364Y-93710000D01*
X239386569Y-93923492D01*
X239486399Y-94137576D01*
X239621893Y-94331081D01*
X239788918Y-94498106D01*
X239974595Y-94628119D01*
X240018219Y-94682696D01*
X240025412Y-94752195D01*
X239993890Y-94814549D01*
X239974595Y-94831269D01*
X239788595Y-94961508D01*
X239621505Y-95128598D01*
X239485965Y-95322170D01*
X239386097Y-95536336D01*
X239324936Y-95764592D01*
X239304340Y-96000000D01*
X239324936Y-96235407D01*
X239369709Y-96402502D01*
X239386097Y-96463663D01*
X239485965Y-96677830D01*
X239621505Y-96871401D01*
X239788599Y-97038495D01*
X239982170Y-97174035D01*
X240196337Y-97273903D01*
X240424592Y-97335063D01*
X240660000Y-97355659D01*
X240895408Y-97335063D01*
X241123663Y-97273903D01*
X241337830Y-97174035D01*
X241531401Y-97038495D01*
X241653329Y-96916566D01*
X241714648Y-96883084D01*
X241784340Y-96888068D01*
X241840274Y-96929939D01*
X241857189Y-96960916D01*
X241880657Y-97023836D01*
X241906204Y-97092331D01*
X241992454Y-97207546D01*
X242107669Y-97293796D01*
X242242517Y-97344091D01*
X242302127Y-97350500D01*
X243288770Y-97350499D01*
X243355809Y-97370183D01*
X243401564Y-97422987D01*
X243411508Y-97492146D01*
X243382483Y-97555702D01*
X243376451Y-97562180D01*
X238575449Y-102363181D01*
X238514126Y-102396666D01*
X238487768Y-102399500D01*
X237455439Y-102399500D01*
X237455420Y-102399500D01*
X237452128Y-102399501D01*
X237448848Y-102399853D01*
X237448840Y-102399854D01*
X237392515Y-102405909D01*
X237257669Y-102456204D01*
X237142451Y-102542455D01*
X237123764Y-102567418D01*
X237067829Y-102609288D01*
X236998137Y-102614270D01*
X236936815Y-102580784D01*
X236903332Y-102519460D01*
X236900500Y-102493114D01*
X236900500Y-79399999D01*
X239894699Y-79399999D01*
X239913865Y-79631299D01*
X239913865Y-79631301D01*
X239913866Y-79631305D01*
X239970843Y-79856300D01*
X239970844Y-79856303D01*
X240020716Y-79969998D01*
X240064076Y-80068849D01*
X240191021Y-80263153D01*
X240348216Y-80433913D01*
X240531374Y-80576470D01*
X240735497Y-80686936D01*
X240845258Y-80724617D01*
X240955015Y-80762297D01*
X240955017Y-80762297D01*
X240955019Y-80762298D01*
X241183951Y-80800500D01*
X241183952Y-80800500D01*
X241416048Y-80800500D01*
X241416049Y-80800500D01*
X241644981Y-80762298D01*
X241864503Y-80686936D01*
X242068626Y-80576470D01*
X242251784Y-80433913D01*
X242408979Y-80263153D01*
X242446193Y-80206192D01*
X242499335Y-80160838D01*
X242568566Y-80151414D01*
X242631902Y-80180915D01*
X242653807Y-80206194D01*
X242690026Y-80261630D01*
X242691021Y-80263153D01*
X242848216Y-80433913D01*
X243031374Y-80576470D01*
X243235497Y-80686936D01*
X243345258Y-80724617D01*
X243455015Y-80762297D01*
X243455017Y-80762297D01*
X243455019Y-80762298D01*
X243683951Y-80800500D01*
X243683952Y-80800500D01*
X243916048Y-80800500D01*
X243916049Y-80800500D01*
X244144981Y-80762298D01*
X244364503Y-80686936D01*
X244568626Y-80576470D01*
X244745977Y-80438432D01*
X244810970Y-80412790D01*
X244879510Y-80426356D01*
X244929834Y-80474825D01*
X244938319Y-80492952D01*
X244956645Y-80542086D01*
X245042811Y-80657188D01*
X245157910Y-80743352D01*
X245292628Y-80793599D01*
X245348867Y-80799645D01*
X245355482Y-80800000D01*
X246050000Y-80800000D01*
X246050000Y-79835501D01*
X246157685Y-79884680D01*
X246264237Y-79900000D01*
X246335763Y-79900000D01*
X246442315Y-79884680D01*
X246550000Y-79835501D01*
X246550000Y-80800000D01*
X247244518Y-80800000D01*
X247251132Y-80799645D01*
X247307371Y-80793599D01*
X247442089Y-80743352D01*
X247557188Y-80657188D01*
X247643352Y-80542089D01*
X247693599Y-80407371D01*
X247699645Y-80351132D01*
X247700000Y-80344518D01*
X247700000Y-79650000D01*
X246733686Y-79650000D01*
X246759493Y-79609844D01*
X246800000Y-79471889D01*
X246800000Y-79328111D01*
X246759493Y-79190156D01*
X246733686Y-79150000D01*
X247700000Y-79150000D01*
X247700000Y-78455481D01*
X247699645Y-78448867D01*
X247693599Y-78392628D01*
X247643352Y-78257910D01*
X247557188Y-78142811D01*
X247442089Y-78056647D01*
X247307371Y-78006400D01*
X247251132Y-78000354D01*
X247244518Y-78000000D01*
X246550000Y-78000000D01*
X246550000Y-78964498D01*
X246442315Y-78915320D01*
X246335763Y-78900000D01*
X246264237Y-78900000D01*
X246157685Y-78915320D01*
X246050000Y-78964498D01*
X246050000Y-78000000D01*
X245355482Y-78000000D01*
X245348867Y-78000354D01*
X245292628Y-78006400D01*
X245157910Y-78056647D01*
X245042811Y-78142811D01*
X244956646Y-78257913D01*
X244938319Y-78307048D01*
X244896447Y-78362981D01*
X244830982Y-78387397D01*
X244762710Y-78372544D01*
X244745980Y-78361569D01*
X244568626Y-78223530D01*
X244364503Y-78113064D01*
X244364499Y-78113062D01*
X244364498Y-78113062D01*
X244144984Y-78037702D01*
X243954456Y-78005909D01*
X243916049Y-77999500D01*
X243683951Y-77999500D01*
X243645544Y-78005909D01*
X243455015Y-78037702D01*
X243235501Y-78113062D01*
X243235497Y-78113063D01*
X243235497Y-78113064D01*
X243174502Y-78146073D01*
X243031372Y-78223531D01*
X242848215Y-78366087D01*
X242691020Y-78536847D01*
X242653807Y-78593806D01*
X242600660Y-78639162D01*
X242531428Y-78648585D01*
X242468093Y-78619082D01*
X242446192Y-78593806D01*
X242408979Y-78536847D01*
X242251784Y-78366087D01*
X242068626Y-78223530D01*
X241864503Y-78113064D01*
X241864499Y-78113062D01*
X241864498Y-78113062D01*
X241644984Y-78037702D01*
X241454456Y-78005909D01*
X241416049Y-77999500D01*
X241183951Y-77999500D01*
X241145544Y-78005909D01*
X240955015Y-78037702D01*
X240735501Y-78113062D01*
X240735497Y-78113063D01*
X240735497Y-78113064D01*
X240674502Y-78146073D01*
X240531372Y-78223531D01*
X240348215Y-78366087D01*
X240191020Y-78536848D01*
X240064076Y-78731150D01*
X239970844Y-78943696D01*
X239970842Y-78943700D01*
X239970843Y-78943700D01*
X239918601Y-79150000D01*
X239913865Y-79168700D01*
X239894699Y-79399999D01*
X236900500Y-79399999D01*
X236900500Y-72355496D01*
X236920185Y-72288458D01*
X236972989Y-72242703D01*
X237042147Y-72232759D01*
X237105703Y-72261784D01*
X237143477Y-72320562D01*
X237148169Y-72346446D01*
X237154402Y-72431617D01*
X237213616Y-72697438D01*
X237271929Y-72849902D01*
X237310907Y-72951814D01*
X237444196Y-73189310D01*
X237475441Y-73229773D01*
X237610645Y-73404869D01*
X237806704Y-73593894D01*
X238028199Y-73752359D01*
X238249910Y-73866349D01*
X238270403Y-73876885D01*
X238528159Y-73964819D01*
X238528161Y-73964819D01*
X238528163Y-73964820D01*
X238795970Y-74014286D01*
X239068130Y-74024232D01*
X239068130Y-74024231D01*
X239068131Y-74024232D01*
X239338839Y-73994446D01*
X239602326Y-73925562D01*
X239852975Y-73819047D01*
X240085444Y-73677173D01*
X240294779Y-73502963D01*
X240476518Y-73300131D01*
X240626788Y-73072998D01*
X240742386Y-72826406D01*
X240820847Y-72565611D01*
X240860500Y-72296171D01*
X240860500Y-71572000D01*
X240846978Y-71387248D01*
X240845597Y-71368382D01*
X240786383Y-71102561D01*
X240737057Y-70973594D01*
X240689093Y-70848186D01*
X240555804Y-70610690D01*
X240448023Y-70471110D01*
X240389354Y-70395130D01*
X240193295Y-70206105D01*
X239971800Y-70047640D01*
X239729602Y-69923117D01*
X239729598Y-69923115D01*
X239729597Y-69923115D01*
X239557483Y-69864398D01*
X239471836Y-69835179D01*
X239204029Y-69785713D01*
X238931869Y-69775767D01*
X238661162Y-69805553D01*
X238397674Y-69874438D01*
X238147024Y-69980953D01*
X237914556Y-70122826D01*
X237705223Y-70297035D01*
X237705221Y-70297037D01*
X237618329Y-70394014D01*
X237523480Y-70499871D01*
X237373210Y-70727005D01*
X237257615Y-70973589D01*
X237195905Y-71178707D01*
X237179153Y-71234389D01*
X237159434Y-71368382D01*
X237147179Y-71451653D01*
X237117943Y-71515112D01*
X237059039Y-71552691D01*
X236989170Y-71552458D01*
X236930518Y-71514489D01*
X236901704Y-71450837D01*
X236900500Y-71433598D01*
X236900500Y-55655497D01*
X236920185Y-55588458D01*
X236972989Y-55542703D01*
X237042147Y-55532759D01*
X237105703Y-55561784D01*
X237143477Y-55620562D01*
X237148169Y-55646446D01*
X237154402Y-55731617D01*
X237213616Y-55997438D01*
X237302011Y-56228555D01*
X237310907Y-56251814D01*
X237444196Y-56489310D01*
X237509260Y-56573570D01*
X237610645Y-56704869D01*
X237806704Y-56893894D01*
X238028199Y-57052359D01*
X238201976Y-57141704D01*
X238270403Y-57176885D01*
X238528159Y-57264819D01*
X238528161Y-57264819D01*
X238528163Y-57264820D01*
X238795970Y-57314286D01*
X239068130Y-57324232D01*
X239068130Y-57324231D01*
X239068131Y-57324232D01*
X239338839Y-57294446D01*
X239602326Y-57225562D01*
X239852975Y-57119047D01*
X240085444Y-56977173D01*
X240294779Y-56802963D01*
X240476518Y-56600131D01*
X240626788Y-56372998D01*
X240700968Y-56214757D01*
X240747245Y-56162415D01*
X240814477Y-56143399D01*
X240881317Y-56163751D01*
X240886127Y-56167075D01*
X241047269Y-56284151D01*
X241220197Y-56361144D01*
X241405352Y-56400500D01*
X241405354Y-56400500D01*
X241594648Y-56400500D01*
X241724053Y-56372994D01*
X241779803Y-56361144D01*
X241952730Y-56284151D01*
X242046740Y-56215849D01*
X242105870Y-56172889D01*
X242136515Y-56138855D01*
X242232533Y-56032216D01*
X242327179Y-55868284D01*
X242385674Y-55688256D01*
X242405460Y-55500000D01*
X242385674Y-55311744D01*
X242327179Y-55131716D01*
X242327179Y-55131715D01*
X242232533Y-54967783D01*
X242157350Y-54884284D01*
X242127120Y-54821293D01*
X242125500Y-54801312D01*
X242125500Y-48015151D01*
X242127763Y-47994651D01*
X242127672Y-47991744D01*
X242125795Y-47932025D01*
X242143364Y-47864404D01*
X242194705Y-47817012D01*
X242263517Y-47804901D01*
X242280572Y-47808029D01*
X242292905Y-47811195D01*
X242292908Y-47811197D01*
X242312313Y-47816179D01*
X242330710Y-47822478D01*
X242349105Y-47830438D01*
X242392254Y-47837271D01*
X242403680Y-47839638D01*
X242419222Y-47843629D01*
X242445980Y-47850500D01*
X242445981Y-47850500D01*
X242466016Y-47850500D01*
X242485413Y-47852026D01*
X242505196Y-47855160D01*
X242548674Y-47851050D01*
X242560344Y-47850500D01*
X242765048Y-47850500D01*
X242832087Y-47870185D01*
X242852729Y-47886819D01*
X243061038Y-48095129D01*
X243094523Y-48156452D01*
X243096678Y-48169848D01*
X243114326Y-48337757D01*
X243172820Y-48517784D01*
X243267466Y-48681716D01*
X243394129Y-48822389D01*
X243547269Y-48933651D01*
X243720197Y-49010644D01*
X243905352Y-49050000D01*
X243905354Y-49050000D01*
X244094648Y-49050000D01*
X244218084Y-49023762D01*
X244279803Y-49010644D01*
X244452730Y-48933651D01*
X244605871Y-48822388D01*
X244732533Y-48681716D01*
X244827179Y-48517784D01*
X244885674Y-48337756D01*
X244905460Y-48149500D01*
X244885674Y-47961244D01*
X244840586Y-47822479D01*
X244827179Y-47781215D01*
X244732533Y-47617283D01*
X244605871Y-47476612D01*
X244512450Y-47408737D01*
X244469785Y-47353407D01*
X244463806Y-47283793D01*
X244496412Y-47221998D01*
X244526311Y-47199369D01*
X244568626Y-47176470D01*
X244745977Y-47038432D01*
X244810970Y-47012790D01*
X244879510Y-47026356D01*
X244929834Y-47074825D01*
X244938319Y-47092952D01*
X244956645Y-47142086D01*
X245042811Y-47257188D01*
X245157910Y-47343352D01*
X245292628Y-47393599D01*
X245348867Y-47399645D01*
X245355482Y-47400000D01*
X246050000Y-47400000D01*
X246050000Y-46435501D01*
X246157685Y-46484680D01*
X246264237Y-46500000D01*
X246335763Y-46500000D01*
X246442315Y-46484680D01*
X246550000Y-46435501D01*
X246550000Y-47400000D01*
X247244518Y-47400000D01*
X247251132Y-47399645D01*
X247307371Y-47393599D01*
X247442089Y-47343352D01*
X247557188Y-47257188D01*
X247643352Y-47142089D01*
X247693599Y-47007371D01*
X247699645Y-46951132D01*
X247700000Y-46944518D01*
X247700000Y-46250000D01*
X246733686Y-46250000D01*
X246759493Y-46209844D01*
X246800000Y-46071889D01*
X246800000Y-45928111D01*
X246759493Y-45790156D01*
X246733686Y-45750000D01*
X247700000Y-45750000D01*
X247700000Y-45055481D01*
X247699645Y-45048867D01*
X247693599Y-44992628D01*
X247637122Y-44841207D01*
X247641596Y-44839537D01*
X247629098Y-44806072D01*
X247643919Y-44737793D01*
X247665090Y-44709498D01*
X249937771Y-42436819D01*
X249999095Y-42403334D01*
X250025453Y-42400500D01*
X250972432Y-42400500D01*
X251039471Y-42420185D01*
G37*
%TD.AperFunction*%
%TA.AperFunction,Conductor*%
G36*
X242740507Y-93250156D02*
G01*
X242700000Y-93388111D01*
X242700000Y-93531889D01*
X242740507Y-93669844D01*
X242766314Y-93710000D01*
X241093686Y-93710000D01*
X241119493Y-93669844D01*
X241160000Y-93531889D01*
X241160000Y-93388111D01*
X241119493Y-93250156D01*
X241093686Y-93210000D01*
X242766314Y-93210000D01*
X242740507Y-93250156D01*
G37*
%TD.AperFunction*%
%TA.AperFunction,Conductor*%
G36*
X240910000Y-93024498D02*
G01*
X240802315Y-92975320D01*
X240695763Y-92960000D01*
X240624237Y-92960000D01*
X240517685Y-92975320D01*
X240410000Y-93024498D01*
X240410000Y-91355501D01*
X240517685Y-91404680D01*
X240624237Y-91420000D01*
X240695763Y-91420000D01*
X240802315Y-91404680D01*
X240910000Y-91355501D01*
X240910000Y-93024498D01*
G37*
%TD.AperFunction*%
%TA.AperFunction,Conductor*%
G36*
X243449999Y-93024498D02*
G01*
X243342315Y-92975320D01*
X243235763Y-92960000D01*
X243164237Y-92960000D01*
X243057685Y-92975320D01*
X242950000Y-93024498D01*
X242950000Y-91355501D01*
X243057685Y-91404680D01*
X243164237Y-91420000D01*
X243235763Y-91420000D01*
X243342315Y-91404680D01*
X243449999Y-91355501D01*
X243449999Y-93024498D01*
G37*
%TD.AperFunction*%
%TA.AperFunction,Conductor*%
G36*
X242740507Y-90710156D02*
G01*
X242700000Y-90848111D01*
X242700000Y-90991889D01*
X242740507Y-91129844D01*
X242766314Y-91170000D01*
X241093686Y-91170000D01*
X241119493Y-91129844D01*
X241160000Y-90991889D01*
X241160000Y-90848111D01*
X241119493Y-90710156D01*
X241093686Y-90670000D01*
X242766314Y-90670000D01*
X242740507Y-90710156D01*
G37*
%TD.AperFunction*%
%TA.AperFunction,Conductor*%
G36*
X240910000Y-90484498D02*
G01*
X240802315Y-90435320D01*
X240695763Y-90420000D01*
X240624237Y-90420000D01*
X240517685Y-90435320D01*
X240410000Y-90484498D01*
X240410000Y-88815501D01*
X240517685Y-88864680D01*
X240624237Y-88880000D01*
X240695763Y-88880000D01*
X240802315Y-88864680D01*
X240910000Y-88815501D01*
X240910000Y-90484498D01*
G37*
%TD.AperFunction*%
%TA.AperFunction,Conductor*%
G36*
X243449999Y-90484498D02*
G01*
X243342315Y-90435320D01*
X243235763Y-90420000D01*
X243164237Y-90420000D01*
X243057685Y-90435320D01*
X242950000Y-90484498D01*
X242950000Y-88815501D01*
X243057685Y-88864680D01*
X243164237Y-88880000D01*
X243235763Y-88880000D01*
X243342315Y-88864680D01*
X243449999Y-88815501D01*
X243449999Y-90484498D01*
G37*
%TD.AperFunction*%
%TA.AperFunction,Conductor*%
G36*
X259318181Y-63409628D02*
G01*
X259351666Y-63470951D01*
X259354500Y-63497308D01*
X259354500Y-63644560D01*
X259354500Y-63644578D01*
X259354501Y-63647872D01*
X259354853Y-63651152D01*
X259354854Y-63651159D01*
X259360909Y-63707484D01*
X259377478Y-63751908D01*
X259411204Y-63842331D01*
X259497454Y-63957546D01*
X259612669Y-64043796D01*
X259747517Y-64094091D01*
X259807127Y-64100500D01*
X260715547Y-64100499D01*
X260782586Y-64120183D01*
X260828341Y-64172987D01*
X260838285Y-64242146D01*
X260809260Y-64305702D01*
X260803228Y-64312180D01*
X254867276Y-70248131D01*
X254805953Y-70281616D01*
X254736261Y-70276632D01*
X254693530Y-70249719D01*
X254648295Y-70206106D01*
X254648294Y-70206105D01*
X254648291Y-70206102D01*
X254426800Y-70047640D01*
X254184602Y-69923117D01*
X254184598Y-69923115D01*
X254184597Y-69923115D01*
X254012483Y-69864398D01*
X253926836Y-69835179D01*
X253659029Y-69785713D01*
X253386869Y-69775767D01*
X253116160Y-69805553D01*
X253070593Y-69817466D01*
X253000754Y-69815378D01*
X252943132Y-69775863D01*
X252916019Y-69711468D01*
X252928026Y-69642638D01*
X252951546Y-69609819D01*
X255152770Y-67408595D01*
X255214091Y-67375112D01*
X255214464Y-67375031D01*
X255279803Y-67361144D01*
X255279804Y-67361143D01*
X255279806Y-67361143D01*
X255452730Y-67284151D01*
X255605870Y-67172889D01*
X255647979Y-67126123D01*
X255732533Y-67032216D01*
X255827179Y-66868284D01*
X255885674Y-66688256D01*
X255905460Y-66500000D01*
X255885674Y-66311744D01*
X255855332Y-66218363D01*
X255827179Y-66131715D01*
X255732533Y-65967783D01*
X255605870Y-65827110D01*
X255452730Y-65715848D01*
X255279803Y-65638855D01*
X255214669Y-65625011D01*
X255153187Y-65591819D01*
X255152769Y-65591402D01*
X255083755Y-65522388D01*
X254991816Y-65430449D01*
X254958333Y-65369128D01*
X254955499Y-65342778D01*
X254955499Y-64067859D01*
X254975184Y-64000821D01*
X255027988Y-63955066D01*
X255097146Y-63945122D01*
X255138513Y-63958803D01*
X255190497Y-63986936D01*
X255230943Y-64000821D01*
X255410015Y-64062297D01*
X255410017Y-64062297D01*
X255410019Y-64062298D01*
X255638951Y-64100500D01*
X255638952Y-64100500D01*
X255871048Y-64100500D01*
X255871049Y-64100500D01*
X256099981Y-64062298D01*
X256319503Y-63986936D01*
X256523626Y-63876470D01*
X256706784Y-63733913D01*
X256863979Y-63563153D01*
X256901489Y-63505738D01*
X256954635Y-63460382D01*
X257023866Y-63450958D01*
X257087202Y-63480460D01*
X257101914Y-63497437D01*
X257103811Y-63497634D01*
X257771922Y-62829523D01*
X257795507Y-62909844D01*
X257873239Y-63030798D01*
X257981900Y-63124952D01*
X258112685Y-63184680D01*
X258122466Y-63186086D01*
X257456199Y-63852351D01*
X257486650Y-63876051D01*
X257690700Y-63986477D01*
X257910140Y-64061811D01*
X258138993Y-64100000D01*
X258371007Y-64100000D01*
X258599859Y-64061811D01*
X258819296Y-63986478D01*
X259023353Y-63876048D01*
X259053798Y-63852351D01*
X258387533Y-63186086D01*
X258397315Y-63184680D01*
X258528100Y-63124952D01*
X258636761Y-63030798D01*
X258714493Y-62909844D01*
X258738076Y-62829523D01*
X259318181Y-63409628D01*
G37*
%TD.AperFunction*%
%TA.AperFunction,Conductor*%
G36*
X261687365Y-65299738D02*
G01*
X261743298Y-65341610D01*
X261751418Y-65353919D01*
X261767467Y-65381717D01*
X261894129Y-65522389D01*
X262047269Y-65633651D01*
X262220197Y-65710644D01*
X262405352Y-65750000D01*
X262405354Y-65750000D01*
X262594648Y-65750000D01*
X262779800Y-65710645D01*
X262779801Y-65710644D01*
X262779803Y-65710644D01*
X262875066Y-65668229D01*
X262944313Y-65658944D01*
X263007590Y-65688572D01*
X263044804Y-65747707D01*
X263049500Y-65781509D01*
X263049500Y-66723300D01*
X263048191Y-66741270D01*
X263044710Y-66765030D01*
X263049027Y-66814380D01*
X263049499Y-66825162D01*
X263049499Y-66827107D01*
X263049499Y-66827118D01*
X263049500Y-66830715D01*
X263049916Y-66834276D01*
X263049917Y-66834290D01*
X263053098Y-66861502D01*
X263053464Y-66865088D01*
X263060109Y-66941047D01*
X263064329Y-66960077D01*
X263064758Y-66961257D01*
X263064759Y-66961261D01*
X263090413Y-67031748D01*
X263091582Y-67035113D01*
X263115580Y-67107530D01*
X263124075Y-67125078D01*
X263165979Y-67188790D01*
X263167889Y-67191788D01*
X263207288Y-67255662D01*
X263207952Y-67256738D01*
X263220253Y-67271836D01*
X263221168Y-67272699D01*
X263221170Y-67272702D01*
X263275709Y-67324157D01*
X263278296Y-67326670D01*
X263778738Y-67827112D01*
X264278181Y-68326554D01*
X264311666Y-68387877D01*
X264314500Y-68414235D01*
X264314500Y-70012290D01*
X264294815Y-70079329D01*
X264242011Y-70125084D01*
X264172853Y-70135028D01*
X264118350Y-70113138D01*
X264026800Y-70047640D01*
X263784602Y-69923117D01*
X263784598Y-69923115D01*
X263784597Y-69923115D01*
X263612483Y-69864398D01*
X263526836Y-69835179D01*
X263259029Y-69785713D01*
X262986869Y-69775767D01*
X262716160Y-69805553D01*
X262631944Y-69827570D01*
X262562106Y-69825482D01*
X262504483Y-69785967D01*
X262477371Y-69721573D01*
X262489377Y-69652742D01*
X262493180Y-69645626D01*
X262533934Y-69575039D01*
X262592429Y-69395011D01*
X262612215Y-69206755D01*
X262592429Y-69018499D01*
X262533934Y-68838471D01*
X262533934Y-68838470D01*
X262439288Y-68674538D01*
X262312625Y-68533865D01*
X262159487Y-68422604D01*
X261986558Y-68345611D01*
X261960034Y-68339973D01*
X261898553Y-68306779D01*
X261867887Y-68257001D01*
X261827179Y-68131715D01*
X261732533Y-67967783D01*
X261605870Y-67827110D01*
X261452730Y-67715848D01*
X261279802Y-67638855D01*
X261094648Y-67599500D01*
X261094646Y-67599500D01*
X260905354Y-67599500D01*
X260905352Y-67599500D01*
X260720197Y-67638855D01*
X260547269Y-67715848D01*
X260394129Y-67827110D01*
X260267466Y-67967783D01*
X260172820Y-68131715D01*
X260114326Y-68311742D01*
X260096192Y-68484278D01*
X260069607Y-68548893D01*
X260065157Y-68554018D01*
X260055286Y-68571973D01*
X260044609Y-68588228D01*
X260032326Y-68604063D01*
X260014975Y-68644158D01*
X260009838Y-68654644D01*
X259988802Y-68692907D01*
X259983821Y-68712309D01*
X259977520Y-68730711D01*
X259969561Y-68749102D01*
X259962728Y-68792242D01*
X259960360Y-68803674D01*
X259949500Y-68845977D01*
X259949500Y-68866016D01*
X259947973Y-68885414D01*
X259944840Y-68905194D01*
X259948950Y-68948673D01*
X259949500Y-68960343D01*
X259949500Y-69523466D01*
X259929815Y-69590505D01*
X259877011Y-69636260D01*
X259807853Y-69646204D01*
X259789582Y-69640934D01*
X259594648Y-69599500D01*
X259594646Y-69599500D01*
X259405354Y-69599500D01*
X259405352Y-69599500D01*
X259220197Y-69638855D01*
X259047269Y-69715848D01*
X258894129Y-69827110D01*
X258767466Y-69967783D01*
X258672820Y-70131715D01*
X258614326Y-70311742D01*
X258594540Y-70499999D01*
X258614326Y-70688257D01*
X258672820Y-70868284D01*
X258767466Y-71032216D01*
X258842649Y-71115715D01*
X258872879Y-71178707D01*
X258874499Y-71198687D01*
X258874500Y-72676296D01*
X258854815Y-72743335D01*
X258838181Y-72763977D01*
X257793703Y-73808454D01*
X257777605Y-73821352D01*
X257760065Y-73840029D01*
X257734797Y-73857987D01*
X257735308Y-73858690D01*
X257571625Y-73977611D01*
X257444962Y-74118283D01*
X257350316Y-74282215D01*
X257291822Y-74462242D01*
X257272036Y-74650500D01*
X257291822Y-74838757D01*
X257350316Y-75018784D01*
X257444962Y-75182716D01*
X257571625Y-75323389D01*
X257724765Y-75434651D01*
X257897693Y-75511644D01*
X258082848Y-75551000D01*
X258082850Y-75551000D01*
X258272144Y-75551000D01*
X258418377Y-75519917D01*
X258457299Y-75511644D01*
X258630226Y-75434651D01*
X258783367Y-75323388D01*
X258910029Y-75182716D01*
X259004675Y-75018784D01*
X259063170Y-74838756D01*
X259082956Y-74650500D01*
X259063170Y-74462244D01*
X259048865Y-74418221D01*
X259046871Y-74348381D01*
X259079114Y-74292225D01*
X259737820Y-73633519D01*
X259799141Y-73600036D01*
X259868833Y-73605020D01*
X259924766Y-73646892D01*
X259949183Y-73712356D01*
X259949499Y-73721202D01*
X259949500Y-76460022D01*
X259947235Y-76480532D01*
X259949439Y-76550638D01*
X259949500Y-76554533D01*
X259949500Y-76582116D01*
X259949988Y-76585985D01*
X259949989Y-76585991D01*
X259950004Y-76586109D01*
X259950918Y-76597733D01*
X259952290Y-76641392D01*
X259957879Y-76660626D01*
X259961825Y-76679682D01*
X259964335Y-76699558D01*
X259980414Y-76740170D01*
X259984197Y-76751217D01*
X259996382Y-76793157D01*
X260006580Y-76810401D01*
X260015136Y-76827866D01*
X260022514Y-76846498D01*
X260022515Y-76846499D01*
X260048180Y-76881825D01*
X260054593Y-76891588D01*
X260076826Y-76929182D01*
X260076829Y-76929185D01*
X260076830Y-76929186D01*
X260090995Y-76943351D01*
X260103627Y-76958141D01*
X260115406Y-76974353D01*
X260149058Y-77002192D01*
X260157699Y-77010055D01*
X260935463Y-77787819D01*
X260968948Y-77849142D01*
X260963964Y-77918834D01*
X260922092Y-77974767D01*
X260856628Y-77999184D01*
X260847782Y-77999500D01*
X259810439Y-77999500D01*
X259810420Y-77999500D01*
X259807128Y-77999501D01*
X259803848Y-77999853D01*
X259803840Y-77999854D01*
X259747515Y-78005909D01*
X259612669Y-78056204D01*
X259497454Y-78142454D01*
X259411204Y-78257668D01*
X259362819Y-78387397D01*
X259360909Y-78392517D01*
X259354500Y-78452127D01*
X259354500Y-78455448D01*
X259354500Y-78455449D01*
X259354500Y-78602690D01*
X259334815Y-78669729D01*
X259318181Y-78690371D01*
X258738076Y-79270475D01*
X258714493Y-79190156D01*
X258636761Y-79069202D01*
X258528100Y-78975048D01*
X258397315Y-78915320D01*
X258387534Y-78913913D01*
X259053799Y-78247648D01*
X259053799Y-78247647D01*
X259023349Y-78223948D01*
X258819299Y-78113522D01*
X258599859Y-78038188D01*
X258371007Y-78000000D01*
X258138993Y-78000000D01*
X257910140Y-78038188D01*
X257690703Y-78113521D01*
X257486645Y-78223952D01*
X257456200Y-78247646D01*
X257456200Y-78247647D01*
X258122466Y-78913913D01*
X258112685Y-78915320D01*
X257981900Y-78975048D01*
X257873239Y-79069202D01*
X257795507Y-79190156D01*
X257771923Y-79270476D01*
X257103811Y-78602364D01*
X257099029Y-78602860D01*
X257055957Y-78639618D01*
X256986726Y-78649040D01*
X256923391Y-78619538D01*
X256901491Y-78594263D01*
X256863979Y-78536847D01*
X256706784Y-78366087D01*
X256523626Y-78223530D01*
X256523625Y-78223529D01*
X256523622Y-78223527D01*
X256445481Y-78181239D01*
X256395890Y-78132019D01*
X256380499Y-78072188D01*
X256380499Y-71758204D01*
X256400184Y-71691166D01*
X256452988Y-71645411D01*
X256478711Y-71636916D01*
X256542102Y-71623443D01*
X256542103Y-71623442D01*
X256542105Y-71623442D01*
X256715029Y-71546450D01*
X256868169Y-71435188D01*
X256994832Y-71294515D01*
X257089478Y-71130583D01*
X257098584Y-71102558D01*
X257147973Y-70950555D01*
X257167759Y-70762299D01*
X257147973Y-70574043D01*
X257089841Y-70395132D01*
X257089478Y-70394014D01*
X256994832Y-70230082D01*
X256912324Y-70138448D01*
X256882094Y-70075457D01*
X256890719Y-70006121D01*
X256916790Y-69967798D01*
X261556352Y-65328237D01*
X261617673Y-65294754D01*
X261687365Y-65299738D01*
G37*
%TD.AperFunction*%
%TA.AperFunction,Conductor*%
G36*
X262360702Y-79213504D02*
G01*
X262367180Y-79219536D01*
X263131431Y-79983787D01*
X263144332Y-79999889D01*
X263146446Y-80001874D01*
X263146448Y-80001877D01*
X263174443Y-80028166D01*
X263195474Y-80047916D01*
X263198270Y-80050626D01*
X263217764Y-80070120D01*
X263220849Y-80072513D01*
X263220935Y-80072580D01*
X263229807Y-80080158D01*
X263261652Y-80110062D01*
X263279204Y-80119711D01*
X263295472Y-80130397D01*
X263311298Y-80142673D01*
X263351382Y-80160018D01*
X263361862Y-80165152D01*
X263400142Y-80186197D01*
X263404988Y-80187441D01*
X263419547Y-80191180D01*
X263437950Y-80197480D01*
X263456339Y-80205438D01*
X263499488Y-80212271D01*
X263510914Y-80214638D01*
X263526456Y-80218629D01*
X263553214Y-80225500D01*
X263553215Y-80225500D01*
X263573250Y-80225500D01*
X263592647Y-80227026D01*
X263612430Y-80230160D01*
X263655908Y-80226050D01*
X263667578Y-80225500D01*
X263680459Y-80225500D01*
X263747498Y-80245185D01*
X263793253Y-80297989D01*
X263795869Y-80304153D01*
X263818432Y-80361643D01*
X263818434Y-80361646D01*
X263942218Y-80576048D01*
X263949614Y-80588857D01*
X264113195Y-80793981D01*
X264113197Y-80793983D01*
X264113198Y-80793984D01*
X264305514Y-80972428D01*
X264305520Y-80972432D01*
X264305521Y-80972433D01*
X264522296Y-81120228D01*
X264758677Y-81234063D01*
X265009385Y-81311396D01*
X265268818Y-81350500D01*
X265531182Y-81350500D01*
X265790615Y-81311396D01*
X266041323Y-81234063D01*
X266277704Y-81120228D01*
X266494479Y-80972433D01*
X266494482Y-80972429D01*
X266494485Y-80972428D01*
X266630210Y-80846493D01*
X266686805Y-80793981D01*
X266850386Y-80588857D01*
X266981568Y-80361643D01*
X267077420Y-80117416D01*
X267114024Y-79957042D01*
X267148131Y-79896066D01*
X267209793Y-79863208D01*
X267279430Y-79868903D01*
X267322595Y-79896956D01*
X268213181Y-80787542D01*
X268246666Y-80848865D01*
X268249500Y-80875223D01*
X268249500Y-81625500D01*
X268229815Y-81692539D01*
X268177011Y-81738294D01*
X268125500Y-81749500D01*
X268039337Y-81749500D01*
X267972298Y-81729815D01*
X267966450Y-81725817D01*
X267952728Y-81715847D01*
X267779802Y-81638855D01*
X267594648Y-81599500D01*
X267594646Y-81599500D01*
X267405354Y-81599500D01*
X267405352Y-81599500D01*
X267220197Y-81638855D01*
X267047269Y-81715848D01*
X266894129Y-81827110D01*
X266767466Y-81967783D01*
X266672820Y-82131715D01*
X266614325Y-82311746D01*
X266612741Y-82326814D01*
X266586154Y-82391427D01*
X266577102Y-82401528D01*
X263948671Y-85029959D01*
X263887348Y-85063444D01*
X263817656Y-85058460D01*
X263761723Y-85016588D01*
X263753602Y-85004277D01*
X263732532Y-84967782D01*
X263605870Y-84827110D01*
X263452730Y-84715848D01*
X263279802Y-84638855D01*
X263094648Y-84599500D01*
X263094646Y-84599500D01*
X262905354Y-84599500D01*
X262905352Y-84599500D01*
X262720197Y-84638855D01*
X262547269Y-84715848D01*
X262388493Y-84831206D01*
X262322687Y-84854686D01*
X262315608Y-84854888D01*
X259537220Y-84854888D01*
X259470181Y-84835203D01*
X259424426Y-84782399D01*
X259414482Y-84713241D01*
X259435645Y-84659765D01*
X259440567Y-84652735D01*
X259440568Y-84652734D01*
X259536739Y-84446496D01*
X259595635Y-84226692D01*
X259615468Y-84000000D01*
X259595635Y-83773308D01*
X259536739Y-83553504D01*
X259440568Y-83347266D01*
X259430910Y-83333472D01*
X259310046Y-83160859D01*
X259149140Y-82999953D01*
X258962735Y-82869432D01*
X258756497Y-82773261D01*
X258536689Y-82714364D01*
X258309999Y-82694531D01*
X258083310Y-82714364D01*
X257863502Y-82773261D01*
X257657264Y-82869432D01*
X257470859Y-82999953D01*
X257309953Y-83160859D01*
X257179432Y-83347264D01*
X257083261Y-83553502D01*
X257024364Y-83773310D01*
X257004531Y-84000000D01*
X257024364Y-84226689D01*
X257083261Y-84446497D01*
X257179432Y-84652735D01*
X257184355Y-84659765D01*
X257206683Y-84725972D01*
X257189671Y-84793739D01*
X257138723Y-84841551D01*
X257082780Y-84854888D01*
X255290841Y-84854888D01*
X255223802Y-84835203D01*
X255203160Y-84818569D01*
X252938960Y-82554369D01*
X252905475Y-82493046D01*
X252903323Y-82479668D01*
X252885674Y-82311744D01*
X252855332Y-82218363D01*
X252827179Y-82131715D01*
X252732533Y-81967783D01*
X252605870Y-81827110D01*
X252452730Y-81715848D01*
X252279802Y-81638855D01*
X252124400Y-81605823D01*
X252062918Y-81572630D01*
X252029142Y-81511467D01*
X252033794Y-81441753D01*
X252075399Y-81385621D01*
X252080316Y-81382088D01*
X252094479Y-81372433D01*
X252286805Y-81193981D01*
X252450386Y-80988857D01*
X252581568Y-80761643D01*
X252677420Y-80517416D01*
X252714024Y-80357043D01*
X252748132Y-80296067D01*
X252809793Y-80263209D01*
X252879430Y-80268904D01*
X252922595Y-80296957D01*
X254639820Y-82014182D01*
X254673305Y-82075505D01*
X254670070Y-82140181D01*
X254614326Y-82311742D01*
X254594540Y-82499999D01*
X254614326Y-82688257D01*
X254672820Y-82868284D01*
X254767466Y-83032216D01*
X254894129Y-83172889D01*
X255047269Y-83284151D01*
X255220197Y-83361144D01*
X255405352Y-83400500D01*
X255405354Y-83400500D01*
X255594648Y-83400500D01*
X255764884Y-83364315D01*
X255779803Y-83361144D01*
X255952730Y-83284151D01*
X256046740Y-83215849D01*
X256105870Y-83172889D01*
X256136515Y-83138855D01*
X256232533Y-83032216D01*
X256327179Y-82868284D01*
X256385674Y-82688256D01*
X256405460Y-82500000D01*
X256385674Y-82311744D01*
X256355332Y-82218363D01*
X256327179Y-82131715D01*
X256267113Y-82027677D01*
X256250500Y-81965677D01*
X256250500Y-81876699D01*
X256251809Y-81858729D01*
X256251961Y-81857685D01*
X256255289Y-81834971D01*
X256250972Y-81785623D01*
X256250500Y-81774817D01*
X256250500Y-81772895D01*
X256250500Y-81769285D01*
X256246903Y-81738514D01*
X256246536Y-81734923D01*
X256239889Y-81658943D01*
X256235672Y-81639924D01*
X256233538Y-81634062D01*
X256209591Y-81568267D01*
X256208408Y-81564862D01*
X256184417Y-81492462D01*
X256175929Y-81474930D01*
X256175237Y-81473878D01*
X256175237Y-81473877D01*
X256133999Y-81411178D01*
X256132087Y-81408175D01*
X256092050Y-81343264D01*
X256079750Y-81328166D01*
X256024290Y-81275842D01*
X256021703Y-81273329D01*
X255760555Y-81012181D01*
X255727070Y-80950858D01*
X255732054Y-80881166D01*
X255773926Y-80825233D01*
X255839390Y-80800816D01*
X255848236Y-80800500D01*
X255871048Y-80800500D01*
X255871049Y-80800500D01*
X256099981Y-80762298D01*
X256319503Y-80686936D01*
X256523626Y-80576470D01*
X256706784Y-80433913D01*
X256863979Y-80263153D01*
X256901489Y-80205738D01*
X256954635Y-80160382D01*
X257023866Y-80150958D01*
X257087202Y-80180460D01*
X257101914Y-80197437D01*
X257103811Y-80197634D01*
X257771922Y-79529523D01*
X257795507Y-79609844D01*
X257873239Y-79730798D01*
X257981900Y-79824952D01*
X258112685Y-79884680D01*
X258122466Y-79886086D01*
X257456199Y-80552351D01*
X257486650Y-80576051D01*
X257690700Y-80686477D01*
X257910140Y-80761811D01*
X258138993Y-80800000D01*
X258371007Y-80800000D01*
X258599859Y-80761811D01*
X258819296Y-80686478D01*
X259023353Y-80576048D01*
X259053798Y-80552351D01*
X258387533Y-79886086D01*
X258397315Y-79884680D01*
X258528100Y-79824952D01*
X258636761Y-79730798D01*
X258714493Y-79609844D01*
X258738076Y-79529523D01*
X259318181Y-80109628D01*
X259351666Y-80170951D01*
X259354500Y-80197308D01*
X259354500Y-80344560D01*
X259354500Y-80344578D01*
X259354501Y-80347872D01*
X259354853Y-80351152D01*
X259354854Y-80351159D01*
X259360909Y-80407484D01*
X259376443Y-80449132D01*
X259411204Y-80542331D01*
X259497454Y-80657546D01*
X259612669Y-80743796D01*
X259747517Y-80794091D01*
X259807127Y-80800500D01*
X261702872Y-80800499D01*
X261762483Y-80794091D01*
X261897331Y-80743796D01*
X262012546Y-80657546D01*
X262098796Y-80542331D01*
X262149091Y-80407483D01*
X262155500Y-80347873D01*
X262155499Y-79307216D01*
X262175183Y-79240178D01*
X262227987Y-79194423D01*
X262297146Y-79184479D01*
X262360702Y-79213504D01*
G37*
%TD.AperFunction*%
%TA.AperFunction,Conductor*%
G36*
X242740507Y-88170156D02*
G01*
X242700000Y-88308111D01*
X242700000Y-88451889D01*
X242740507Y-88589844D01*
X242766314Y-88630000D01*
X241093686Y-88630000D01*
X241119493Y-88589844D01*
X241160000Y-88451889D01*
X241160000Y-88308111D01*
X241119493Y-88170156D01*
X241093686Y-88130000D01*
X242766314Y-88130000D01*
X242740507Y-88170156D01*
G37*
%TD.AperFunction*%
%TA.AperFunction,Conductor*%
G36*
X271550000Y-81195000D02*
G01*
X271704270Y-81195000D01*
X271771309Y-81214685D01*
X271817064Y-81267489D01*
X271827008Y-81336647D01*
X271797983Y-81400203D01*
X271791951Y-81406681D01*
X271485451Y-81713181D01*
X271424128Y-81746666D01*
X271397770Y-81749500D01*
X269874500Y-81749500D01*
X269807461Y-81729815D01*
X269761706Y-81677011D01*
X269750500Y-81625500D01*
X269750500Y-81121097D01*
X269770185Y-81054058D01*
X269822989Y-81008303D01*
X269892147Y-80998359D01*
X269955703Y-81027384D01*
X269973768Y-81046788D01*
X269977810Y-81052188D01*
X270092910Y-81138352D01*
X270227628Y-81188599D01*
X270283867Y-81194645D01*
X270290482Y-81195000D01*
X271050000Y-81195000D01*
X271050000Y-80338664D01*
X271073659Y-80351671D01*
X271222939Y-80390000D01*
X271338375Y-80390000D01*
X271452906Y-80375531D01*
X271550000Y-80337088D01*
X271550000Y-81195000D01*
G37*
%TD.AperFunction*%
%TA.AperFunction,Conductor*%
G36*
X272572401Y-77598849D02*
G01*
X272610925Y-77594290D01*
X272679814Y-77605958D01*
X272731458Y-77653018D01*
X272749500Y-77717430D01*
X272749500Y-78355393D01*
X272729815Y-78422432D01*
X272677011Y-78468187D01*
X272607853Y-78478131D01*
X272551190Y-78454661D01*
X272507088Y-78421647D01*
X272372371Y-78371400D01*
X272316132Y-78365354D01*
X272309518Y-78365000D01*
X271944982Y-78365000D01*
X271877943Y-78345315D01*
X271832188Y-78292511D01*
X271822244Y-78223353D01*
X271851269Y-78159797D01*
X271897529Y-78126439D01*
X272012693Y-78078736D01*
X272218848Y-77952402D01*
X272218849Y-77952401D01*
X271594212Y-77327765D01*
X271632377Y-77313291D01*
X271774275Y-77215346D01*
X271888610Y-77086288D01*
X271947547Y-76973994D01*
X272572401Y-77598849D01*
G37*
%TD.AperFunction*%
%TA.AperFunction,Conductor*%
G36*
X252391647Y-73686859D02*
G01*
X252439650Y-73721202D01*
X252483202Y-73752361D01*
X252704910Y-73866349D01*
X252725403Y-73876885D01*
X252983159Y-73964819D01*
X252983161Y-73964819D01*
X252983163Y-73964820D01*
X253250970Y-74014286D01*
X253523130Y-74024232D01*
X253523130Y-74024231D01*
X253523131Y-74024232D01*
X253793839Y-73994446D01*
X254057326Y-73925562D01*
X254307975Y-73819047D01*
X254325903Y-73808105D01*
X254393380Y-73789983D01*
X254459944Y-73811220D01*
X254504460Y-73865072D01*
X254514500Y-73913950D01*
X254514500Y-77049547D01*
X254494815Y-77116586D01*
X254478181Y-77137228D01*
X254052228Y-77563181D01*
X253990905Y-77596666D01*
X253964547Y-77599500D01*
X253905352Y-77599500D01*
X253720197Y-77638855D01*
X253547269Y-77715848D01*
X253394129Y-77827110D01*
X253267466Y-77967783D01*
X253172819Y-78131717D01*
X253163560Y-78160214D01*
X253124122Y-78217889D01*
X253059763Y-78245086D01*
X252990917Y-78233171D01*
X252957949Y-78209575D01*
X252231819Y-77483444D01*
X252198334Y-77422121D01*
X252195500Y-77395763D01*
X252195500Y-73787709D01*
X252215185Y-73720670D01*
X252267989Y-73674915D01*
X252337147Y-73664971D01*
X252391647Y-73686859D01*
G37*
%TD.AperFunction*%
%TA.AperFunction,Conductor*%
G36*
X259318181Y-46709628D02*
G01*
X259351666Y-46770951D01*
X259354500Y-46797308D01*
X259354500Y-46944560D01*
X259354500Y-46944578D01*
X259354501Y-46947872D01*
X259354853Y-46951152D01*
X259354854Y-46951159D01*
X259360909Y-47007484D01*
X259386026Y-47074825D01*
X259411204Y-47142331D01*
X259497454Y-47257546D01*
X259612669Y-47343796D01*
X259747517Y-47394091D01*
X259807127Y-47400500D01*
X261230499Y-47400499D01*
X261297538Y-47420184D01*
X261343293Y-47472987D01*
X261354499Y-47524499D01*
X261354500Y-50709546D01*
X261334815Y-50776585D01*
X261318181Y-50797227D01*
X256462180Y-55653227D01*
X256400857Y-55686712D01*
X256331165Y-55681728D01*
X256275232Y-55639856D01*
X256250815Y-55574392D01*
X256250500Y-55565573D01*
X256250500Y-54034321D01*
X256267113Y-53972321D01*
X256305306Y-53906170D01*
X256327179Y-53868284D01*
X256385674Y-53688256D01*
X256405460Y-53500000D01*
X256385674Y-53311744D01*
X256338490Y-53166528D01*
X256327179Y-53131715D01*
X256232533Y-52967783D01*
X256105870Y-52827110D01*
X255952730Y-52715848D01*
X255779803Y-52638855D01*
X255714669Y-52625011D01*
X255653187Y-52591819D01*
X255652769Y-52591402D01*
X254991819Y-51930451D01*
X254958334Y-51869128D01*
X254955500Y-51842770D01*
X254955500Y-47367860D01*
X254975185Y-47300821D01*
X255027989Y-47255066D01*
X255097147Y-47245122D01*
X255138514Y-47258804D01*
X255189649Y-47286477D01*
X255190499Y-47286937D01*
X255410015Y-47362297D01*
X255410017Y-47362297D01*
X255410019Y-47362298D01*
X255638951Y-47400500D01*
X255638952Y-47400500D01*
X255871048Y-47400500D01*
X255871049Y-47400500D01*
X256099981Y-47362298D01*
X256319503Y-47286936D01*
X256523626Y-47176470D01*
X256706784Y-47033913D01*
X256863979Y-46863153D01*
X256901489Y-46805738D01*
X256954635Y-46760382D01*
X257023866Y-46750958D01*
X257087202Y-46780460D01*
X257101914Y-46797437D01*
X257103811Y-46797634D01*
X257771922Y-46129523D01*
X257795507Y-46209844D01*
X257873239Y-46330798D01*
X257981900Y-46424952D01*
X258112685Y-46484680D01*
X258122466Y-46486086D01*
X257456199Y-47152351D01*
X257486650Y-47176051D01*
X257690700Y-47286477D01*
X257910140Y-47361811D01*
X258138993Y-47400000D01*
X258371007Y-47400000D01*
X258599859Y-47361811D01*
X258819296Y-47286478D01*
X259023353Y-47176048D01*
X259053798Y-47152351D01*
X258387533Y-46486086D01*
X258397315Y-46484680D01*
X258528100Y-46424952D01*
X258636761Y-46330798D01*
X258714493Y-46209844D01*
X258738076Y-46129523D01*
X259318181Y-46709628D01*
G37*
%TD.AperFunction*%
%TA.AperFunction,Conductor*%
G36*
X256272672Y-59555485D02*
G01*
X256316553Y-59586732D01*
X256394129Y-59672889D01*
X256547269Y-59784151D01*
X256720197Y-59861144D01*
X256905352Y-59900500D01*
X256905354Y-59900500D01*
X257094648Y-59900500D01*
X257218083Y-59874262D01*
X257279803Y-59861144D01*
X257452730Y-59784151D01*
X257605871Y-59672888D01*
X257611598Y-59666527D01*
X257671084Y-59629879D01*
X257703747Y-59625500D01*
X259796253Y-59625500D01*
X259863292Y-59645185D01*
X259888400Y-59666526D01*
X259894129Y-59672888D01*
X260047270Y-59784151D01*
X260047271Y-59784151D01*
X260047272Y-59784152D01*
X260220197Y-59861144D01*
X260405352Y-59900500D01*
X260405354Y-59900500D01*
X260594648Y-59900500D01*
X260718084Y-59874262D01*
X260779803Y-59861144D01*
X260952730Y-59784151D01*
X261105871Y-59672888D01*
X261158350Y-59614603D01*
X261217836Y-59577955D01*
X261287693Y-59579285D01*
X261345742Y-59618172D01*
X261373552Y-59682268D01*
X261374500Y-59697576D01*
X261374500Y-61175500D01*
X261354815Y-61242539D01*
X261302011Y-61288294D01*
X261250500Y-61299500D01*
X259810439Y-61299500D01*
X259810420Y-61299500D01*
X259807128Y-61299501D01*
X259803848Y-61299853D01*
X259803840Y-61299854D01*
X259747515Y-61305909D01*
X259612669Y-61356204D01*
X259497454Y-61442454D01*
X259411204Y-61557668D01*
X259370767Y-61666087D01*
X259360909Y-61692517D01*
X259354500Y-61752127D01*
X259354500Y-61755448D01*
X259354500Y-61755449D01*
X259354500Y-61902690D01*
X259334815Y-61969729D01*
X259318181Y-61990371D01*
X258738076Y-62570475D01*
X258714493Y-62490156D01*
X258636761Y-62369202D01*
X258528100Y-62275048D01*
X258397315Y-62215320D01*
X258387534Y-62213913D01*
X259053799Y-61547648D01*
X259053799Y-61547647D01*
X259023349Y-61523948D01*
X258819299Y-61413522D01*
X258599859Y-61338188D01*
X258371007Y-61300000D01*
X258138993Y-61300000D01*
X257910140Y-61338188D01*
X257690703Y-61413521D01*
X257486645Y-61523952D01*
X257456200Y-61547646D01*
X257456200Y-61547647D01*
X258122466Y-62213913D01*
X258112685Y-62215320D01*
X257981900Y-62275048D01*
X257873239Y-62369202D01*
X257795507Y-62490156D01*
X257771923Y-62570476D01*
X257103811Y-61902364D01*
X257099029Y-61902860D01*
X257055957Y-61939618D01*
X256986726Y-61949040D01*
X256923391Y-61919538D01*
X256901491Y-61894263D01*
X256863979Y-61836847D01*
X256706784Y-61666087D01*
X256523626Y-61523530D01*
X256319503Y-61413064D01*
X256319499Y-61413062D01*
X256319498Y-61413062D01*
X256099984Y-61337702D01*
X255924000Y-61308336D01*
X255871049Y-61299500D01*
X255638951Y-61299500D01*
X255600544Y-61305909D01*
X255410015Y-61337702D01*
X255190495Y-61413064D01*
X255138515Y-61441194D01*
X255070187Y-61455789D01*
X255004815Y-61431125D01*
X254963155Y-61375035D01*
X254955499Y-61332139D01*
X254955499Y-61227511D01*
X254955499Y-61010187D01*
X254975184Y-60943151D01*
X255027988Y-60897396D01*
X255097146Y-60887452D01*
X255105273Y-60888898D01*
X255159854Y-60900500D01*
X255349148Y-60900500D01*
X255472584Y-60874262D01*
X255534303Y-60861144D01*
X255707230Y-60784151D01*
X255833112Y-60692693D01*
X255860370Y-60672889D01*
X255897443Y-60631716D01*
X255987033Y-60532216D01*
X256081679Y-60368284D01*
X256140174Y-60188256D01*
X256159960Y-60000000D01*
X256140174Y-59811744D01*
X256106471Y-59708020D01*
X256104477Y-59638181D01*
X256140557Y-59578348D01*
X256203258Y-59547520D01*
X256272672Y-59555485D01*
G37*
%TD.AperFunction*%
%TA.AperFunction,Conductor*%
G36*
X246363292Y-53145185D02*
G01*
X246388400Y-53166526D01*
X246394129Y-53172888D01*
X246547270Y-53284151D01*
X246547271Y-53284151D01*
X246547272Y-53284152D01*
X246720197Y-53361144D01*
X246905352Y-53400500D01*
X246905354Y-53400500D01*
X247094648Y-53400500D01*
X247203918Y-53377274D01*
X247273585Y-53382590D01*
X247329319Y-53424727D01*
X247353424Y-53490307D01*
X247338247Y-53558508D01*
X247309022Y-53593873D01*
X247305226Y-53597031D01*
X247123480Y-53799871D01*
X246973210Y-54027005D01*
X246857615Y-54273589D01*
X246779153Y-54534388D01*
X246779153Y-54534389D01*
X246739500Y-54803829D01*
X246739500Y-55528000D01*
X246739664Y-55530249D01*
X246739665Y-55530259D01*
X246754402Y-55731617D01*
X246813616Y-55997438D01*
X246902011Y-56228555D01*
X246910907Y-56251814D01*
X247044196Y-56489310D01*
X247109260Y-56573570D01*
X247210645Y-56704869D01*
X247406704Y-56893894D01*
X247561855Y-57004894D01*
X247604924Y-57059911D01*
X247611412Y-57129478D01*
X247579259Y-57191510D01*
X247557047Y-57207134D01*
X247557813Y-57208188D01*
X247394129Y-57327110D01*
X247267466Y-57467783D01*
X247172820Y-57631715D01*
X247114326Y-57811742D01*
X247096835Y-57978160D01*
X247094540Y-58000000D01*
X247095962Y-58013532D01*
X247114326Y-58188257D01*
X247172820Y-58368284D01*
X247267466Y-58532216D01*
X247394129Y-58672889D01*
X247547269Y-58784151D01*
X247720194Y-58861143D01*
X247720195Y-58861143D01*
X247720197Y-58861144D01*
X247776280Y-58873064D01*
X247837761Y-58906254D01*
X247871539Y-58967417D01*
X247874500Y-58994354D01*
X247874499Y-61494127D01*
X247854814Y-61561167D01*
X247802010Y-61606921D01*
X247732852Y-61616865D01*
X247669296Y-61587840D01*
X247651232Y-61568437D01*
X247557190Y-61442812D01*
X247442089Y-61356647D01*
X247307371Y-61306400D01*
X247251132Y-61300354D01*
X247244518Y-61300000D01*
X246550000Y-61300000D01*
X246550000Y-62264498D01*
X246442315Y-62215320D01*
X246335763Y-62200000D01*
X246264237Y-62200000D01*
X246157685Y-62215320D01*
X246050000Y-62264498D01*
X246050000Y-61300000D01*
X246011645Y-61300000D01*
X245944606Y-61280315D01*
X245898851Y-61227511D01*
X245888324Y-61163039D01*
X245905460Y-61000000D01*
X245885674Y-60811744D01*
X245856569Y-60722168D01*
X245850500Y-60683850D01*
X245850500Y-58061132D01*
X245870185Y-57994093D01*
X245882350Y-57978160D01*
X245957033Y-57895216D01*
X246051679Y-57731284D01*
X246081711Y-57638855D01*
X246110174Y-57551256D01*
X246129960Y-57363000D01*
X246110174Y-57174744D01*
X246072862Y-57059911D01*
X246051679Y-56994715D01*
X245957033Y-56830783D01*
X245830370Y-56690110D01*
X245677230Y-56578848D01*
X245504302Y-56501855D01*
X245319148Y-56462500D01*
X245319146Y-56462500D01*
X245249499Y-56462500D01*
X245182460Y-56442815D01*
X245136705Y-56390011D01*
X245125499Y-56338500D01*
X245125499Y-54000000D01*
X245145184Y-53932961D01*
X245197988Y-53887206D01*
X245249499Y-53876000D01*
X245319148Y-53876000D01*
X245442584Y-53849762D01*
X245504303Y-53836644D01*
X245677230Y-53759651D01*
X245830371Y-53648388D01*
X245957033Y-53507716D01*
X246051679Y-53343784D01*
X246094764Y-53211181D01*
X246134201Y-53153507D01*
X246198560Y-53126308D01*
X246212695Y-53125500D01*
X246296253Y-53125500D01*
X246363292Y-53145185D01*
G37*
%TD.AperFunction*%
%TA.AperFunction,Conductor*%
G36*
X247905203Y-28290239D02*
G01*
X247911675Y-28296265D01*
X248665409Y-29050000D01*
X249299196Y-29683787D01*
X249312096Y-29699888D01*
X249363223Y-29747900D01*
X249366020Y-29750611D01*
X249385529Y-29770120D01*
X249388709Y-29772587D01*
X249397571Y-29780155D01*
X249429418Y-29810062D01*
X249446972Y-29819712D01*
X249463236Y-29830396D01*
X249474972Y-29839499D01*
X249479064Y-29842673D01*
X249503909Y-29853424D01*
X249519152Y-29860021D01*
X249529631Y-29865154D01*
X249567908Y-29886197D01*
X249587306Y-29891177D01*
X249605708Y-29897477D01*
X249624104Y-29905438D01*
X249667261Y-29912273D01*
X249678664Y-29914634D01*
X249720981Y-29925500D01*
X249741016Y-29925500D01*
X249760413Y-29927026D01*
X249780196Y-29930160D01*
X249823674Y-29926050D01*
X249835344Y-29925500D01*
X254423650Y-29925500D01*
X254490689Y-29945185D01*
X254527456Y-29981676D01*
X254646021Y-30163153D01*
X254803216Y-30333913D01*
X254986374Y-30476470D01*
X255158622Y-30569686D01*
X255208212Y-30618905D01*
X255223320Y-30687121D01*
X255199150Y-30752677D01*
X255187285Y-30766421D01*
X254514359Y-31439346D01*
X254500728Y-31451126D01*
X254481470Y-31465463D01*
X254449635Y-31503403D01*
X254442338Y-31511367D01*
X254440972Y-31512732D01*
X254440950Y-31512756D01*
X254438409Y-31515298D01*
X254436173Y-31518125D01*
X254436171Y-31518128D01*
X254419176Y-31539621D01*
X254416902Y-31542412D01*
X254367894Y-31600819D01*
X254357418Y-31617262D01*
X254325192Y-31686369D01*
X254323622Y-31689611D01*
X254289393Y-31757767D01*
X254282996Y-31776173D01*
X254267575Y-31850857D01*
X254266795Y-31854376D01*
X254249208Y-31928584D01*
X254247229Y-31947956D01*
X254249447Y-32024205D01*
X254249499Y-32027810D01*
X254249499Y-33490200D01*
X254229814Y-33557239D01*
X254213180Y-33577881D01*
X250959358Y-36831703D01*
X250945727Y-36843484D01*
X250926468Y-36857822D01*
X250894635Y-36895759D01*
X250887338Y-36903723D01*
X250885972Y-36905088D01*
X250885950Y-36905112D01*
X250883409Y-36907654D01*
X250881173Y-36910481D01*
X250881171Y-36910484D01*
X250864176Y-36931977D01*
X250861902Y-36934768D01*
X250812894Y-36993175D01*
X250802418Y-37009618D01*
X250770192Y-37078725D01*
X250768622Y-37081967D01*
X250734393Y-37150123D01*
X250727996Y-37168529D01*
X250712573Y-37243219D01*
X250711793Y-37246736D01*
X250694208Y-37320937D01*
X250692229Y-37340310D01*
X250694448Y-37416560D01*
X250694500Y-37420166D01*
X250694500Y-37976186D01*
X250674815Y-38043225D01*
X250622011Y-38088980D01*
X250552853Y-38098924D01*
X250489297Y-38069899D01*
X250451523Y-38011121D01*
X250446831Y-37985237D01*
X250445597Y-37968382D01*
X250386383Y-37702561D01*
X250386382Y-37702558D01*
X250289093Y-37448186D01*
X250155804Y-37210690D01*
X250039174Y-37059649D01*
X249989354Y-36995130D01*
X249793295Y-36806105D01*
X249571800Y-36647640D01*
X249329602Y-36523117D01*
X249329598Y-36523115D01*
X249329597Y-36523115D01*
X249182487Y-36472928D01*
X249071836Y-36435179D01*
X248804029Y-36385713D01*
X248531869Y-36375767D01*
X248261162Y-36405553D01*
X248003450Y-36472928D01*
X247997674Y-36474438D01*
X247902165Y-36515025D01*
X247832768Y-36523128D01*
X247770005Y-36492425D01*
X247733806Y-36432664D01*
X247735662Y-36362819D01*
X247746282Y-36338902D01*
X247827179Y-36198784D01*
X247848971Y-36131715D01*
X247885674Y-36018756D01*
X247905460Y-35830500D01*
X247885674Y-35642244D01*
X247828169Y-35465262D01*
X247827179Y-35462215D01*
X247732533Y-35298283D01*
X247605870Y-35157610D01*
X247452730Y-35046348D01*
X247279802Y-34969355D01*
X247094648Y-34930000D01*
X247094646Y-34930000D01*
X246905354Y-34930000D01*
X246905352Y-34930000D01*
X246720197Y-34969355D01*
X246547269Y-35046348D01*
X246394132Y-35157608D01*
X246385936Y-35166711D01*
X246345703Y-35211395D01*
X246341650Y-35215896D01*
X246282163Y-35252544D01*
X246212306Y-35251213D01*
X246154258Y-35212326D01*
X246126448Y-35148230D01*
X246125500Y-35132923D01*
X246125500Y-33310451D01*
X246145185Y-33243412D01*
X246161819Y-33222770D01*
X246447771Y-32936819D01*
X246509094Y-32903334D01*
X246535452Y-32900500D01*
X246594648Y-32900500D01*
X246723940Y-32873018D01*
X246779803Y-32861144D01*
X246952730Y-32784151D01*
X247016703Y-32737672D01*
X247105870Y-32672889D01*
X247115278Y-32662441D01*
X247232533Y-32532216D01*
X247327179Y-32368284D01*
X247385674Y-32188256D01*
X247405460Y-32000000D01*
X247385674Y-31811744D01*
X247380128Y-31794674D01*
X247377900Y-31787817D01*
X247375905Y-31717976D01*
X247411986Y-31658143D01*
X247474687Y-31627316D01*
X247495831Y-31625500D01*
X248289548Y-31625500D01*
X248356587Y-31645185D01*
X248377229Y-31661819D01*
X249442796Y-32727387D01*
X249476281Y-32788710D01*
X249471297Y-32858402D01*
X249470544Y-32860369D01*
X249422580Y-32982584D01*
X249364197Y-33238372D01*
X249344591Y-33499999D01*
X249364197Y-33761627D01*
X249422580Y-34017418D01*
X249518431Y-34261641D01*
X249610883Y-34421774D01*
X249649614Y-34488857D01*
X249813195Y-34693981D01*
X249813197Y-34693983D01*
X249813198Y-34693984D01*
X250005514Y-34872428D01*
X250005520Y-34872432D01*
X250005521Y-34872433D01*
X250222296Y-35020228D01*
X250458677Y-35134063D01*
X250709385Y-35211396D01*
X250968818Y-35250500D01*
X251231182Y-35250500D01*
X251490615Y-35211396D01*
X251741323Y-35134063D01*
X251977704Y-35020228D01*
X252194479Y-34872433D01*
X252194482Y-34872429D01*
X252194485Y-34872428D01*
X252290485Y-34783353D01*
X252386805Y-34693981D01*
X252550386Y-34488857D01*
X252681568Y-34261643D01*
X252777420Y-34017416D01*
X252835802Y-33761630D01*
X252855408Y-33500000D01*
X252835802Y-33238370D01*
X252777420Y-32982584D01*
X252774071Y-32974052D01*
X252735191Y-32874987D01*
X252681568Y-32738357D01*
X252550386Y-32511143D01*
X252386805Y-32306019D01*
X252313980Y-32238447D01*
X252194485Y-32127571D01*
X252113087Y-32072075D01*
X251977704Y-31979772D01*
X251741323Y-31865937D01*
X251490615Y-31788604D01*
X251231182Y-31749500D01*
X250968818Y-31749500D01*
X250709385Y-31788604D01*
X250458677Y-31865937D01*
X250458675Y-31865937D01*
X250449798Y-31868676D01*
X250448840Y-31865571D01*
X250395994Y-31874266D01*
X250331862Y-31846536D01*
X250323467Y-31838877D01*
X249100802Y-30616211D01*
X249087906Y-30600113D01*
X249036775Y-30552098D01*
X249033978Y-30549387D01*
X249017227Y-30532636D01*
X249014471Y-30529880D01*
X249011290Y-30527412D01*
X249002422Y-30519837D01*
X248970582Y-30489938D01*
X248953024Y-30480285D01*
X248936764Y-30469604D01*
X248920936Y-30457327D01*
X248880851Y-30439980D01*
X248870361Y-30434841D01*
X248832091Y-30413802D01*
X248812691Y-30408821D01*
X248794284Y-30402519D01*
X248775897Y-30394562D01*
X248732758Y-30387729D01*
X248721324Y-30385361D01*
X248679019Y-30374500D01*
X248658984Y-30374500D01*
X248639586Y-30372973D01*
X248632162Y-30371797D01*
X248619805Y-30369840D01*
X248619804Y-30369840D01*
X248586751Y-30372964D01*
X248576325Y-30373950D01*
X248564656Y-30374500D01*
X247823857Y-30374500D01*
X247756818Y-30354815D01*
X247711063Y-30302011D01*
X247700096Y-30244204D01*
X247700000Y-30247828D01*
X247700000Y-29550000D01*
X246733686Y-29550000D01*
X246759493Y-29509844D01*
X246800000Y-29371889D01*
X246800000Y-29228111D01*
X246759493Y-29090156D01*
X246733686Y-29050000D01*
X247700000Y-29050000D01*
X247700000Y-28383952D01*
X247719685Y-28316913D01*
X247772489Y-28271158D01*
X247841647Y-28261214D01*
X247905203Y-28290239D01*
G37*
%TD.AperFunction*%
%TA.AperFunction,Conductor*%
G36*
X256039471Y-36195685D02*
G01*
X256085226Y-36248489D01*
X256095752Y-36287037D01*
X256103707Y-36362716D01*
X256114326Y-36463757D01*
X256172820Y-36643784D01*
X256267466Y-36807716D01*
X256394129Y-36948389D01*
X256547269Y-37059651D01*
X256720197Y-37136644D01*
X256905352Y-37176000D01*
X256905354Y-37176000D01*
X256964548Y-37176000D01*
X257031587Y-37195685D01*
X257052229Y-37212319D01*
X261318181Y-41478270D01*
X261351666Y-41539593D01*
X261354500Y-41565951D01*
X261354500Y-44475500D01*
X261334815Y-44542539D01*
X261282011Y-44588294D01*
X261230500Y-44599500D01*
X259827819Y-44599500D01*
X259760780Y-44579815D01*
X259731920Y-44546509D01*
X259723847Y-44582811D01*
X259674213Y-44631987D01*
X259658626Y-44639062D01*
X259612671Y-44656202D01*
X259497454Y-44742454D01*
X259411204Y-44857668D01*
X259370075Y-44967942D01*
X259360909Y-44992517D01*
X259354500Y-45052127D01*
X259354500Y-45055448D01*
X259354500Y-45055449D01*
X259354500Y-45202689D01*
X259334815Y-45269728D01*
X259318181Y-45290370D01*
X258738076Y-45870473D01*
X258714493Y-45790156D01*
X258636761Y-45669202D01*
X258528100Y-45575048D01*
X258397315Y-45515320D01*
X258387532Y-45513913D01*
X259053799Y-44847647D01*
X259023349Y-44823948D01*
X258819299Y-44713522D01*
X258599859Y-44638188D01*
X258371007Y-44600000D01*
X258138993Y-44600000D01*
X257910140Y-44638188D01*
X257690703Y-44713521D01*
X257486645Y-44823952D01*
X257456200Y-44847646D01*
X257456200Y-44847647D01*
X258122467Y-45513913D01*
X258112685Y-45515320D01*
X257981900Y-45575048D01*
X257873239Y-45669202D01*
X257795507Y-45790156D01*
X257771923Y-45870474D01*
X257103811Y-45202364D01*
X257099029Y-45202860D01*
X257055957Y-45239618D01*
X256986726Y-45249040D01*
X256923391Y-45219538D01*
X256901491Y-45194263D01*
X256863979Y-45136847D01*
X256706784Y-44966087D01*
X256523626Y-44823530D01*
X256319503Y-44713064D01*
X256319499Y-44713062D01*
X256319498Y-44713062D01*
X256156605Y-44657140D01*
X256099589Y-44616754D01*
X256073459Y-44551955D01*
X256086511Y-44483315D01*
X256109180Y-44452185D01*
X256274549Y-44286816D01*
X256335872Y-44253334D01*
X256362229Y-44250500D01*
X258960663Y-44250500D01*
X259027702Y-44270185D01*
X259033550Y-44274183D01*
X259047271Y-44284152D01*
X259220197Y-44361144D01*
X259405352Y-44400500D01*
X259607679Y-44400500D01*
X259607679Y-44402979D01*
X259659162Y-44406901D01*
X259710595Y-44445777D01*
X259734106Y-44394297D01*
X259777384Y-44362220D01*
X259779798Y-44361144D01*
X259779803Y-44361144D01*
X259952730Y-44284151D01*
X259952730Y-44284150D01*
X259952732Y-44284150D01*
X260105870Y-44172889D01*
X260232533Y-44032216D01*
X260327179Y-43868284D01*
X260344380Y-43815346D01*
X260385674Y-43688256D01*
X260405460Y-43500000D01*
X260385674Y-43311744D01*
X260327179Y-43131716D01*
X260327179Y-43131715D01*
X260232533Y-42967783D01*
X260105870Y-42827110D01*
X259952730Y-42715848D01*
X259779802Y-42638855D01*
X259594648Y-42599500D01*
X259594646Y-42599500D01*
X259405354Y-42599500D01*
X259405352Y-42599500D01*
X259220197Y-42638855D01*
X259047271Y-42715847D01*
X259033550Y-42725817D01*
X258967744Y-42749298D01*
X258960663Y-42749500D01*
X256063706Y-42749500D01*
X256045736Y-42748191D01*
X256030811Y-42746005D01*
X256021977Y-42744711D01*
X256021976Y-42744711D01*
X255972634Y-42749028D01*
X255961827Y-42749500D01*
X255714660Y-42749500D01*
X255647621Y-42729815D01*
X255626979Y-42713181D01*
X253719234Y-40805436D01*
X253685749Y-40744113D01*
X253690733Y-40674421D01*
X253732605Y-40618488D01*
X253785303Y-40597680D01*
X253785058Y-40596742D01*
X253792821Y-40594712D01*
X253793363Y-40594498D01*
X253793839Y-40594446D01*
X254057326Y-40525562D01*
X254307975Y-40419047D01*
X254540444Y-40277173D01*
X254749779Y-40102963D01*
X254931518Y-39900131D01*
X255081788Y-39672998D01*
X255197386Y-39426406D01*
X255275847Y-39165611D01*
X255315500Y-38896171D01*
X255315500Y-38172000D01*
X255303539Y-38008585D01*
X255300597Y-37968382D01*
X255241383Y-37702561D01*
X255241382Y-37702558D01*
X255144093Y-37448186D01*
X255010804Y-37210690D01*
X254844355Y-36995132D01*
X254830996Y-36982252D01*
X254796398Y-36921553D01*
X254800108Y-36851782D01*
X254840950Y-36795092D01*
X254866623Y-36779707D01*
X254989804Y-36724863D01*
X254989804Y-36724862D01*
X254989806Y-36724862D01*
X255142944Y-36613601D01*
X255172341Y-36580953D01*
X255269607Y-36472928D01*
X255364253Y-36308996D01*
X255379625Y-36261683D01*
X255419063Y-36204007D01*
X255483421Y-36176808D01*
X255497557Y-36176000D01*
X255972432Y-36176000D01*
X256039471Y-36195685D01*
G37*
%TD.AperFunction*%
%TA.AperFunction,Conductor*%
G36*
X263193363Y-30802396D02*
G01*
X263238698Y-30855561D01*
X263249499Y-30906177D01*
X263249499Y-32137770D01*
X263229814Y-32204809D01*
X263213180Y-32225451D01*
X262725451Y-32713181D01*
X262664128Y-32746666D01*
X262637770Y-32749500D01*
X258362230Y-32749500D01*
X258295191Y-32729815D01*
X258274549Y-32713181D01*
X257412771Y-31851403D01*
X257382521Y-31802040D01*
X257369777Y-31762818D01*
X257367782Y-31692977D01*
X257403862Y-31633144D01*
X257466563Y-31602316D01*
X257487708Y-31600500D01*
X261936294Y-31600500D01*
X261954264Y-31601809D01*
X261958320Y-31602402D01*
X261978023Y-31605289D01*
X262027368Y-31600972D01*
X262038176Y-31600500D01*
X262040100Y-31600500D01*
X262043709Y-31600500D01*
X262074550Y-31596894D01*
X262078031Y-31596539D01*
X262152797Y-31589999D01*
X262152797Y-31589998D01*
X262154052Y-31589889D01*
X262173062Y-31585674D01*
X262174250Y-31585241D01*
X262174255Y-31585241D01*
X262244820Y-31559557D01*
X262248095Y-31558419D01*
X262319334Y-31534814D01*
X262319336Y-31534812D01*
X262320536Y-31534415D01*
X262338063Y-31525929D01*
X262339112Y-31525238D01*
X262339117Y-31525237D01*
X262401806Y-31484005D01*
X262404798Y-31482099D01*
X262468656Y-31442712D01*
X262468656Y-31442711D01*
X262469729Y-31442050D01*
X262484824Y-31429753D01*
X262485692Y-31428832D01*
X262485696Y-31428830D01*
X262537184Y-31374254D01*
X262539630Y-31371736D01*
X262835642Y-31075724D01*
X262849260Y-31063954D01*
X262868530Y-31049610D01*
X262900366Y-31011667D01*
X262907680Y-31003688D01*
X262908264Y-31003103D01*
X262911591Y-30999777D01*
X262930833Y-30975439D01*
X262933090Y-30972670D01*
X262950276Y-30952188D01*
X262981302Y-30915214D01*
X262981303Y-30915211D01*
X262982115Y-30914244D01*
X262992575Y-30897825D01*
X262993109Y-30896679D01*
X262993111Y-30896677D01*
X263013117Y-30853772D01*
X263059288Y-30801334D01*
X263126481Y-30782181D01*
X263193363Y-30802396D01*
G37*
%TD.AperFunction*%
%TD*%
M02*
