%TF.GenerationSoftware,KiCad,Pcbnew,7.0.2-0*%
%TF.CreationDate,2023-12-08T13:33:26+01:00*%
%TF.ProjectId,output_mixer,6f757470-7574-45f6-9d69-7865722e6b69,rev?*%
%TF.SameCoordinates,Original*%
%TF.FileFunction,Other,Comment*%
%FSLAX46Y46*%
G04 Gerber Fmt 4.6, Leading zero omitted, Abs format (unit mm)*
G04 Created by KiCad (PCBNEW 7.0.2-0) date 2023-12-08 13:33:26*
%MOMM*%
%LPD*%
G01*
G04 APERTURE LIST*
%ADD10C,0.051000*%
G04 APERTURE END LIST*
D10*
%TO.C,J2*%
X270061904Y-40085047D02*
X270061904Y-39685047D01*
X270290475Y-40085047D02*
X270119046Y-39856476D01*
X270290475Y-39685047D02*
X270061904Y-39913619D01*
X270461904Y-39875523D02*
X270595237Y-39875523D01*
X270652380Y-40085047D02*
X270461904Y-40085047D01*
X270461904Y-40085047D02*
X270461904Y-39685047D01*
X270461904Y-39685047D02*
X270652380Y-39685047D01*
X270823809Y-39875523D02*
X270957142Y-39875523D01*
X271014285Y-40085047D02*
X270823809Y-40085047D01*
X270823809Y-40085047D02*
X270823809Y-39685047D01*
X270823809Y-39685047D02*
X271014285Y-39685047D01*
X271185714Y-40085047D02*
X271185714Y-39685047D01*
X271185714Y-39685047D02*
X271338095Y-39685047D01*
X271338095Y-39685047D02*
X271376190Y-39704095D01*
X271376190Y-39704095D02*
X271395237Y-39723142D01*
X271395237Y-39723142D02*
X271414285Y-39761238D01*
X271414285Y-39761238D02*
X271414285Y-39818380D01*
X271414285Y-39818380D02*
X271395237Y-39856476D01*
X271395237Y-39856476D02*
X271376190Y-39875523D01*
X271376190Y-39875523D02*
X271338095Y-39894571D01*
X271338095Y-39894571D02*
X271185714Y-39894571D01*
X271661904Y-39685047D02*
X271738095Y-39685047D01*
X271738095Y-39685047D02*
X271776190Y-39704095D01*
X271776190Y-39704095D02*
X271814285Y-39742190D01*
X271814285Y-39742190D02*
X271833333Y-39818380D01*
X271833333Y-39818380D02*
X271833333Y-39951714D01*
X271833333Y-39951714D02*
X271814285Y-40027904D01*
X271814285Y-40027904D02*
X271776190Y-40066000D01*
X271776190Y-40066000D02*
X271738095Y-40085047D01*
X271738095Y-40085047D02*
X271661904Y-40085047D01*
X271661904Y-40085047D02*
X271623809Y-40066000D01*
X271623809Y-40066000D02*
X271585714Y-40027904D01*
X271585714Y-40027904D02*
X271566666Y-39951714D01*
X271566666Y-39951714D02*
X271566666Y-39818380D01*
X271566666Y-39818380D02*
X271585714Y-39742190D01*
X271585714Y-39742190D02*
X271623809Y-39704095D01*
X271623809Y-39704095D02*
X271661904Y-39685047D01*
X272004762Y-39685047D02*
X272004762Y-40008857D01*
X272004762Y-40008857D02*
X272023809Y-40046952D01*
X272023809Y-40046952D02*
X272042857Y-40066000D01*
X272042857Y-40066000D02*
X272080952Y-40085047D01*
X272080952Y-40085047D02*
X272157143Y-40085047D01*
X272157143Y-40085047D02*
X272195238Y-40066000D01*
X272195238Y-40066000D02*
X272214285Y-40046952D01*
X272214285Y-40046952D02*
X272233333Y-40008857D01*
X272233333Y-40008857D02*
X272233333Y-39685047D01*
X272366667Y-39685047D02*
X272595238Y-39685047D01*
X272480952Y-40085047D02*
X272480952Y-39685047D01*
%TO.C,J3*%
X270061904Y-56785047D02*
X270061904Y-56385047D01*
X270290475Y-56785047D02*
X270119046Y-56556476D01*
X270290475Y-56385047D02*
X270061904Y-56613619D01*
X270461904Y-56575523D02*
X270595237Y-56575523D01*
X270652380Y-56785047D02*
X270461904Y-56785047D01*
X270461904Y-56785047D02*
X270461904Y-56385047D01*
X270461904Y-56385047D02*
X270652380Y-56385047D01*
X270823809Y-56575523D02*
X270957142Y-56575523D01*
X271014285Y-56785047D02*
X270823809Y-56785047D01*
X270823809Y-56785047D02*
X270823809Y-56385047D01*
X270823809Y-56385047D02*
X271014285Y-56385047D01*
X271185714Y-56785047D02*
X271185714Y-56385047D01*
X271185714Y-56385047D02*
X271338095Y-56385047D01*
X271338095Y-56385047D02*
X271376190Y-56404095D01*
X271376190Y-56404095D02*
X271395237Y-56423142D01*
X271395237Y-56423142D02*
X271414285Y-56461238D01*
X271414285Y-56461238D02*
X271414285Y-56518380D01*
X271414285Y-56518380D02*
X271395237Y-56556476D01*
X271395237Y-56556476D02*
X271376190Y-56575523D01*
X271376190Y-56575523D02*
X271338095Y-56594571D01*
X271338095Y-56594571D02*
X271185714Y-56594571D01*
X271661904Y-56385047D02*
X271738095Y-56385047D01*
X271738095Y-56385047D02*
X271776190Y-56404095D01*
X271776190Y-56404095D02*
X271814285Y-56442190D01*
X271814285Y-56442190D02*
X271833333Y-56518380D01*
X271833333Y-56518380D02*
X271833333Y-56651714D01*
X271833333Y-56651714D02*
X271814285Y-56727904D01*
X271814285Y-56727904D02*
X271776190Y-56766000D01*
X271776190Y-56766000D02*
X271738095Y-56785047D01*
X271738095Y-56785047D02*
X271661904Y-56785047D01*
X271661904Y-56785047D02*
X271623809Y-56766000D01*
X271623809Y-56766000D02*
X271585714Y-56727904D01*
X271585714Y-56727904D02*
X271566666Y-56651714D01*
X271566666Y-56651714D02*
X271566666Y-56518380D01*
X271566666Y-56518380D02*
X271585714Y-56442190D01*
X271585714Y-56442190D02*
X271623809Y-56404095D01*
X271623809Y-56404095D02*
X271661904Y-56385047D01*
X272004762Y-56385047D02*
X272004762Y-56708857D01*
X272004762Y-56708857D02*
X272023809Y-56746952D01*
X272023809Y-56746952D02*
X272042857Y-56766000D01*
X272042857Y-56766000D02*
X272080952Y-56785047D01*
X272080952Y-56785047D02*
X272157143Y-56785047D01*
X272157143Y-56785047D02*
X272195238Y-56766000D01*
X272195238Y-56766000D02*
X272214285Y-56746952D01*
X272214285Y-56746952D02*
X272233333Y-56708857D01*
X272233333Y-56708857D02*
X272233333Y-56385047D01*
X272366667Y-56385047D02*
X272595238Y-56385047D01*
X272480952Y-56785047D02*
X272480952Y-56385047D01*
%TO.C,J1*%
X270061904Y-23385047D02*
X270061904Y-22985047D01*
X270290475Y-23385047D02*
X270119046Y-23156476D01*
X270290475Y-22985047D02*
X270061904Y-23213619D01*
X270461904Y-23175523D02*
X270595237Y-23175523D01*
X270652380Y-23385047D02*
X270461904Y-23385047D01*
X270461904Y-23385047D02*
X270461904Y-22985047D01*
X270461904Y-22985047D02*
X270652380Y-22985047D01*
X270823809Y-23175523D02*
X270957142Y-23175523D01*
X271014285Y-23385047D02*
X270823809Y-23385047D01*
X270823809Y-23385047D02*
X270823809Y-22985047D01*
X270823809Y-22985047D02*
X271014285Y-22985047D01*
X271185714Y-23385047D02*
X271185714Y-22985047D01*
X271185714Y-22985047D02*
X271338095Y-22985047D01*
X271338095Y-22985047D02*
X271376190Y-23004095D01*
X271376190Y-23004095D02*
X271395237Y-23023142D01*
X271395237Y-23023142D02*
X271414285Y-23061238D01*
X271414285Y-23061238D02*
X271414285Y-23118380D01*
X271414285Y-23118380D02*
X271395237Y-23156476D01*
X271395237Y-23156476D02*
X271376190Y-23175523D01*
X271376190Y-23175523D02*
X271338095Y-23194571D01*
X271338095Y-23194571D02*
X271185714Y-23194571D01*
X271661904Y-22985047D02*
X271738095Y-22985047D01*
X271738095Y-22985047D02*
X271776190Y-23004095D01*
X271776190Y-23004095D02*
X271814285Y-23042190D01*
X271814285Y-23042190D02*
X271833333Y-23118380D01*
X271833333Y-23118380D02*
X271833333Y-23251714D01*
X271833333Y-23251714D02*
X271814285Y-23327904D01*
X271814285Y-23327904D02*
X271776190Y-23366000D01*
X271776190Y-23366000D02*
X271738095Y-23385047D01*
X271738095Y-23385047D02*
X271661904Y-23385047D01*
X271661904Y-23385047D02*
X271623809Y-23366000D01*
X271623809Y-23366000D02*
X271585714Y-23327904D01*
X271585714Y-23327904D02*
X271566666Y-23251714D01*
X271566666Y-23251714D02*
X271566666Y-23118380D01*
X271566666Y-23118380D02*
X271585714Y-23042190D01*
X271585714Y-23042190D02*
X271623809Y-23004095D01*
X271623809Y-23004095D02*
X271661904Y-22985047D01*
X272004762Y-22985047D02*
X272004762Y-23308857D01*
X272004762Y-23308857D02*
X272023809Y-23346952D01*
X272023809Y-23346952D02*
X272042857Y-23366000D01*
X272042857Y-23366000D02*
X272080952Y-23385047D01*
X272080952Y-23385047D02*
X272157143Y-23385047D01*
X272157143Y-23385047D02*
X272195238Y-23366000D01*
X272195238Y-23366000D02*
X272214285Y-23346952D01*
X272214285Y-23346952D02*
X272233333Y-23308857D01*
X272233333Y-23308857D02*
X272233333Y-22985047D01*
X272366667Y-22985047D02*
X272595238Y-22985047D01*
X272480952Y-23385047D02*
X272480952Y-22985047D01*
%TO.C,J4*%
X270061904Y-73485047D02*
X270061904Y-73085047D01*
X270290475Y-73485047D02*
X270119046Y-73256476D01*
X270290475Y-73085047D02*
X270061904Y-73313619D01*
X270461904Y-73275523D02*
X270595237Y-73275523D01*
X270652380Y-73485047D02*
X270461904Y-73485047D01*
X270461904Y-73485047D02*
X270461904Y-73085047D01*
X270461904Y-73085047D02*
X270652380Y-73085047D01*
X270823809Y-73275523D02*
X270957142Y-73275523D01*
X271014285Y-73485047D02*
X270823809Y-73485047D01*
X270823809Y-73485047D02*
X270823809Y-73085047D01*
X270823809Y-73085047D02*
X271014285Y-73085047D01*
X271185714Y-73485047D02*
X271185714Y-73085047D01*
X271185714Y-73085047D02*
X271338095Y-73085047D01*
X271338095Y-73085047D02*
X271376190Y-73104095D01*
X271376190Y-73104095D02*
X271395237Y-73123142D01*
X271395237Y-73123142D02*
X271414285Y-73161238D01*
X271414285Y-73161238D02*
X271414285Y-73218380D01*
X271414285Y-73218380D02*
X271395237Y-73256476D01*
X271395237Y-73256476D02*
X271376190Y-73275523D01*
X271376190Y-73275523D02*
X271338095Y-73294571D01*
X271338095Y-73294571D02*
X271185714Y-73294571D01*
X271661904Y-73085047D02*
X271738095Y-73085047D01*
X271738095Y-73085047D02*
X271776190Y-73104095D01*
X271776190Y-73104095D02*
X271814285Y-73142190D01*
X271814285Y-73142190D02*
X271833333Y-73218380D01*
X271833333Y-73218380D02*
X271833333Y-73351714D01*
X271833333Y-73351714D02*
X271814285Y-73427904D01*
X271814285Y-73427904D02*
X271776190Y-73466000D01*
X271776190Y-73466000D02*
X271738095Y-73485047D01*
X271738095Y-73485047D02*
X271661904Y-73485047D01*
X271661904Y-73485047D02*
X271623809Y-73466000D01*
X271623809Y-73466000D02*
X271585714Y-73427904D01*
X271585714Y-73427904D02*
X271566666Y-73351714D01*
X271566666Y-73351714D02*
X271566666Y-73218380D01*
X271566666Y-73218380D02*
X271585714Y-73142190D01*
X271585714Y-73142190D02*
X271623809Y-73104095D01*
X271623809Y-73104095D02*
X271661904Y-73085047D01*
X272004762Y-73085047D02*
X272004762Y-73408857D01*
X272004762Y-73408857D02*
X272023809Y-73446952D01*
X272023809Y-73446952D02*
X272042857Y-73466000D01*
X272042857Y-73466000D02*
X272080952Y-73485047D01*
X272080952Y-73485047D02*
X272157143Y-73485047D01*
X272157143Y-73485047D02*
X272195238Y-73466000D01*
X272195238Y-73466000D02*
X272214285Y-73446952D01*
X272214285Y-73446952D02*
X272233333Y-73408857D01*
X272233333Y-73408857D02*
X272233333Y-73085047D01*
X272366667Y-73085047D02*
X272595238Y-73085047D01*
X272480952Y-73485047D02*
X272480952Y-73085047D01*
%TD*%
M02*
